# Blender v2.93.0 OBJ File: 'cocina.blend'
# www.blender.org
mtllib estropajo_1.mtl
o Cubo.042_Cubo.016
v 5.197204 1.366829 -2.906243
v 5.197204 1.385237 -2.879955
v 5.325999 1.366829 -2.906243
v 5.325999 1.385237 -2.879955
v 5.197204 1.230449 -2.810749
v 5.197204 1.248857 -2.784460
v 5.325999 1.230449 -2.810749
v 5.325999 1.248857 -2.784460
vt 0.375000 0.000000
vt 0.625000 0.000000
vt 0.625000 0.250000
vt 0.375000 0.250000
vt 0.625000 0.500000
vt 0.375000 0.500000
vt 0.625000 0.750000
vt 0.375000 0.750000
vt 0.625000 1.000000
vt 0.375000 1.000000
vt 0.125000 0.500000
vt 0.125000 0.750000
vt 0.875000 0.500000
vt 0.875000 0.750000
vn 0.0000 0.8192 -0.5736
vn 1.0000 -0.0000 0.0000
vn 0.0000 -0.8192 0.5736
vn -1.0000 -0.0000 0.0000
vn 0.0000 -0.5736 -0.8192
vn 0.0000 0.5736 0.8192
usemtl Material.157
s off
f 1/1/1 2/2/1 4/3/1 3/4/1
f 3/4/2 4/3/2 8/5/2 7/6/2
f 7/6/3 8/5/3 6/7/3 5/8/3
f 5/8/4 6/7/4 2/9/4 1/10/4
f 3/11/5 7/6/5 5/8/5 1/12/5
f 8/5/6 4/13/6 2/14/6 6/7/6
