# Blender v2.93.0 OBJ File: 'cocina.blend'
# www.blender.org
mtllib extractor_1.mtl
o Cilindro.021_Cilindro.058
v 0.050000 -0.000000 0.040000
v 0.050000 -0.000000 -0.040000
v 0.035355 0.035355 0.040000
v 0.035355 0.035355 -0.040000
v -0.000000 0.050000 0.040000
v 0.000000 0.050000 -0.040000
v -0.035355 0.035355 0.040000
v -0.035355 0.035355 -0.040000
v -0.050000 -0.000000 0.040000
v -0.050000 -0.000000 -0.040000
v -0.035355 -0.035355 0.040000
v -0.035355 -0.035355 -0.040000
v -0.000000 -0.050000 0.040000
v -0.000000 -0.050000 -0.040000
v 0.035355 -0.035355 0.040000
v 0.035355 -0.035355 -0.040000
v 0.375768 0.146177 0.040000
v 0.375768 0.146177 -0.040000
v 0.361123 0.181533 -0.040000
v 0.361123 0.181533 0.040000
v 0.166530 0.378418 0.040000
v 0.166530 0.378418 -0.040000
v 0.131175 0.393063 -0.040000
v 0.131175 0.393063 0.040000
v -0.131175 0.393063 0.040000
v -0.131175 0.393063 -0.040000
v -0.166530 0.378418 -0.040000
v -0.166530 0.378418 0.040000
v -0.361123 0.181533 0.040000
v -0.361123 0.181533 -0.040000
v -0.375768 0.146177 -0.040000
v -0.375768 0.146177 0.040000
v -0.375768 -0.146177 0.040000
v -0.375768 -0.146177 -0.040000
v -0.361123 -0.181533 -0.040000
v -0.361123 -0.181533 0.040000
v -0.166530 -0.378418 0.040000
v -0.166530 -0.378418 -0.040000
v -0.131175 -0.393063 -0.040000
v -0.131175 -0.393063 0.040000
v 0.131175 -0.393063 0.040000
v 0.131175 -0.393063 -0.040000
v 0.166530 -0.378418 -0.040000
v 0.166530 -0.378418 0.040000
v 0.361123 -0.181533 0.040000
v 0.361123 -0.181533 -0.040000
v 0.375768 -0.146177 -0.040000
v 0.375768 -0.146177 0.040000
v 0.050000 -0.000000 0.000000
v 0.390868 -0.104993 0.000000
v 0.212884 -0.073089 -0.040000
v 0.212884 -0.073089 0.040000
v 0.222813 -0.026365 0.000000
v 0.035355 -0.035355 0.000000
v 0.361123 -0.181533 0.000000
v 0.198239 -0.108444 -0.040000
v 0.198239 -0.108444 0.040000
v 0.198239 -0.108444 0.000000
v 0.035355 0.035355 0.000000
v 0.000000 0.050000 -0.000000
v -0.035355 0.035355 -0.000000
v 0.350097 0.220245 0.000000
v 0.198239 0.108444 -0.040000
v 0.198239 0.108444 0.040000
v 0.078346 0.411468 0.000000
v 0.065587 0.221531 -0.040000
v 0.065587 0.221531 0.040000
v -0.210760 0.358257 -0.000000
v -0.100943 0.206887 -0.040000
v -0.100943 0.206887 0.040000
v -0.145173 0.186725 -0.000000
v 0.012759 0.239937 0.000000
v 0.187213 0.147156 0.000000
v -0.050000 -0.000000 -0.000000
v -0.388964 0.110754 -0.000000
v -0.212884 0.073089 -0.040000
v -0.212884 0.073089 0.040000
v -0.226080 0.037665 -0.000000
v -0.035355 -0.035355 -0.000000
v -0.344133 -0.228515 -0.000000
v -0.198239 -0.108444 -0.040000
v -0.198239 -0.108444 0.040000
v -0.181250 -0.155427 -0.000000
v -0.000000 -0.050000 0.000000
v -0.083784 -0.402600 0.010766
v -0.065587 -0.221531 -0.040000
v -0.065587 -0.221531 0.040000
v -0.018197 -0.231069 0.010766
v 0.100943 -0.206887 0.040000
v 0.215726 -0.358429 0.000000
v 0.035355 -0.035355 0.020000
v 0.035355 -0.035355 -0.020000
v 0.100943 -0.206887 -0.040000
v 0.150138 -0.186897 0.000000
vt 0.815464 0.349360
vt 0.815464 0.331470
vt 0.819936 0.331470
vt 0.819936 0.340415
vt 0.819936 0.349360
vt 0.815464 0.331470
vt 0.815464 0.349360
vt 0.815464 0.340415
vt 0.819936 0.331470
vt 0.819936 0.331470
vt 0.819936 0.340415
vt 0.819936 0.349360
vt 0.819936 0.349360
vt 0.819936 0.349360
vt 0.819936 0.331470
vt 0.824409 0.331470
vt 0.824409 0.340415
vt 0.824409 0.349360
vt 0.819936 0.340415
vt 0.824409 0.331470
vt 0.824409 0.331470
vt 0.824409 0.340415
vt 0.824409 0.349360
vt 0.824409 0.349360
vt 0.824409 0.349360
vt 0.824409 0.331470
vt 0.828882 0.331470
vt 0.828882 0.340415
vt 0.828882 0.349360
vt 0.824409 0.340415
vt 0.828882 0.331470
vt 0.828882 0.331470
vt 0.828882 0.340415
vt 0.828882 0.349360
vt 0.828882 0.349360
vt 0.828882 0.349360
vt 0.828882 0.331470
vt 0.833354 0.331470
vt 0.833354 0.340415
vt 0.833354 0.349360
vt 0.828882 0.340415
vt 0.833354 0.331470
vt 0.833354 0.331470
vt 0.833354 0.340415
vt 0.833354 0.349360
vt 0.833354 0.349360
vt 0.833354 0.349360
vt 0.833354 0.331470
vt 0.837827 0.331470
vt 0.837827 0.340415
vt 0.837827 0.349360
vt 0.833354 0.340415
vt 0.837827 0.331470
vt 0.837827 0.331470
vt 0.837827 0.340415
vt 0.837827 0.349360
vt 0.837827 0.349360
vt 0.837827 0.349360
vt 0.837827 0.331470
vt 0.842299 0.331470
vt 0.842299 0.340415
vt 0.842299 0.349360
vt 0.837827 0.340415
vt 0.842299 0.331470
vt 0.842299 0.331470
vt 0.842299 0.340415
vt 0.842299 0.349360
vt 0.842299 0.349360
vt 0.842299 0.349360
vt 0.842299 0.331470
vt 0.846772 0.331470
vt 0.846772 0.340415
vt 0.846772 0.349360
vt 0.842299 0.340415
vt 0.846772 0.331470
vt 0.846772 0.331470
vt 0.851245 0.367251
vt 0.851245 0.367251
vt 0.846772 0.349360
vt 0.846772 0.349360
vt 0.846772 0.349360
vt 0.846772 0.340415
vt 0.846772 0.331470
vt 0.851245 0.331470
vt 0.851245 0.340415
vt 0.851245 0.349360
vt 0.846772 0.340415
vt 0.846772 0.349360
vt 0.851245 0.331470
vt 0.851245 0.331470
vt 0.846772 0.331470
vt 0.851245 0.340415
vt 0.851245 0.349360
vt 0.851245 0.349360
vt 0.851245 0.340415
vt 0.846772 0.340415
vt 0.846772 0.344888
vt 0.846772 0.335942
vn 0.9383 0.3457 0.0000
vn 0.4094 -0.9124 0.0000
vn 0.0000 -0.0000 -1.0000
vn -0.2901 0.6465 -0.7056
vn -0.0000 0.0000 1.0000
vn 0.3602 0.9329 0.0000
vn 0.9340 -0.3571 0.0000
vn -0.5434 0.2078 -0.8133
vn -0.3952 0.9186 0.0000
vn 0.9340 0.3571 -0.0000
vn -0.5942 -0.2272 -0.7716
vn -0.9284 0.3716 0.0000
vn 0.4094 0.9124 0.0000
vn -0.2978 -0.6638 -0.6861
vn -0.9306 -0.3659 0.0000
vn -0.4094 0.9124 0.0000
vn 0.2563 -0.5712 -0.7798
vn -0.3123 -0.9500 0.0000
vn -0.9340 0.3571 0.0000
vn 0.6809 -0.2604 -0.6845
vn 0.3801 -0.9249 0.0000
vn -0.9340 -0.3571 0.0000
vn 0.7292 0.4071 -0.5501
vn 0.9295 -0.3688 0.0000
vn -0.4094 -0.9124 0.0000
vn 0.2763 0.6026 -0.7487
vn 0.2441 0.8239 -0.5115
vn 0.2441 0.8239 0.5115
vn 0.2763 0.6026 0.7487
vn -0.7515 -0.4082 -0.5183
vn -0.7515 -0.4082 0.5183
vn -0.5942 -0.2272 0.7716
vn -0.8029 0.1740 -0.5702
vn -0.8029 0.1740 0.5702
vn -0.5434 0.2078 0.8133
vn -0.4554 0.7752 -0.4379
vn -0.4554 0.7752 0.4379
vn -0.2901 0.6465 0.7056
vn -0.2809 -0.8596 -0.4269
vn -0.2809 -0.8596 0.4269
vn -0.2978 -0.6638 0.6861
vn 0.4527 -0.7236 -0.5211
vn 0.4527 -0.7236 0.5211
vn 0.2563 -0.5712 0.7798
vn 0.8556 -0.2177 -0.4696
vn 0.8015 -0.1730 0.5724
vn 0.4883 -0.1867 0.8525
vn 0.7292 0.4071 0.5501
vn 0.5621 0.2149 -0.7987
vn 0.5621 0.2149 0.7987
usemtl Material.158
s off
f 17/1/1 18/2/1 19/3/1 62/4/1 20/5/1
f 2/6/2 18/2/2 17/1/2 1/7/2 49/8/2
f 4/9/3 63/10/3 19/3/3 18/2/3 2/6/3
f 73/11/4 62/4/4 19/3/4 63/10/4
f 1/7/5 17/1/5 20/5/5 64/12/5 3/13/5
f 21/14/6 22/15/6 23/16/6 65/17/6 24/18/6
f 4/9/7 22/15/7 21/14/7 3/13/7 59/19/7
f 6/20/3 66/21/3 23/16/3 22/15/3 4/9/3
f 72/22/8 65/17/8 23/16/8 66/21/8
f 3/13/5 21/14/5 24/18/5 67/23/5 5/24/5
f 25/25/9 26/26/9 27/27/9 68/28/9 28/29/9
f 6/20/10 26/26/10 25/25/10 5/24/10 60/30/10
f 8/31/3 69/32/3 27/27/3 26/26/3 6/20/3
f 71/33/11 68/28/11 27/27/11 69/32/11
f 5/24/5 25/25/5 28/29/5 70/34/5 7/35/5
f 29/36/12 30/37/12 31/38/12 75/39/12 32/40/12
f 8/31/13 30/37/13 29/36/13 7/35/13 61/41/13
f 10/42/3 76/43/3 31/38/3 30/37/3 8/31/3
f 78/44/14 75/39/14 31/38/14 76/43/14
f 7/35/5 29/36/5 32/40/5 77/45/5 9/46/5
f 33/47/15 34/48/15 35/49/15 80/50/15 36/51/15
f 10/42/16 34/48/16 33/47/16 9/46/16 74/52/16
f 12/53/3 81/54/3 35/49/3 34/48/3 10/42/3
f 83/55/17 80/50/17 35/49/17 81/54/17
f 9/46/5 33/47/5 36/51/5 82/56/5 11/57/5
f 37/58/18 38/59/18 39/60/18 85/61/18 40/62/18
f 12/53/19 38/59/19 37/58/19 11/57/19 79/63/19
f 14/64/3 86/65/3 39/60/3 38/59/3 12/53/3
f 88/66/20 85/61/20 39/60/20 86/65/20
f 11/57/5 37/58/5 40/62/5 87/67/5 13/68/5
f 41/69/21 42/70/21 43/71/21 90/72/21 44/73/21
f 14/64/22 42/70/22 41/69/22 13/68/22 84/74/22
f 16/75/3 93/76/3 43/71/3 42/70/3 14/64/3
f 93/76/23 16/75/23 54/77/23 94/78/23
f 13/68/5 41/69/5 44/73/5 89/79/5 15/80/5
f 45/81/24 55/82/24 46/83/24 47/84/24 50/85/24 48/86/24
f 58/87/25 55/82/25 45/81/25 57/88/25
f 2/89/3 51/90/3 47/84/3 46/83/3 56/91/3 16/75/3
f 53/92/26 50/85/26 47/84/26 51/90/26
f 15/80/5 57/88/5 45/81/5 48/86/5 52/93/5 1/94/5
f 49/95/27 53/92/27 51/90/27 2/89/27
f 1/94/28 52/93/28 53/92/28 49/95/28
f 52/93/29 48/86/29 50/85/29 53/92/29
f 54/96/25 58/87/25 57/88/25 15/80/25 91/97/25
f 16/75/25 56/91/25 58/87/25 54/96/25 92/98/25
f 56/91/25 46/83/25 55/82/25 58/87/25
f 61/41/30 71/33/30 69/32/30 8/31/30
f 7/35/31 70/34/31 71/33/31 61/41/31
f 70/34/32 28/29/32 68/28/32 71/33/32
f 60/30/33 72/22/33 66/21/33 6/20/33
f 5/24/34 67/23/34 72/22/34 60/30/34
f 67/23/35 24/18/35 65/17/35 72/22/35
f 59/19/36 73/11/36 63/10/36 4/9/36
f 3/13/37 64/12/37 73/11/37 59/19/37
f 64/12/38 20/5/38 62/4/38 73/11/38
f 74/52/39 78/44/39 76/43/39 10/42/39
f 9/46/40 77/45/40 78/44/40 74/52/40
f 77/45/41 32/40/41 75/39/41 78/44/41
f 79/63/42 83/55/42 81/54/42 12/53/42
f 11/57/43 82/56/43 83/55/43 79/63/43
f 82/56/44 36/51/44 80/50/44 83/55/44
f 84/74/45 88/66/45 86/65/45 14/64/45
f 13/68/46 87/67/46 88/66/46 84/74/46
f 87/67/47 40/62/47 85/61/47 88/66/47
f 89/79/48 94/78/48 54/77/48 15/80/48
f 90/72/49 43/71/49 93/76/49 94/78/49
f 90/72/50 94/78/50 89/79/50 44/73/50
f 4/9/3 2/89/3 16/75/3 14/64/3 12/53/3 10/42/3 8/31/3 6/20/3
f 1/94/5 3/13/5 5/24/5 7/35/5 9/46/5 11/57/5 13/68/5 15/80/5
l 89 93
