# Blender v2.93.0 OBJ File: 'cocina.blend'
# www.blender.org
mtllib mesa_centro_puerta1.mtl
o Cubo.025_Cubo.006
v 0.021337 -0.525313 -0.010954
v 0.011337 -0.525313 -0.010954
v 0.021337 0.526416 -0.010954
v 0.011337 0.526416 -0.010954
v 0.021337 -0.525313 0.617552
v 0.011337 -0.525313 0.617552
v 0.021337 0.526416 0.617552
v 0.011337 0.526416 0.617552
v 0.021337 0.500015 0.015447
v 0.021337 0.500015 0.591151
v 0.021337 -0.498911 0.591151
v 0.021337 -0.498911 0.015447
v -0.015853 0.500015 0.591151
v -0.015853 0.500015 0.015447
v -0.015853 -0.498911 0.015447
v -0.015853 -0.498911 0.591151
v -0.015853 0.500015 0.303299
v -0.015853 0.000552 0.591151
v -0.015853 0.000552 0.015447
v -0.015853 -0.498911 0.303299
v 0.011337 0.000552 0.303299
v -0.009127 0.110063 0.519941
v -0.044562 0.128851 0.510246
v -0.009558 0.109611 0.524503
v -0.045337 0.128039 0.518457
v -0.009972 0.108275 0.528888
v -0.046083 0.125633 0.526352
v -0.010354 0.106105 0.532931
v -0.046770 0.121727 0.533628
v -0.010688 0.103184 0.536474
v -0.047373 0.116469 0.540005
v -0.010963 0.099625 0.539381
v -0.047867 0.110064 0.545239
v -0.011167 0.095565 0.541542
v -0.048234 0.102755 0.549128
v -0.011293 0.091160 0.542872
v -0.048461 0.094825 0.551523
v -0.011335 0.086578 0.543322
v -0.048537 0.086578 0.552332
v -0.011293 0.081997 0.542872
v -0.048461 0.078331 0.551523
v -0.011167 0.077591 0.541542
v -0.048234 0.070401 0.549128
v -0.010963 0.073531 0.539381
v -0.047867 0.063093 0.545239
v -0.010688 0.069972 0.536474
v -0.047373 0.056687 0.540005
v -0.010354 0.067052 0.532931
v -0.046770 0.051430 0.533628
v -0.009972 0.064881 0.528889
v -0.046083 0.047523 0.526352
v -0.009558 0.063545 0.524503
v -0.045337 0.045118 0.518457
v -0.009127 0.063094 0.519941
v -0.044562 0.044306 0.510246
v -0.008696 0.063545 0.515380
v -0.043786 0.045118 0.502036
v -0.008282 0.064881 0.510994
v -0.043040 0.047523 0.494141
v -0.007900 0.067052 0.506952
v -0.042353 0.051430 0.486865
v -0.007565 0.069972 0.503409
v -0.041751 0.056687 0.480487
v -0.007290 0.073531 0.500501
v -0.041256 0.063093 0.475254
v -0.007086 0.077591 0.498341
v -0.040889 0.070401 0.471365
v -0.006961 0.081997 0.497010
v -0.040663 0.078331 0.468970
v -0.006918 0.086578 0.496561
v -0.040586 0.086578 0.468161
v -0.006961 0.091160 0.497010
v -0.040663 0.094825 0.468970
v -0.007086 0.095565 0.498341
v -0.040889 0.102755 0.471365
v -0.007290 0.099625 0.500501
v -0.041256 0.110064 0.475254
v -0.007565 0.103184 0.503409
v -0.041751 0.116469 0.480487
v -0.007900 0.106105 0.506952
v -0.042353 0.121727 0.486865
v -0.008282 0.108275 0.510994
v -0.043040 0.125633 0.494141
v -0.008696 0.109611 0.515380
v -0.043786 0.128039 0.502036
vt 0.506579 0.320204
vt 0.493421 0.333361
vt 0.493421 0.320204
vt 0.506579 0.333361
vt 0.493421 0.346518
vt 0.506579 0.346518
vt 0.493421 0.359675
vt 0.506579 0.359675
vt 0.493421 0.372833
vt 0.492869 0.346848
vt 0.480817 0.359345
vt 0.480817 0.346848
vt 0.519183 0.353097
vt 0.513157 0.359345
vt 0.513157 0.353097
vt 0.480264 0.346518
vt 0.480264 0.359675
vt 0.492869 0.359345
vt 0.519736 0.346518
vt 0.519183 0.346848
vt 0.513157 0.346848
vt 0.519736 0.359675
vt 0.519183 0.359345
vt 0.507131 0.359345
vt 0.507131 0.346848
vt 0.507131 0.353097
vt 0.873955 0.375675
vt 0.872311 0.349360
vt 0.873955 0.349360
vt 0.872311 0.375675
vt 0.870666 0.349360
vt 0.870666 0.375675
vt 0.869021 0.349360
vt 0.869021 0.375675
vt 0.867377 0.349360
vt 0.867377 0.375675
vt 0.865732 0.349360
vt 0.865732 0.375675
vt 0.864087 0.349360
vt 0.864087 0.375675
vt 0.862443 0.349360
vt 0.862443 0.375675
vt 0.860798 0.349360
vt 0.859153 0.375675
vt 0.859153 0.349360
vt 0.857509 0.375675
vt 0.857509 0.349360
vt 0.855864 0.375675
vt 0.855864 0.349360
vt 0.854219 0.375675
vt 0.854219 0.349360
vt 0.852575 0.375675
vt 0.852575 0.349360
vt 0.850930 0.375675
vt 0.850930 0.349360
vt 0.849285 0.375675
vt 0.849285 0.349360
vt 0.847641 0.375675
vt 0.847641 0.349360
vt 0.845996 0.375675
vt 0.845996 0.349360
vt 0.844352 0.375675
vt 0.844352 0.349360
vt 0.842707 0.375675
vt 0.842707 0.349360
vt 0.841062 0.375675
vt 0.841062 0.349360
vt 0.839418 0.375675
vt 0.839418 0.349360
vt 0.837773 0.375675
vt 0.837773 0.349360
vt 0.836128 0.375675
vt 0.836128 0.349360
vt 0.834484 0.375675
vt 0.834484 0.349360
vt 0.832839 0.349360
vt 0.832839 0.375675
vt 0.831194 0.349360
vt 0.831194 0.375675
vt 0.829550 0.349360
vt 0.829550 0.375675
vt 0.827905 0.349360
vt 0.827905 0.375675
vt 0.826260 0.349360
vt 0.826260 0.375675
vt 0.824616 0.349360
vt 0.843415 0.345135
vt 0.841501 0.346705
vt 0.843415 0.327272
vt 0.824616 0.375675
vt 0.822971 0.349360
vt 0.822971 0.375675
vt 0.821326 0.349360
vt 0.506140 0.343863
vt 0.508324 0.345030
vt 0.506140 0.322858
vt 0.506579 0.372833
vt 0.860798 0.375675
vt 0.839317 0.347873
vt 0.836948 0.348591
vt 0.836948 0.323815
vt 0.834484 0.348834
vt 0.834484 0.323572
vt 0.832019 0.348591
vt 0.832019 0.323815
vt 0.829650 0.347873
vt 0.829650 0.324533
vt 0.827466 0.346705
vt 0.825552 0.345135
vt 0.827466 0.325701
vt 0.823981 0.343220
vt 0.825552 0.327272
vt 0.822814 0.341037
vt 0.823981 0.329186
vt 0.822095 0.338667
vt 0.822095 0.333739
vt 0.821853 0.336203
vt 0.822814 0.331369
vt 0.839317 0.324533
vt 0.841501 0.325701
vt 0.844986 0.329186
vt 0.846153 0.331369
vt 0.844986 0.343220
vt 0.846872 0.333739
vt 0.846153 0.341037
vt 0.847115 0.336203
vt 0.846872 0.338667
vt 0.821326 0.375675
vt 0.510693 0.345749
vt 0.513157 0.345992
vt 0.513157 0.320730
vt 0.515621 0.345749
vt 0.515621 0.320972
vt 0.517991 0.345030
vt 0.520175 0.343863
vt 0.517991 0.321691
vt 0.522089 0.342292
vt 0.522089 0.324429
vt 0.523660 0.340378
vt 0.523660 0.326343
vt 0.524827 0.338194
vt 0.525546 0.335825
vt 0.524827 0.328527
vt 0.525788 0.333361
vt 0.525546 0.330897
vt 0.520175 0.322858
vt 0.510693 0.320972
vt 0.508324 0.321691
vt 0.504226 0.324429
vt 0.504226 0.342292
vt 0.502655 0.326343
vt 0.502655 0.340378
vt 0.501488 0.328527
vt 0.500769 0.330897
vt 0.501488 0.338194
vt 0.500526 0.333361
vt 0.500769 0.335825
vn 0.0000 0.0000 -1.0000
vn 0.0000 1.0000 0.0000
vn 0.0000 0.0000 1.0000
vn 0.0000 -1.0000 -0.0000
vn 1.0000 0.0000 0.0000
vn -0.9941 0.0541 0.0939
vn -0.6966 0.7174 0.0000
vn -0.6966 -0.0000 -0.7174
vn -0.6966 -0.7174 -0.0000
vn -0.6966 -0.0000 0.7174
vn -1.0000 -0.0000 -0.0000
vn -0.9941 -0.0541 0.0939
vn 0.4367 0.8903 0.1293
vn 0.3958 0.8674 0.3017
vn 0.3560 0.8089 0.4679
vn 0.3191 0.7163 0.6206
vn 0.2871 0.5927 0.7525
vn 0.2614 0.4432 0.8575
vn 0.2436 0.2740 0.9304
vn 0.2344 0.0927 0.9677
vn 0.2344 -0.0927 0.9677
vn 0.2436 -0.2740 0.9304
vn 0.2614 -0.4432 0.8575
vn 0.2871 -0.5927 0.7525
vn 0.3191 -0.7163 0.6206
vn 0.3560 -0.8089 0.4679
vn 0.3958 -0.8674 0.3017
vn 0.4367 -0.8903 0.1293
vn 0.4769 -0.8779 -0.0418
vn 0.5150 -0.8323 -0.2050
vn 0.5496 -0.7566 -0.3543
vn 0.5797 -0.6548 -0.4850
vn 0.6044 -0.5315 -0.5934
vn 0.6234 -0.3915 -0.6768
vn 0.6362 -0.2396 -0.7334
vn 0.6427 -0.0807 -0.7619
vn 0.6427 0.0807 -0.7619
vn 0.6362 0.2396 -0.7333
vn 0.6234 0.3915 -0.6768
vn 0.6044 0.5315 -0.5934
vn 0.5797 0.6548 -0.4850
vn 0.5496 0.7566 -0.3543
vn -0.9956 -0.0000 -0.0940
vn 0.5150 0.8323 -0.2050
vn 0.4769 0.8779 -0.0418
vn 0.9956 0.0000 0.0940
vn -0.9941 0.0541 -0.0939
vn -0.9941 -0.0541 -0.0939
vn 0.2615 0.4432 0.8575
vn 0.6362 -0.2396 -0.7333
g Cubo.025_Cubo.006_Material.004
usemtl Material.004
s off
f 2/1/1 3/2/1 1/3/1
f 4/4/2 7/5/2 3/2/2
f 8/6/3 5/7/3 7/5/3
f 6/8/4 1/9/4 5/7/4
f 10/10/5 12/11/5 9/12/5
f 19/13/6 20/14/6 21/15/6
f 7/5/5 9/12/5 3/16/5
f 5/7/5 10/10/5 7/5/5
f 1/17/5 11/18/5 5/7/5
f 1/17/5 9/12/5 12/11/5
f 4/19/7 14/20/7 17/21/7
f 2/22/8 15/23/8 19/13/8
f 6/8/9 16/24/9 20/14/9
f 8/6/10 13/25/10 18/26/10
f 18/26/11 20/14/11 16/24/11
f 17/21/11 18/26/11 13/25/11
f 17/21/12 19/13/12 21/15/12
f 23/27/13 24/28/13 22/29/13
f 25/30/14 26/31/14 24/28/14
f 27/32/15 28/33/15 26/31/15
f 29/34/16 30/35/16 28/33/16
f 31/36/17 32/37/17 30/35/17
f 33/38/18 34/39/18 32/37/18
f 35/40/19 36/41/19 34/39/19
f 37/42/20 38/43/20 36/41/20
f 38/43/21 41/44/21 40/45/21
f 40/45/22 43/46/22 42/47/22
f 42/47/23 45/48/23 44/49/23
f 44/49/24 47/50/24 46/51/24
f 46/51/25 49/52/25 48/53/25
f 48/53/26 51/54/26 50/55/26
f 50/55/27 53/56/27 52/57/27
f 52/57/28 55/58/28 54/59/28
f 54/59/29 57/60/29 56/61/29
f 56/61/30 59/62/30 58/63/30
f 58/63/31 61/64/31 60/65/31
f 60/65/32 63/66/32 62/67/32
f 62/67/33 65/68/33 64/69/33
f 64/69/34 67/70/34 66/71/34
f 66/71/35 69/72/35 68/73/35
f 68/73/36 71/74/36 70/75/36
f 71/74/37 72/76/37 70/75/37
f 73/77/38 74/78/38 72/76/38
f 75/79/39 76/80/39 74/78/39
f 77/81/40 78/82/40 76/80/40
f 79/83/41 80/84/41 78/82/41
f 81/85/42 82/86/42 80/84/42
f 31/87/43 29/88/43 47/89/43
f 83/90/44 84/91/44 82/86/44
f 85/92/45 22/93/45 84/91/45
f 80/94/46 82/95/46 60/96/46
f 2/1/1 4/4/1 3/2/1
f 4/4/2 8/6/2 7/5/2
f 8/6/3 6/8/3 5/7/3
f 6/8/4 2/97/4 1/9/4
f 10/10/5 11/18/5 12/11/5
f 19/13/11 15/23/11 20/14/11
f 7/5/5 10/10/5 9/12/5
f 5/7/5 11/18/5 10/10/5
f 1/17/5 12/11/5 11/18/5
f 1/17/5 3/16/5 9/12/5
f 13/25/7 8/6/7 17/21/7
f 8/6/7 4/19/7 17/21/7
f 14/20/8 4/19/8 19/13/8
f 4/19/8 2/22/8 19/13/8
f 15/23/9 2/22/9 20/14/9
f 2/22/9 6/8/9 20/14/9
f 16/24/10 6/8/10 18/26/10
f 6/8/10 8/6/10 18/26/10
f 18/26/47 21/15/47 20/14/47
f 17/21/48 21/15/48 18/26/48
f 17/21/11 14/20/11 19/13/11
f 23/27/13 25/30/13 24/28/13
f 25/30/14 27/32/14 26/31/14
f 27/32/15 29/34/15 28/33/15
f 29/34/16 31/36/16 30/35/16
f 31/36/17 33/38/17 32/37/17
f 33/38/49 35/40/49 34/39/49
f 35/40/19 37/42/19 36/41/19
f 37/42/20 39/98/20 38/43/20
f 38/43/21 39/98/21 41/44/21
f 40/45/22 41/44/22 43/46/22
f 42/47/23 43/46/23 45/48/23
f 44/49/24 45/48/24 47/50/24
f 46/51/25 47/50/25 49/52/25
f 48/53/26 49/52/26 51/54/26
f 50/55/27 51/54/27 53/56/27
f 52/57/28 53/56/28 55/58/28
f 54/59/29 55/58/29 57/60/29
f 56/61/30 57/60/30 59/62/30
f 58/63/31 59/62/31 61/64/31
f 60/65/32 61/64/32 63/66/32
f 62/67/33 63/66/33 65/68/33
f 64/69/34 65/68/34 67/70/34
f 66/71/50 67/70/50 69/72/50
f 68/73/36 69/72/36 71/74/36
f 71/74/37 73/77/37 72/76/37
f 73/77/38 75/79/38 74/78/38
f 75/79/39 77/81/39 76/80/39
f 77/81/40 79/83/40 78/82/40
f 79/83/41 81/85/41 80/84/41
f 81/85/42 83/90/42 82/86/42
f 27/99/43 25/100/43 53/101/43
f 25/100/43 23/102/43 55/103/43
f 23/102/43 85/104/43 57/105/43
f 85/104/43 83/106/43 59/107/43
f 83/106/43 81/108/43 59/107/43
f 81/108/43 79/109/43 61/110/43
f 59/107/43 81/108/43 61/110/43
f 79/109/43 77/111/43 63/112/43
f 77/111/43 75/113/43 65/114/43
f 63/112/43 77/111/43 65/114/43
f 75/113/43 73/115/43 69/116/43
f 73/115/43 71/117/43 69/116/43
f 69/116/43 67/118/43 75/113/43
f 67/118/43 65/114/43 75/113/43
f 63/112/43 61/110/43 79/109/43
f 59/107/43 57/105/43 85/104/43
f 57/105/43 55/103/43 23/102/43
f 55/103/43 53/101/43 25/100/43
f 53/101/43 51/119/43 27/99/43
f 51/119/43 49/120/43 27/99/43
f 49/120/43 47/89/43 29/88/43
f 27/99/43 49/120/43 29/88/43
f 47/89/43 45/121/43 31/87/43
f 45/121/43 43/122/43 33/123/43
f 31/87/43 45/121/43 33/123/43
f 43/122/43 41/124/43 35/125/43
f 41/124/43 39/126/43 37/127/43
f 35/125/43 41/124/43 37/127/43
f 35/125/43 33/123/43 43/122/43
f 83/90/44 85/92/44 84/91/44
f 85/92/45 23/128/45 22/93/45
f 84/129/46 22/130/46 54/131/46
f 22/130/46 24/132/46 52/133/46
f 24/132/46 26/134/46 52/133/46
f 26/134/46 28/135/46 50/136/46
f 52/133/46 26/134/46 50/136/46
f 28/135/46 30/137/46 46/138/46
f 30/137/46 32/139/46 44/140/46
f 32/139/46 34/141/46 44/140/46
f 34/141/46 36/142/46 42/143/46
f 44/140/46 34/141/46 42/143/46
f 36/142/46 38/144/46 40/145/46
f 40/145/46 42/143/46 36/142/46
f 44/140/46 46/138/46 30/137/46
f 46/138/46 48/146/46 28/135/46
f 48/146/46 50/136/46 28/135/46
f 52/133/46 54/131/46 22/130/46
f 54/131/46 56/147/46 84/129/46
f 56/147/46 58/148/46 84/129/46
f 58/148/46 60/96/46 82/95/46
f 84/129/46 58/148/46 82/95/46
f 60/96/46 62/149/46 78/150/46
f 62/149/46 64/151/46 76/152/46
f 64/151/46 66/153/46 76/152/46
f 66/153/46 68/154/46 74/155/46
f 76/152/46 66/153/46 74/155/46
f 68/154/46 70/156/46 72/157/46
f 72/157/46 74/155/46 68/154/46
f 76/152/46 78/150/46 62/149/46
f 78/150/46 80/94/46 60/96/46
