# Blender v2.93.0 OBJ File: 'cocina.blend'
# www.blender.org
mtllib mesa_centro_puerta4.mtl
o Cubo.027_Cubo.025
v 0.784991 0.199319 -2.066160
v 0.774991 0.199319 -2.066160
v 0.784991 1.200868 -2.066160
v 0.774991 1.200868 -2.066160
v 0.784991 0.199319 -2.745810
v 0.774991 0.199319 -2.745810
v 0.784991 1.200869 -2.745810
v 0.774991 1.200869 -2.745810
v 0.784991 1.175727 -2.094710
v 0.784991 1.175727 -2.717260
v 0.784991 0.224461 -2.717260
v 0.784991 0.224461 -2.094710
v 0.747801 1.175727 -2.717260
v 0.747801 1.175727 -2.094710
v 0.747801 0.224461 -2.094710
v 0.747801 0.224461 -2.717260
v 0.747801 1.175727 -2.405985
v 0.747801 0.700094 -2.717260
v 0.747801 0.700093 -2.094710
v 0.747801 0.224461 -2.405985
v 0.774991 0.700094 -2.405985
v 0.754527 0.804379 -2.640256
v 0.719092 0.822271 -2.629772
v 0.754096 0.803950 -2.645188
v 0.718317 0.821498 -2.638650
v 0.753682 0.802677 -2.649931
v 0.717571 0.819207 -2.647188
v 0.753300 0.800610 -2.654302
v 0.716884 0.815487 -2.655056
v 0.752965 0.797829 -2.658134
v 0.716281 0.810481 -2.661952
v 0.752691 0.794440 -2.661278
v 0.715787 0.804380 -2.667612
v 0.752487 0.790574 -2.663614
v 0.715419 0.797421 -2.671818
v 0.752361 0.786379 -2.665053
v 0.715193 0.789869 -2.674407
v 0.752319 0.782016 -2.665539
v 0.715117 0.782016 -2.675282
v 0.752361 0.777653 -2.665053
v 0.715193 0.774162 -2.674407
v 0.752487 0.773457 -2.663614
v 0.715419 0.766610 -2.671818
v 0.752691 0.769591 -2.661278
v 0.715787 0.759651 -2.667612
v 0.752965 0.766202 -2.658134
v 0.716281 0.753550 -2.661952
v 0.753300 0.763421 -2.654302
v 0.716884 0.748544 -2.655056
v 0.753682 0.761354 -2.649931
v 0.717571 0.744824 -2.647188
v 0.754096 0.760081 -2.645188
v 0.718317 0.742533 -2.638650
v 0.754527 0.759652 -2.640256
v 0.719092 0.741760 -2.629772
v 0.754958 0.760081 -2.635324
v 0.719868 0.742533 -2.620893
v 0.755372 0.761354 -2.630580
v 0.720613 0.744824 -2.612356
v 0.755754 0.763421 -2.626209
v 0.721301 0.748544 -2.604488
v 0.756089 0.766202 -2.622378
v 0.721903 0.753550 -2.597592
v 0.756363 0.769591 -2.619234
v 0.722398 0.759651 -2.591932
v 0.756567 0.773457 -2.616898
v 0.722765 0.766610 -2.587726
v 0.756693 0.777653 -2.615459
v 0.722991 0.774162 -2.585136
v 0.756735 0.782016 -2.614973
v 0.723067 0.782016 -2.584262
v 0.756693 0.786379 -2.615459
v 0.722991 0.789869 -2.585136
v 0.756567 0.790574 -2.616898
v 0.722765 0.797421 -2.587726
v 0.756363 0.794440 -2.619234
v 0.722398 0.804380 -2.591932
v 0.756089 0.797829 -2.622378
v 0.721903 0.810481 -2.597592
v 0.755754 0.800610 -2.626209
v 0.721301 0.815487 -2.604488
v 0.755372 0.802677 -2.630580
v 0.720613 0.819207 -2.612356
v 0.754958 0.803950 -2.635324
v 0.719868 0.821498 -2.620893
vt 0.498488 0.333965
vt 0.512415 0.333965
vt 0.512415 0.347892
vt 0.498488 0.347892
vt 0.512415 0.361818
vt 0.498488 0.361818
vt 0.512415 0.375744
vt 0.498488 0.375744
vt 0.512415 0.389670
vt 0.498488 0.389670
vt 0.485147 0.362167
vt 0.497903 0.362167
vt 0.497903 0.375395
vt 0.485147 0.375395
vt 0.519378 0.368781
vt 0.525756 0.368781
vt 0.525756 0.375395
vt 0.519378 0.375395
vt 0.484562 0.361818
vt 0.484562 0.375744
vt 0.526341 0.361818
vt 0.525756 0.362167
vt 0.519378 0.362167
vt 0.513000 0.362167
vt 0.526341 0.375744
vt 0.513000 0.375395
vt 0.513000 0.368781
vt 0.865071 0.350449
vt 0.865071 0.378301
vt 0.863330 0.378301
vt 0.863330 0.350449
vt 0.861589 0.378301
vt 0.861589 0.350449
vt 0.859848 0.378301
vt 0.859848 0.350449
vt 0.858108 0.378301
vt 0.858108 0.350449
vt 0.856367 0.378301
vt 0.856367 0.350449
vt 0.854626 0.378301
vt 0.854626 0.350449
vt 0.852885 0.378301
vt 0.852885 0.350449
vt 0.851145 0.378301
vt 0.851145 0.350449
vt 0.849404 0.378301
vt 0.849404 0.350449
vt 0.847663 0.378301
vt 0.847663 0.350449
vt 0.845922 0.378301
vt 0.845922 0.350449
vt 0.844182 0.378301
vt 0.844182 0.350449
vt 0.842441 0.378301
vt 0.842441 0.350449
vt 0.840700 0.378301
vt 0.840700 0.350449
vt 0.838959 0.378301
vt 0.838959 0.350449
vt 0.837218 0.378301
vt 0.837218 0.350449
vt 0.835478 0.378301
vt 0.835478 0.350449
vt 0.833737 0.378301
vt 0.833737 0.350449
vt 0.831996 0.378301
vt 0.831996 0.350449
vt 0.830255 0.378301
vt 0.830255 0.350449
vt 0.828514 0.378301
vt 0.828514 0.350449
vt 0.826774 0.378301
vt 0.826774 0.350449
vt 0.825033 0.378301
vt 0.825033 0.350449
vt 0.823292 0.378301
vt 0.823292 0.350449
vt 0.821551 0.378301
vt 0.821551 0.350449
vt 0.819811 0.378301
vt 0.819811 0.350449
vt 0.818070 0.378301
vt 0.818070 0.350449
vt 0.816329 0.378301
vt 0.816329 0.350449
vt 0.814588 0.378301
vt 0.814588 0.350449
vt 0.812847 0.378301
vt 0.812847 0.350449
vt 0.825900 0.349635
vt 0.823292 0.349892
vt 0.820684 0.349635
vt 0.818176 0.348874
vt 0.815865 0.347639
vt 0.813839 0.345976
vt 0.812176 0.343950
vt 0.810941 0.341639
vt 0.810180 0.339131
vt 0.809923 0.336523
vt 0.810180 0.333914
vt 0.810941 0.331406
vt 0.812176 0.329095
vt 0.813839 0.327069
vt 0.815865 0.325406
vt 0.818176 0.324171
vt 0.820684 0.323410
vt 0.823292 0.323153
vt 0.825900 0.323410
vt 0.828408 0.324171
vt 0.830720 0.325406
vt 0.832746 0.327069
vt 0.834408 0.329095
vt 0.835644 0.331406
vt 0.836404 0.333914
vt 0.836661 0.336523
vt 0.836404 0.339131
vt 0.835644 0.341639
vt 0.834408 0.343950
vt 0.832746 0.345976
vt 0.830720 0.347639
vt 0.828408 0.348874
vt 0.811107 0.378301
vt 0.811107 0.350449
vt 0.809366 0.378301
vt 0.809366 0.350449
vt 0.519378 0.361261
vt 0.521986 0.361004
vt 0.524494 0.360243
vt 0.526805 0.359008
vt 0.528831 0.357345
vt 0.530494 0.355319
vt 0.531729 0.353008
vt 0.532490 0.350500
vt 0.532747 0.347892
vt 0.532490 0.345283
vt 0.531729 0.342775
vt 0.530494 0.340464
vt 0.528831 0.338438
vt 0.526805 0.336775
vt 0.524494 0.335540
vt 0.521986 0.334779
vt 0.519378 0.334522
vt 0.516770 0.334779
vt 0.514262 0.335540
vt 0.511950 0.336775
vt 0.509924 0.338438
vt 0.508262 0.340464
vt 0.507026 0.342775
vt 0.506265 0.345283
vt 0.506009 0.347892
vt 0.506265 0.350500
vt 0.507026 0.353008
vt 0.508262 0.355319
vt 0.509924 0.357345
vt 0.511950 0.359008
vt 0.514262 0.360243
vt 0.516770 0.361004
vn 0.0000 0.0000 -1.0000
vn 0.0000 -1.0000 -0.0000
vn 0.0000 -0.0000 1.0000
vn 0.0000 1.0000 0.0000
vn -1.0000 -0.0000 0.0000
vn 0.9986 -0.0285 0.0436
vn 0.6789 -0.7342 -0.0000
vn 0.7241 0.0000 -0.6897
vn 0.6789 0.7342 0.0000
vn 0.7241 -0.0000 0.6897
vn 0.9986 -0.0285 -0.0436
vn 0.9986 0.0285 -0.0436
vn 0.9986 0.0285 0.0436
vn -0.4204 -0.9000 0.1151
vn -0.3837 -0.8830 0.2704
vn -0.3498 -0.8348 0.4252
vn -0.3196 -0.7533 0.5748
vn -0.2939 -0.6372 0.7125
vn -0.2735 -0.4868 0.8296
vn -0.2593 -0.3064 0.9159
vn -0.2520 -0.1047 0.9621
vn -0.2520 0.1047 0.9621
vn -0.2593 0.3063 0.9159
vn -0.2735 0.4868 0.8296
vn -0.2939 0.6372 0.7125
vn -0.3196 0.7533 0.5748
vn -0.3498 0.8347 0.4252
vn -0.3836 0.8830 0.2704
vn -0.4204 0.9000 0.1151
vn -0.4592 0.8876 -0.0372
vn -0.4990 0.8469 -0.1836
vn -0.5388 0.7788 -0.3212
vn -0.5768 0.6842 -0.4463
vn -0.6112 0.5644 -0.5549
vn -0.6398 0.4219 -0.6424
vn -0.6604 0.2612 -0.7040
vn -0.6713 0.0885 -0.7359
vn -0.6713 -0.0885 -0.7359
vn -0.6604 -0.2612 -0.7040
vn -0.6398 -0.4219 -0.6424
vn -0.6112 -0.5644 -0.5549
vn -0.5768 -0.6842 -0.4463
vn -0.5388 -0.7788 -0.3212
vn 0.9962 0.0000 -0.0870
vn -0.4990 -0.8469 -0.1836
vn -0.4592 -0.8876 -0.0372
vn -0.9962 0.0000 0.0870
usemtl Material.004
s off
f 1/1/1 2/2/1 4/3/1 3/4/1
f 3/4/2 4/3/2 8/5/2 7/6/2
f 7/6/3 8/5/3 6/7/3 5/8/3
f 5/8/4 6/7/4 2/9/4 1/10/4
f 9/11/5 10/12/5 11/13/5 12/14/5
f 21/15/6 19/16/6 15/17/6 20/18/6
f 3/19/5 7/6/5 10/12/5 9/11/5
f 7/6/5 5/8/5 11/13/5 10/12/5
f 5/8/5 1/20/5 12/14/5 11/13/5
f 1/20/5 3/19/5 9/11/5 12/14/5
f 8/5/7 4/21/7 14/22/7 17/23/7 13/24/7
f 4/21/8 2/25/8 15/17/8 19/16/8 14/22/8
f 2/25/9 6/7/9 16/26/9 20/18/9 15/17/9
f 6/7/10 8/5/10 13/24/10 18/27/10 16/26/10
f 18/27/11 21/15/11 20/18/11 16/26/11
f 13/24/12 17/23/12 21/15/12 18/27/12
f 17/23/13 14/22/13 19/16/13 21/15/13
f 22/28/14 23/29/14 25/30/14 24/31/14
f 24/31/15 25/30/15 27/32/15 26/33/15
f 26/33/16 27/32/16 29/34/16 28/35/16
f 28/35/17 29/34/17 31/36/17 30/37/17
f 30/37/18 31/36/18 33/38/18 32/39/18
f 32/39/19 33/38/19 35/40/19 34/41/19
f 34/41/20 35/40/20 37/42/20 36/43/20
f 36/43/21 37/42/21 39/44/21 38/45/21
f 38/45/22 39/44/22 41/46/22 40/47/22
f 40/47/23 41/46/23 43/48/23 42/49/23
f 42/49/24 43/48/24 45/50/24 44/51/24
f 44/51/25 45/50/25 47/52/25 46/53/25
f 46/53/26 47/52/26 49/54/26 48/55/26
f 48/55/27 49/54/27 51/56/27 50/57/27
f 50/57/28 51/56/28 53/58/28 52/59/28
f 52/59/29 53/58/29 55/60/29 54/61/29
f 54/61/30 55/60/30 57/62/30 56/63/30
f 56/63/31 57/62/31 59/64/31 58/65/31
f 58/65/32 59/64/32 61/66/32 60/67/32
f 60/67/33 61/66/33 63/68/33 62/69/33
f 62/69/34 63/68/34 65/70/34 64/71/34
f 64/71/35 65/70/35 67/72/35 66/73/35
f 66/73/36 67/72/36 69/74/36 68/75/36
f 68/75/37 69/74/37 71/76/37 70/77/37
f 70/77/38 71/76/38 73/78/38 72/79/38
f 72/79/39 73/78/39 75/80/39 74/81/39
f 74/81/40 75/80/40 77/82/40 76/83/40
f 76/83/41 77/82/41 79/84/41 78/85/41
f 78/85/42 79/84/42 81/86/42 80/87/42
f 80/87/43 81/86/43 83/88/43 82/89/43
f 25/90/44 23/91/44 85/92/44 83/93/44 81/94/44 79/95/44 77/96/44 75/97/44 73/98/44 71/99/44 69/100/44 67/101/44 65/102/44 63/103/44 61/104/44 59/105/44 57/106/44 55/107/44 53/108/44 51/109/44 49/110/44 47/111/44 45/112/44 43/113/44 41/114/44 39/115/44 37/116/44 35/117/44 33/118/44 31/119/44 29/120/44 27/121/44
f 82/89/45 83/88/45 85/122/45 84/123/45
f 84/123/46 85/122/46 23/124/46 22/125/46
f 22/126/47 24/127/47 26/128/47 28/129/47 30/130/47 32/131/47 34/132/47 36/133/47 38/134/47 40/135/47 42/136/47 44/137/47 46/138/47 48/139/47 50/140/47 52/141/47 54/142/47 56/143/47 58/144/47 60/145/47 62/146/47 64/147/47 66/148/47 68/149/47 70/150/47 72/151/47 74/152/47 76/153/47 78/154/47 80/155/47 82/156/47 84/157/47
