# Blender v2.93.0 OBJ File: 'cocina.blend'
# www.blender.org
mtllib mesa_centro_puerta2.mtl
o Cubo.026_Cubo.007
v 0.784991 0.188342 -4.201458
v 0.774991 0.188342 -4.201458
v 0.784991 1.218892 -4.201458
v 0.774991 1.218892 -4.201458
v 0.784991 0.188342 -3.539076
v 0.774991 0.188342 -3.539076
v 0.784991 1.218892 -3.539076
v 0.774991 1.218892 -3.539076
v 0.784991 1.193022 -4.173633
v 0.784991 1.193022 -3.566901
v 0.784991 0.214212 -3.566901
v 0.784991 0.214212 -4.173633
v 0.747801 1.193022 -3.566901
v 0.747801 1.193022 -4.173633
v 0.747801 0.214212 -4.173633
v 0.747801 0.214212 -3.566901
v 0.747801 1.193022 -3.870267
v 0.747801 0.703617 -3.566901
v 0.747801 0.703617 -4.173633
v 0.747801 0.214212 -3.870267
v 0.774991 0.703617 -3.870267
v 0.754527 0.810923 -3.641948
v 0.719092 0.829333 -3.652166
v 0.754096 0.810481 -3.637141
v 0.718317 0.828537 -3.643513
v 0.753682 0.809171 -3.632519
v 0.717571 0.826180 -3.635192
v 0.753300 0.807045 -3.628259
v 0.716884 0.822352 -3.627524
v 0.752965 0.804183 -3.624525
v 0.716281 0.817201 -3.620803
v 0.752691 0.800696 -3.621460
v 0.715787 0.810924 -3.615287
v 0.752487 0.796717 -3.619184
v 0.715419 0.803763 -3.611188
v 0.752361 0.792401 -3.617781
v 0.715193 0.795992 -3.608665
v 0.752319 0.787911 -3.617308
v 0.715117 0.787911 -3.607812
v 0.752361 0.783422 -3.617781
v 0.715193 0.779830 -3.608665
v 0.752487 0.779105 -3.619184
v 0.715419 0.772060 -3.611188
v 0.752691 0.775127 -3.621460
v 0.715787 0.764899 -3.615287
v 0.752965 0.771640 -3.624525
v 0.716281 0.758622 -3.620803
v 0.753300 0.768778 -3.628259
v 0.716884 0.753471 -3.627524
v 0.753682 0.766652 -3.632519
v 0.717571 0.749643 -3.635192
v 0.754096 0.765342 -3.637141
v 0.718317 0.747286 -3.643513
v 0.754527 0.764900 -3.641948
v 0.719092 0.746490 -3.652166
v 0.754958 0.765342 -3.646755
v 0.719868 0.747286 -3.660819
v 0.755372 0.766652 -3.651378
v 0.720613 0.749643 -3.669139
v 0.755754 0.768778 -3.655638
v 0.721301 0.753471 -3.676807
v 0.756089 0.771640 -3.659372
v 0.721903 0.758622 -3.683528
v 0.756363 0.775127 -3.662436
v 0.722398 0.764899 -3.689044
v 0.756567 0.779105 -3.664713
v 0.722765 0.772060 -3.693143
v 0.756693 0.783422 -3.666115
v 0.722991 0.779830 -3.695667
v 0.756735 0.787911 -3.666589
v 0.723068 0.787911 -3.696519
v 0.756693 0.792401 -3.666115
v 0.722991 0.795992 -3.695667
v 0.756567 0.796717 -3.664713
v 0.722765 0.803763 -3.693143
v 0.756363 0.800696 -3.662436
v 0.722398 0.810924 -3.689044
v 0.756089 0.804183 -3.659372
v 0.721903 0.817201 -3.683528
v 0.755754 0.807045 -3.655638
v 0.721301 0.822352 -3.676807
v 0.755372 0.809171 -3.651378
v 0.720613 0.826180 -3.669139
v 0.754958 0.810481 -3.646755
v 0.719868 0.828537 -3.660819
vt 0.500888 0.325430
vt 0.514986 0.325430
vt 0.514986 0.339527
vt 0.500888 0.339527
vt 0.514986 0.353624
vt 0.500888 0.353624
vt 0.514986 0.367721
vt 0.500888 0.367721
vt 0.514986 0.381818
vt 0.500888 0.381818
vt 0.487384 0.353978
vt 0.500296 0.353978
vt 0.500296 0.367367
vt 0.487384 0.367367
vt 0.522034 0.360672
vt 0.528490 0.360672
vt 0.528490 0.367367
vt 0.522034 0.367367
vt 0.486791 0.353624
vt 0.486791 0.367721
vt 0.529083 0.353624
vt 0.528490 0.353978
vt 0.522034 0.353978
vt 0.515578 0.353978
vt 0.529083 0.367721
vt 0.515578 0.367367
vt 0.515578 0.360672
vt 0.853611 0.347939
vt 0.853611 0.376133
vt 0.851849 0.376133
vt 0.851849 0.347939
vt 0.850087 0.376133
vt 0.850087 0.347939
vt 0.848325 0.376133
vt 0.848325 0.347939
vt 0.846563 0.376133
vt 0.846563 0.347939
vt 0.844801 0.376133
vt 0.844801 0.347939
vt 0.843039 0.376133
vt 0.843039 0.347939
vt 0.841276 0.376133
vt 0.841276 0.347939
vt 0.839514 0.376133
vt 0.839514 0.347939
vt 0.837752 0.376133
vt 0.837752 0.347939
vt 0.835990 0.376133
vt 0.835990 0.347939
vt 0.834228 0.376133
vt 0.834228 0.347939
vt 0.832466 0.376133
vt 0.832466 0.347939
vt 0.830704 0.376133
vt 0.830704 0.347939
vt 0.828942 0.376133
vt 0.828942 0.347939
vt 0.827179 0.376133
vt 0.827179 0.347939
vt 0.825417 0.376133
vt 0.825417 0.347939
vt 0.823655 0.376133
vt 0.823655 0.347939
vt 0.821893 0.376133
vt 0.821893 0.347939
vt 0.820131 0.376133
vt 0.820131 0.347939
vt 0.818369 0.376133
vt 0.818369 0.347939
vt 0.816607 0.376133
vt 0.816607 0.347939
vt 0.814844 0.376133
vt 0.814844 0.347939
vt 0.813082 0.376133
vt 0.813082 0.347939
vt 0.811320 0.376133
vt 0.811320 0.347939
vt 0.809558 0.376133
vt 0.809558 0.347939
vt 0.807796 0.376133
vt 0.807796 0.347939
vt 0.806034 0.376133
vt 0.806034 0.347939
vt 0.804272 0.376133
vt 0.804272 0.347939
vt 0.802509 0.376133
vt 0.802509 0.347939
vt 0.800747 0.376133
vt 0.800747 0.347939
vt 0.813960 0.347115
vt 0.811320 0.347375
vt 0.808680 0.347115
vt 0.806141 0.346345
vt 0.803801 0.345095
vt 0.801751 0.343412
vt 0.800068 0.341361
vt 0.798817 0.339021
vt 0.798047 0.336482
vt 0.797787 0.333842
vt 0.798047 0.331202
vt 0.798817 0.328663
vt 0.800068 0.326324
vt 0.801751 0.324273
vt 0.803801 0.322590
vt 0.806141 0.321339
vt 0.808680 0.320569
vt 0.811320 0.320309
vt 0.813960 0.320569
vt 0.816499 0.321339
vt 0.818839 0.322590
vt 0.820890 0.324273
vt 0.822573 0.326324
vt 0.823823 0.328663
vt 0.824593 0.331202
vt 0.824853 0.333842
vt 0.824593 0.336482
vt 0.823823 0.339021
vt 0.822573 0.341361
vt 0.820890 0.343412
vt 0.818839 0.345095
vt 0.816499 0.346345
vt 0.798985 0.376133
vt 0.798985 0.347939
vt 0.797223 0.376133
vt 0.797223 0.347939
vt 0.522034 0.353060
vt 0.524674 0.352800
vt 0.527213 0.352030
vt 0.529553 0.350779
vt 0.531604 0.349096
vt 0.533287 0.347045
vt 0.534537 0.344706
vt 0.535307 0.342167
vt 0.535567 0.339527
vt 0.535307 0.336886
vt 0.534537 0.334348
vt 0.533287 0.332008
vt 0.531604 0.329957
vt 0.529553 0.328274
vt 0.527213 0.327024
vt 0.524674 0.326254
vt 0.522034 0.325993
vt 0.519394 0.326254
vt 0.516855 0.327024
vt 0.514515 0.328274
vt 0.512465 0.329957
vt 0.510782 0.332008
vt 0.509531 0.334348
vt 0.508761 0.336886
vt 0.508501 0.339527
vt 0.508761 0.342167
vt 0.509531 0.344706
vt 0.510782 0.347045
vt 0.512465 0.349096
vt 0.514515 0.350779
vt 0.516855 0.352030
vt 0.519394 0.352800
vn 0.0000 0.0000 -1.0000
vn 0.0000 1.0000 0.0000
vn 0.0000 0.0000 1.0000
vn 0.0000 -1.0000 0.0000
vn 1.0000 0.0000 0.0000
vn -0.9986 0.0277 0.0448
vn -0.6893 0.7245 -0.0000
vn -0.7152 0.0000 -0.6989
vn -0.6893 -0.7245 -0.0000
vn -0.7152 -0.0000 0.6989
vn -0.9986 0.0277 -0.0448
vn -0.9986 -0.0277 -0.0448
vn -0.9986 -0.0277 0.0448
vn 0.4300 0.8947 0.1208
vn 0.3914 0.8756 0.2831
vn 0.3550 0.8233 0.4428
vn 0.3219 0.7373 0.5939
vn 0.2933 0.6180 0.7295
vn 0.2704 0.4677 0.8415
vn 0.2544 0.2921 0.9220
vn 0.2461 0.0994 0.9641
vn 0.2461 -0.0994 0.9641
vn 0.2544 -0.2921 0.9220
vn 0.2704 -0.4677 0.8415
vn 0.2933 -0.6179 0.7295
vn 0.3219 -0.7373 0.5939
vn 0.3550 -0.8233 0.4428
vn 0.3914 -0.8756 0.2831
vn 0.4300 -0.8947 0.1208
vn 0.4695 -0.8821 -0.0391
vn 0.5088 -0.8392 -0.1921
vn 0.5465 -0.7678 -0.3343
vn 0.5813 -0.6701 -0.4615
vn 0.6116 -0.5489 -0.5698
vn 0.6360 -0.4076 -0.6552
vn 0.6532 -0.2511 -0.7144
vn 0.6620 -0.0848 -0.7447
vn 0.6620 0.0848 -0.7447
vn 0.6532 0.2511 -0.7144
vn 0.6360 0.4076 -0.6552
vn 0.6116 0.5489 -0.5698
vn 0.5813 0.6701 -0.4615
vn 0.5465 0.7678 -0.3343
vn -0.9960 -0.0000 -0.0893
vn 0.5088 0.8392 -0.1921
vn 0.4695 0.8820 -0.0391
vn 0.9960 0.0000 0.0893
usemtl Material.004
s off
f 1/1/1 2/2/1 4/3/1 3/4/1
f 3/4/2 4/3/2 8/5/2 7/6/2
f 7/6/3 8/5/3 6/7/3 5/8/3
f 5/8/4 6/7/4 2/9/4 1/10/4
f 9/11/5 10/12/5 11/13/5 12/14/5
f 21/15/6 19/16/6 15/17/6 20/18/6
f 3/19/5 7/6/5 10/12/5 9/11/5
f 7/6/5 5/8/5 11/13/5 10/12/5
f 5/8/5 1/20/5 12/14/5 11/13/5
f 1/20/5 3/19/5 9/11/5 12/14/5
f 8/5/7 4/21/7 14/22/7 17/23/7 13/24/7
f 4/21/8 2/25/8 15/17/8 19/16/8 14/22/8
f 2/25/9 6/7/9 16/26/9 20/18/9 15/17/9
f 6/7/10 8/5/10 13/24/10 18/27/10 16/26/10
f 18/27/11 21/15/11 20/18/11 16/26/11
f 13/24/12 17/23/12 21/15/12 18/27/12
f 17/23/13 14/22/13 19/16/13 21/15/13
f 22/28/14 23/29/14 25/30/14 24/31/14
f 24/31/15 25/30/15 27/32/15 26/33/15
f 26/33/16 27/32/16 29/34/16 28/35/16
f 28/35/17 29/34/17 31/36/17 30/37/17
f 30/37/18 31/36/18 33/38/18 32/39/18
f 32/39/19 33/38/19 35/40/19 34/41/19
f 34/41/20 35/40/20 37/42/20 36/43/20
f 36/43/21 37/42/21 39/44/21 38/45/21
f 38/45/22 39/44/22 41/46/22 40/47/22
f 40/47/23 41/46/23 43/48/23 42/49/23
f 42/49/24 43/48/24 45/50/24 44/51/24
f 44/51/25 45/50/25 47/52/25 46/53/25
f 46/53/26 47/52/26 49/54/26 48/55/26
f 48/55/27 49/54/27 51/56/27 50/57/27
f 50/57/28 51/56/28 53/58/28 52/59/28
f 52/59/29 53/58/29 55/60/29 54/61/29
f 54/61/30 55/60/30 57/62/30 56/63/30
f 56/63/31 57/62/31 59/64/31 58/65/31
f 58/65/32 59/64/32 61/66/32 60/67/32
f 60/67/33 61/66/33 63/68/33 62/69/33
f 62/69/34 63/68/34 65/70/34 64/71/34
f 64/71/35 65/70/35 67/72/35 66/73/35
f 66/73/36 67/72/36 69/74/36 68/75/36
f 68/75/37 69/74/37 71/76/37 70/77/37
f 70/77/38 71/76/38 73/78/38 72/79/38
f 72/79/39 73/78/39 75/80/39 74/81/39
f 74/81/40 75/80/40 77/82/40 76/83/40
f 76/83/41 77/82/41 79/84/41 78/85/41
f 78/85/42 79/84/42 81/86/42 80/87/42
f 80/87/43 81/86/43 83/88/43 82/89/43
f 25/90/44 23/91/44 85/92/44 83/93/44 81/94/44 79/95/44 77/96/44 75/97/44 73/98/44 71/99/44 69/100/44 67/101/44 65/102/44 63/103/44 61/104/44 59/105/44 57/106/44 55/107/44 53/108/44 51/109/44 49/110/44 47/111/44 45/112/44 43/113/44 41/114/44 39/115/44 37/116/44 35/117/44 33/118/44 31/119/44 29/120/44 27/121/44
f 82/89/45 83/88/45 85/122/45 84/123/45
f 84/123/46 85/122/46 23/124/46 22/125/46
f 22/126/47 24/127/47 26/128/47 28/129/47 30/130/47 32/131/47 34/132/47 36/133/47 38/134/47 40/135/47 42/136/47 44/137/47 46/138/47 48/139/47 50/140/47 52/141/47 54/142/47 56/143/47 58/144/47 60/145/47 62/146/47 64/147/47 66/148/47 68/149/47 70/150/47 72/151/47 74/152/47 76/153/47 78/154/47 80/155/47 82/156/47 84/157/47
