# Blender v2.93.0 OBJ File: 'cocina.blend'
# www.blender.org
mtllib olla_2.mtl
o Cilindro.008_Cilindro.006
v 1.218396 1.574846 -3.025239
v 1.210069 1.874846 -3.020518
v 1.236285 1.574846 -2.984922
v 1.227197 1.874846 -2.981916
v 1.245964 1.574846 -2.941890
v 1.236464 1.874846 -2.940714
v 1.247062 1.574846 -2.897795
v 1.237516 1.874846 -2.898496
v 1.239537 1.574846 -2.854334
v 1.230311 1.874846 -2.856884
v 1.223678 1.574846 -2.813176
v 1.215126 1.874846 -2.817477
v 1.200094 1.574846 -2.775903
v 1.192546 1.874846 -2.781790
v 1.169691 1.574846 -2.743948
v 1.163437 1.874846 -2.751194
v 1.133639 1.574846 -2.718537
v 1.128918 1.874846 -2.726864
v 1.093322 1.574846 -2.700648
v 1.090316 1.874846 -2.709736
v 1.050289 1.574846 -2.690969
v 1.049114 1.874846 -2.700469
v 1.006195 1.574846 -2.689870
v 1.006896 1.874846 -2.699417
v 0.962734 1.574846 -2.697395
v 0.965284 1.874846 -2.706622
v 0.921576 1.574846 -2.713255
v 0.925877 1.874846 -2.721806
v 0.884303 1.574846 -2.736839
v 0.890189 1.874846 -2.744387
v 0.852347 1.574846 -2.767241
v 0.859593 1.874846 -2.773496
v 0.826937 1.574846 -2.803294
v 0.835264 1.874846 -2.808015
v 0.809048 1.574846 -2.843611
v 0.818136 1.874846 -2.846617
v 0.799368 1.574846 -2.886644
v 0.808868 1.874846 -2.887819
v 0.798270 1.574846 -2.930738
v 0.807816 1.874846 -2.930037
v 0.805795 1.574846 -2.974199
v 0.815021 1.874846 -2.971649
v 0.821654 1.574846 -3.015357
v 0.830206 1.874846 -3.011056
v 0.845238 1.574846 -3.052630
v 0.852787 1.874846 -3.046743
v 0.875641 1.574846 -3.084586
v 0.881896 1.874846 -3.077340
v 0.911694 1.574846 -3.109996
v 0.916415 1.874846 -3.101669
v 0.952011 1.574846 -3.127885
v 0.955017 1.874846 -3.118797
v 0.995043 1.574846 -3.137565
v 0.996219 1.874846 -3.128065
v 1.039137 1.574846 -3.138663
v 1.038437 1.874846 -3.129116
v 1.082598 1.574846 -3.131138
v 1.080049 1.874846 -3.121912
v 1.123756 1.574846 -3.115278
v 1.119456 1.874846 -3.106727
v 1.161029 1.574846 -3.091694
v 1.155143 1.874846 -3.084146
v 1.192985 1.574846 -3.061292
v 1.185739 1.874846 -3.055037
v 1.236285 1.874846 -2.984922
v 1.218396 1.874846 -3.025239
v 1.245964 1.874846 -2.941890
v 1.247062 1.874846 -2.897795
v 1.239537 1.874846 -2.854334
v 1.223678 1.874846 -2.813176
v 1.200094 1.874846 -2.775903
v 1.169691 1.874846 -2.743948
v 1.133639 1.874846 -2.718537
v 1.093322 1.874846 -2.700648
v 1.050289 1.874846 -2.690969
v 1.006195 1.874846 -2.689870
v 0.962734 1.874846 -2.697395
v 0.921576 1.874846 -2.713255
v 0.884303 1.874846 -2.736839
v 0.852347 1.874846 -2.767241
v 0.826937 1.874846 -2.803294
v 0.809048 1.874846 -2.843611
v 0.799368 1.874846 -2.886644
v 0.798270 1.874846 -2.930738
v 0.805795 1.874846 -2.974199
v 0.821654 1.874846 -3.015357
v 0.845238 1.874846 -3.052630
v 0.875641 1.874846 -3.084586
v 0.911694 1.874846 -3.109996
v 0.952011 1.874846 -3.127885
v 0.995043 1.874846 -3.137565
v 1.039137 1.874846 -3.138663
v 1.082598 1.874846 -3.131138
v 1.123756 1.874846 -3.115278
v 1.161029 1.874846 -3.091694
v 1.192985 1.874846 -3.061292
v 1.227197 1.598219 -2.981916
v 1.210069 1.598219 -3.020518
v 1.236464 1.598219 -2.940714
v 1.237516 1.598219 -2.898496
v 1.230311 1.598219 -2.856884
v 1.215126 1.598219 -2.817477
v 1.192546 1.598219 -2.781790
v 1.163437 1.598219 -2.751194
v 1.128918 1.598219 -2.726864
v 1.090316 1.598219 -2.709736
v 1.049114 1.598219 -2.700469
v 1.006896 1.598219 -2.699417
v 0.965284 1.598219 -2.706622
v 0.925877 1.598219 -2.721806
v 0.890189 1.598219 -2.744387
v 0.859593 1.598219 -2.773496
v 0.835264 1.598219 -2.808015
v 0.818136 1.598219 -2.846617
v 0.808868 1.598219 -2.887819
v 0.807816 1.598219 -2.930037
v 0.815021 1.598219 -2.971649
v 0.830206 1.598219 -3.011056
v 0.852787 1.598219 -3.046743
v 0.881896 1.598219 -3.077340
v 0.916415 1.598219 -3.101669
v 0.955017 1.598219 -3.118797
v 0.996219 1.598219 -3.128065
v 1.038437 1.598219 -3.129116
v 1.080049 1.598219 -3.121912
v 1.119456 1.598219 -3.106727
v 1.155143 1.598219 -3.084146
v 1.185739 1.598219 -3.055037
v 1.218396 1.867091 -3.025239
v 1.236285 1.867091 -2.984922
v 1.245964 1.867091 -2.941890
v 1.247062 1.867091 -2.897795
v 1.239537 1.867091 -2.854334
v 1.223678 1.867091 -2.813176
v 1.200094 1.867091 -2.775903
v 1.169691 1.867091 -2.743948
v 1.133639 1.867091 -2.718537
v 1.093322 1.867091 -2.700648
v 1.050289 1.867091 -2.690969
v 1.006195 1.867091 -2.689870
v 0.962734 1.867091 -2.697395
v 0.921576 1.867091 -2.713255
v 0.884303 1.867091 -2.736839
v 0.852347 1.867091 -2.767241
v 0.826937 1.867091 -2.803294
v 0.809048 1.867091 -2.843611
v 0.799368 1.867091 -2.886644
v 0.798270 1.867091 -2.930738
v 0.805795 1.867091 -2.974199
v 0.821654 1.867091 -3.015357
v 0.845238 1.867091 -3.052630
v 0.875641 1.867091 -3.084586
v 0.911694 1.867091 -3.109996
v 0.952011 1.867091 -3.127885
v 0.995043 1.867091 -3.137565
v 1.039137 1.867091 -3.138663
v 1.082598 1.867091 -3.131138
v 1.123756 1.867091 -3.115278
v 1.161029 1.867091 -3.091694
v 1.192985 1.867091 -3.061292
v 1.236285 1.852758 -2.984922
v 1.245964 1.852758 -2.941890
v 1.247062 1.852758 -2.897795
v 1.239537 1.852758 -2.854334
v 1.223678 1.852758 -2.813176
v 1.200094 1.852758 -2.775903
v 1.169691 1.852758 -2.743948
v 1.133639 1.852758 -2.718537
v 1.093322 1.852758 -2.700648
v 1.050289 1.852758 -2.690969
v 1.006195 1.852758 -2.689870
v 0.962734 1.852758 -2.697395
v 0.921576 1.852758 -2.713255
v 0.884303 1.852758 -2.736839
v 0.852347 1.852758 -2.767241
v 0.826937 1.852758 -2.803294
v 0.809048 1.852758 -2.843611
v 0.799368 1.852758 -2.886644
v 0.798270 1.852758 -2.930738
v 0.805795 1.852758 -2.974199
v 0.821654 1.852758 -3.015357
v 0.845238 1.852758 -3.052630
v 0.875641 1.852758 -3.084586
v 0.911694 1.852758 -3.109996
v 0.952011 1.852758 -3.127885
v 0.995043 1.852758 -3.137565
v 1.039137 1.852758 -3.138663
v 1.082598 1.852758 -3.131138
v 1.123756 1.852758 -3.115278
v 1.161029 1.852758 -3.091694
v 1.192985 1.852758 -3.061292
v 1.218396 1.852758 -3.025239
v 1.226254 1.867091 -2.699838
v 1.190202 1.867091 -2.674428
v 1.296100 1.867091 -2.810225
v 1.280241 1.867091 -2.769067
v 1.296100 1.852758 -2.810225
v 1.280241 1.852758 -2.769067
v 1.226254 1.852758 -2.699838
v 1.190202 1.852758 -2.674428
v 1.223678 1.859924 -2.813176
v 1.251960 1.852758 -2.791122
v 1.251960 1.867091 -2.791122
v 1.251960 1.859924 -2.791122
v 1.169691 1.867091 -2.743948
v 1.169691 1.852758 -2.743948
v 1.226254 1.867091 -2.699838
v 1.226254 1.852758 -2.699838
v 1.169691 1.859924 -2.743948
v 1.197973 1.867091 -2.721893
v 1.197973 1.852758 -2.721893
v 1.197973 1.859924 -2.721893
v 0.820138 1.867091 -3.127868
v 0.856191 1.867091 -3.153279
v 0.750292 1.867091 -3.017482
v 0.766151 1.867091 -3.058640
v 0.750292 1.852758 -3.017482
v 0.766151 1.852758 -3.058640
v 0.820138 1.852758 -3.127868
v 0.856191 1.852758 -3.153279
v 0.875641 1.859924 -3.084586
v 0.847889 1.852758 -3.106227
v 0.847889 1.867091 -3.106227
v 0.847889 1.859924 -3.106227
v 0.821654 1.859924 -3.015357
v 0.793903 1.852758 -3.036998
v 0.793903 1.867091 -3.036998
v 0.793903 1.859924 -3.036998
vt 0.505242 0.330209
vt 0.505242 0.329954
vt 0.505859 0.329954
vt 0.505859 0.330209
vt 0.506476 0.329954
vt 0.506476 0.330209
vt 0.507094 0.329954
vt 0.507094 0.330209
vt 0.507711 0.329954
vt 0.507711 0.330209
vt 0.508328 0.329954
vt 0.508328 0.330209
vt 0.508946 0.329954
vt 0.508946 0.330209
vt 0.509563 0.329954
vt 0.509563 0.330209
vt 0.510180 0.329954
vt 0.510180 0.330209
vt 0.510798 0.329954
vt 0.510798 0.330209
vt 0.511415 0.329954
vt 0.511415 0.330209
vt 0.512032 0.329954
vt 0.512032 0.330209
vt 0.512650 0.329954
vt 0.512650 0.330209
vt 0.513267 0.329954
vt 0.513267 0.330209
vt 0.513884 0.329954
vt 0.513884 0.330209
vt 0.514502 0.329954
vt 0.514502 0.330209
vt 0.515119 0.329954
vt 0.515119 0.330209
vt 0.515736 0.329954
vt 0.515736 0.330209
vt 0.516354 0.329954
vt 0.516354 0.330209
vt 0.516971 0.329954
vt 0.516971 0.330209
vt 0.517588 0.329954
vt 0.517588 0.330209
vt 0.518206 0.329954
vt 0.518206 0.330209
vt 0.518823 0.329954
vt 0.518823 0.330209
vt 0.519440 0.329954
vt 0.519440 0.330209
vt 0.520058 0.329954
vt 0.520058 0.330209
vt 0.520675 0.329954
vt 0.520675 0.330209
vt 0.521292 0.329954
vt 0.521292 0.330209
vt 0.521910 0.329954
vt 0.521910 0.330209
vt 0.522527 0.329954
vt 0.522527 0.330209
vt 0.523144 0.329954
vt 0.523144 0.330209
vt 0.523762 0.329954
vt 0.523762 0.330209
vt 0.522580 0.340995
vt 0.523268 0.341560
vt 0.523268 0.341560
vt 0.522580 0.340995
vt 0.524379 0.329954
vt 0.524379 0.330209
vt 0.524996 0.329954
vt 0.524996 0.330209
vt 0.510180 0.340029
vt 0.509255 0.340120
vt 0.508366 0.340389
vt 0.507546 0.340828
vt 0.506828 0.341417
vt 0.506238 0.342136
vt 0.505800 0.342955
vt 0.505530 0.343845
vt 0.505439 0.344770
vt 0.505530 0.345695
vt 0.505800 0.346584
vt 0.506238 0.347404
vt 0.506828 0.348122
vt 0.507546 0.348712
vt 0.508366 0.349150
vt 0.509255 0.349420
vt 0.510180 0.349511
vt 0.511105 0.349420
vt 0.511995 0.349150
vt 0.512814 0.348712
vt 0.513533 0.348122
vt 0.514122 0.347404
vt 0.514561 0.346584
vt 0.514830 0.345695
vt 0.514921 0.344770
vt 0.514830 0.343845
vt 0.514561 0.342955
vt 0.514122 0.342136
vt 0.513533 0.341417
vt 0.512814 0.340828
vt 0.511995 0.340389
vt 0.511105 0.340120
vt 0.520058 0.340230
vt 0.519172 0.340317
vt 0.519133 0.340120
vt 0.520058 0.340029
vt 0.518321 0.340576
vt 0.518243 0.340389
vt 0.517536 0.340995
vt 0.517424 0.340828
vt 0.516848 0.341560
vt 0.516705 0.341417
vt 0.516283 0.342248
vt 0.516116 0.342136
vt 0.515864 0.343032
vt 0.515678 0.342955
vt 0.515606 0.343884
vt 0.515408 0.343845
vt 0.515518 0.344770
vt 0.515317 0.344770
vt 0.515606 0.345655
vt 0.515408 0.345695
vt 0.515864 0.346507
vt 0.515678 0.346584
vt 0.516283 0.347292
vt 0.516116 0.347404
vt 0.516848 0.347979
vt 0.516705 0.348122
vt 0.517536 0.348544
vt 0.517424 0.348712
vt 0.518321 0.348964
vt 0.518243 0.349150
vt 0.519172 0.349222
vt 0.519133 0.349420
vt 0.520058 0.349309
vt 0.520058 0.349511
vt 0.520943 0.349222
vt 0.520983 0.349420
vt 0.521795 0.348964
vt 0.521872 0.349150
vt 0.522580 0.348544
vt 0.522692 0.348712
vt 0.523268 0.347979
vt 0.523410 0.348122
vt 0.523832 0.347292
vt 0.524000 0.347404
vt 0.524252 0.346507
vt 0.524438 0.346584
vt 0.524510 0.345655
vt 0.524708 0.345695
vt 0.524597 0.344770
vt 0.524799 0.344770
vt 0.524510 0.343884
vt 0.524708 0.343845
vt 0.524252 0.343032
vt 0.524438 0.342955
vt 0.523832 0.342248
vt 0.524000 0.342136
vt 0.523410 0.341417
vt 0.522692 0.340828
vt 0.521795 0.340576
vt 0.521872 0.340389
vt 0.520943 0.340317
vt 0.520983 0.340120
vt 0.519172 0.340317
vt 0.520058 0.340230
vt 0.520943 0.340317
vt 0.521795 0.340576
vt 0.523832 0.342248
vt 0.524252 0.343032
vt 0.524510 0.343884
vt 0.524597 0.344770
vt 0.524510 0.345655
vt 0.524252 0.346507
vt 0.523832 0.347292
vt 0.523268 0.347979
vt 0.522580 0.348544
vt 0.521795 0.348964
vt 0.520943 0.349222
vt 0.520058 0.349309
vt 0.519172 0.349222
vt 0.518321 0.348964
vt 0.517536 0.348544
vt 0.516848 0.347979
vt 0.516283 0.347292
vt 0.515864 0.346507
vt 0.515606 0.345655
vt 0.515518 0.344770
vt 0.515606 0.343884
vt 0.515864 0.343032
vt 0.516283 0.342248
vt 0.516848 0.341560
vt 0.517536 0.340995
vt 0.518321 0.340576
vt 0.524379 0.330681
vt 0.524996 0.330681
vt 0.523762 0.330681
vt 0.523144 0.330681
vt 0.522527 0.330681
vt 0.521910 0.330681
vt 0.521292 0.330681
vt 0.520675 0.330681
vt 0.520058 0.330681
vt 0.842496 0.358732
vt 0.842496 0.358732
vt 0.842496 0.358732
vt 0.842496 0.358732
vt 0.842496 0.358732
vt 0.842496 0.358732
vt 0.518823 0.330681
vt 0.519440 0.330445
vt 0.519440 0.330681
vt 0.518206 0.330681
vt 0.518206 0.330445
vt 0.837558 0.339705
vt 0.836940 0.339705
vt 0.836940 0.339705
vt 0.836940 0.339705
vt 0.837558 0.339705
vt 0.516971 0.330681
vt 0.517588 0.330681
vt 0.516354 0.330681
vt 0.515736 0.330681
vt 0.515119 0.330681
vt 0.514502 0.330681
vt 0.513884 0.330681
vt 0.513267 0.330681
vt 0.512650 0.330681
vt 0.512032 0.330681
vt 0.511415 0.330681
vt 0.510798 0.330681
vt 0.510180 0.330681
vt 0.820789 0.362264
vt 0.820171 0.362264
vt 0.820171 0.362264
vt 0.820789 0.362264
vt 0.820789 0.362264
vt 0.508946 0.330681
vt 0.509563 0.330681
vt 0.508328 0.330681
vt 0.508328 0.330445
vt 0.822641 0.361792
vt 0.822641 0.362264
vt 0.822641 0.362264
vt 0.822641 0.361792
vt 0.507094 0.330681
vt 0.507711 0.330681
vt 0.506476 0.330681
vt 0.505859 0.330681
vt 0.505242 0.330681
vt 0.505242 0.339831
vt 0.505859 0.339831
vt 0.506476 0.339831
vt 0.507094 0.339831
vt 0.507711 0.339831
vt 0.508328 0.339831
vt 0.508946 0.339831
vt 0.509563 0.339831
vt 0.510180 0.339831
vt 0.510798 0.339831
vt 0.511415 0.339831
vt 0.512032 0.339831
vt 0.512650 0.339831
vt 0.513267 0.339831
vt 0.513884 0.339831
vt 0.514502 0.339831
vt 0.515119 0.339831
vt 0.515736 0.339831
vt 0.516354 0.339831
vt 0.516971 0.339831
vt 0.517588 0.339831
vt 0.518206 0.339831
vt 0.518823 0.339831
vt 0.519440 0.339831
vt 0.520058 0.339831
vt 0.520675 0.339831
vt 0.521292 0.339831
vt 0.521910 0.339831
vt 0.522527 0.339831
vt 0.523144 0.339831
vt 0.523762 0.339831
vt 0.524379 0.339831
vt 0.524996 0.339831
vt 0.822023 0.362264
vt 0.822023 0.361792
vt 0.820171 0.361792
vt 0.820789 0.361792
vt 0.822023 0.361792
vt 0.820171 0.361792
vt 0.822023 0.362264
vt 0.509563 0.330209
vt 0.509563 0.330445
vt 0.509563 0.330681
vt 0.820789 0.361792
vt 0.820789 0.361792
vt 0.822023 0.361792
vt 0.822023 0.361792
vt 0.822023 0.362028
vt 0.822023 0.362264
vt 0.822023 0.362264
vt 0.820789 0.362028
vt 0.820789 0.362028
vt 0.822023 0.362264
vt 0.822023 0.361792
vt 0.822023 0.362028
vt 0.836940 0.339233
vt 0.837558 0.339233
vt 0.835088 0.339705
vt 0.835088 0.339233
vt 0.835706 0.339233
vt 0.835706 0.339705
vt 0.836940 0.339233
vt 0.837558 0.339233
vt 0.836940 0.339233
vt 0.835088 0.339233
vt 0.835706 0.339233
vt 0.835706 0.339233
vt 0.835706 0.339705
vt 0.835088 0.339705
vt 0.835706 0.339705
vt 0.787211 0.350984
vt 0.787211 0.350512
vt 0.787211 0.350512
vt 0.787211 0.350984
vt 0.835706 0.339469
vt 0.836940 0.339469
vt 0.836940 0.339469
vt 0.835706 0.339469
vn 0.9141 0.0000 -0.4056
vn 0.9756 0.0000 -0.2195
vn 0.9997 0.0000 -0.0249
vn 0.9853 0.0000 0.1706
vn 0.9331 0.0000 0.3596
vn 0.8450 0.0000 0.5347
vn 0.7245 0.0000 0.6893
vn 0.5761 0.0000 0.8174
vn 0.4056 0.0000 0.9141
vn 0.2195 0.0000 0.9756
vn 0.0249 0.0000 0.9997
vn -0.1706 0.0000 0.9853
vn -0.3596 0.0000 0.9331
vn -0.5347 0.0000 0.8450
vn -0.6893 0.0000 0.7245
vn -0.8174 0.0000 0.5761
vn -0.9141 0.0000 0.4056
vn -0.9756 0.0000 0.2195
vn -0.9997 0.0000 0.0249
vn -0.9853 0.0000 -0.1706
vn -0.9331 0.0000 -0.3596
vn -0.8450 0.0000 -0.5347
vn -0.7245 0.0000 -0.6893
vn -0.5761 0.0000 -0.8174
vn -0.4056 0.0000 -0.9141
vn -0.2195 0.0000 -0.9756
vn -0.0249 0.0000 -0.9997
vn 0.1706 0.0000 -0.9853
vn 0.3596 0.0000 -0.9331
vn 0.5347 0.0000 -0.8450
vn 0.6893 0.0000 -0.7245
vn 0.8174 0.0000 -0.5761
vn 0.0000 -1.0000 0.0000
vn 0.0000 1.0000 0.0000
vn -0.2194 0.0000 -0.9756
vn 0.2194 0.0000 0.9756
vn -0.7886 0.0000 -0.6149
vn -0.6149 0.0000 0.7886
vn 0.6149 0.0000 -0.7886
vn 1.0000 0.0000 0.0000
vn 0.0000 0.0000 1.0000
vn 0.0000 0.7071 -0.7071
vn 0.0000 -0.7071 -0.7071
vn -0.6150 0.0000 0.7886
vn 0.7886 0.0000 0.6149
vn 0.6150 0.0000 -0.7886
usemtl Material.004
s off
f 129/1/1 66/2/1 65/3/1 130/4/1
f 130/4/2 65/3/2 67/5/2 131/6/2
f 131/6/3 67/5/3 68/7/3 132/8/3
f 132/8/4 68/7/4 69/9/4 133/10/4
f 133/10/5 69/9/5 70/11/5 134/12/5
f 134/12/6 70/11/6 71/13/6 135/14/6
f 135/14/7 71/13/7 72/15/7 136/16/7
f 136/16/8 72/15/8 73/17/8 137/18/8
f 137/18/9 73/17/9 74/19/9 138/20/9
f 138/20/10 74/19/10 75/21/10 139/22/10
f 139/22/11 75/21/11 76/23/11 140/24/11
f 140/24/12 76/23/12 77/25/12 141/26/12
f 141/26/13 77/25/13 78/27/13 142/28/13
f 142/28/14 78/27/14 79/29/14 143/30/14
f 143/30/15 79/29/15 80/31/15 144/32/15
f 144/32/16 80/31/16 81/33/16 145/34/16
f 145/34/17 81/33/17 82/35/17 146/36/17
f 146/36/18 82/35/18 83/37/18 147/38/18
f 147/38/19 83/37/19 84/39/19 148/40/19
f 148/40/20 84/39/20 85/41/20 149/42/20
f 149/42/21 85/41/21 86/43/21 150/44/21
f 150/44/22 86/43/22 87/45/22 151/46/22
f 151/46/23 87/45/23 88/47/23 152/48/23
f 152/48/24 88/47/24 89/49/24 153/50/24
f 153/50/25 89/49/25 90/51/25 154/52/25
f 154/52/26 90/51/26 91/53/26 155/54/26
f 155/54/27 91/53/27 92/55/27 156/56/27
f 156/56/28 92/55/28 93/57/28 157/58/28
f 157/58/29 93/57/29 94/59/29 158/60/29
f 158/60/30 94/59/30 95/61/30 159/62/30
f 60/63/13 58/64/13 125/65/13 126/66/13
f 159/62/31 95/61/31 96/67/31 160/68/31
f 160/68/32 96/67/32 66/69/32 129/70/32
f 1/71/33 3/72/33 5/73/33 7/74/33 9/75/33 11/76/33 13/77/33 15/78/33 17/79/33 19/80/33 21/81/33 23/82/33 25/83/33 27/84/33 29/85/33 31/86/33 33/87/33 35/88/33 37/89/33 39/90/33 41/91/33 43/92/33 45/93/33 47/94/33 49/95/33 51/96/33 53/97/33 55/98/33 57/99/33 59/100/33 61/101/33 63/102/33
f 2/103/34 4/104/34 65/105/34 66/106/34
f 4/104/34 6/107/34 67/108/34 65/105/34
f 6/107/34 8/109/34 68/110/34 67/108/34
f 8/109/34 10/111/34 69/112/34 68/110/34
f 10/111/34 12/113/34 70/114/34 69/112/34
f 12/113/34 14/115/34 71/116/34 70/114/34
f 14/115/34 16/117/34 72/118/34 71/116/34
f 16/117/34 18/119/34 73/120/34 72/118/34
f 18/119/34 20/121/34 74/122/34 73/120/34
f 20/121/34 22/123/34 75/124/34 74/122/34
f 22/123/34 24/125/34 76/126/34 75/124/34
f 24/125/34 26/127/34 77/128/34 76/126/34
f 26/127/34 28/129/34 78/130/34 77/128/34
f 28/129/34 30/131/34 79/132/34 78/130/34
f 30/131/34 32/133/34 80/134/34 79/132/34
f 32/133/34 34/135/34 81/136/34 80/134/34
f 34/135/34 36/137/34 82/138/34 81/136/34
f 36/137/34 38/139/34 83/140/34 82/138/34
f 38/139/34 40/141/34 84/142/34 83/140/34
f 40/141/34 42/143/34 85/144/34 84/142/34
f 42/143/34 44/145/34 86/146/34 85/144/34
f 44/145/34 46/147/34 87/148/34 86/146/34
f 46/147/34 48/149/34 88/150/34 87/148/34
f 48/149/34 50/151/34 89/152/34 88/150/34
f 50/151/34 52/153/34 90/154/34 89/152/34
f 52/153/34 54/155/34 91/156/34 90/154/34
f 54/155/34 56/157/34 92/158/34 91/156/34
f 56/157/34 58/64/34 93/159/34 92/158/34
f 58/64/34 60/63/34 94/160/34 93/159/34
f 60/63/34 62/161/34 95/162/34 94/160/34
f 62/161/34 64/163/34 96/164/34 95/162/34
f 64/163/34 2/103/34 66/106/34 96/164/34
f 97/165/34 98/166/34 128/167/34 127/168/34 126/66/34 125/65/34 124/169/34 123/170/34 122/171/34 121/172/34 120/173/34 119/174/34 118/175/34 117/176/34 116/177/34 115/178/34 114/179/34 113/180/34 112/181/34 111/182/34 110/183/34 109/184/34 108/185/34 107/186/34 106/187/34 105/188/34 104/189/34 103/190/34 102/191/34 101/192/34 100/193/34 99/194/34
f 34/135/32 32/133/32 112/181/32 113/180/32
f 8/109/19 6/107/19 99/194/19 100/193/19
f 62/161/14 60/63/14 126/66/14 127/168/14
f 36/137/1 34/135/1 113/180/1 114/179/1
f 10/111/20 8/109/20 100/193/20 101/192/20
f 64/163/15 62/161/15 127/168/15 128/167/15
f 38/139/2 36/137/2 114/179/2 115/178/2
f 12/113/21 10/111/21 101/192/21 102/191/21
f 2/103/16 64/163/16 128/167/16 98/166/16
f 40/141/3 38/139/3 115/178/3 116/177/3
f 14/115/22 12/113/22 102/191/22 103/190/22
f 42/143/4 40/141/4 116/177/4 117/176/4
f 16/117/23 14/115/23 103/190/23 104/189/23
f 44/145/5 42/143/5 117/176/5 118/175/5
f 18/119/24 16/117/24 104/189/24 105/188/24
f 46/147/6 44/145/6 118/175/6 119/174/6
f 20/121/25 18/119/25 105/188/25 106/187/25
f 48/149/7 46/147/7 119/174/7 120/173/7
f 22/123/35 20/121/35 106/187/35 107/186/35
f 50/151/8 48/149/8 120/173/8 121/172/8
f 24/125/27 22/123/27 107/186/27 108/185/27
f 52/153/9 50/151/9 121/172/9 122/171/9
f 26/127/28 24/125/28 108/185/28 109/184/28
f 54/155/36 52/153/36 122/171/36 123/170/36
f 28/129/29 26/127/29 109/184/29 110/183/29
f 56/157/11 54/155/11 123/170/11 124/169/11
f 30/131/30 28/129/30 110/183/30 111/182/30
f 4/104/17 2/103/17 98/166/17 97/165/17
f 58/64/12 56/157/12 124/169/12 125/65/12
f 32/133/31 30/131/31 111/182/31 112/181/31
f 6/107/18 4/104/18 97/165/18 99/194/18
f 191/195/32 160/68/32 129/70/32 192/196/32
f 190/197/31 159/62/31 160/68/31 191/195/31
f 189/198/30 158/60/30 159/62/30 190/197/30
f 188/199/29 157/58/29 158/60/29 189/198/29
f 187/200/28 156/56/28 157/58/28 188/199/28
f 186/201/27 155/54/27 156/56/27 187/200/27
f 185/202/26 154/52/26 155/54/26 186/201/26
f 184/203/25 153/50/25 154/52/25 185/202/25
f 222/204/37 226/205/37 228/206/37 227/207/37 223/208/37 224/209/37
f 182/210/23 151/46/23 152/48/23 221/211/23 183/212/23
f 181/213/22 225/214/22 150/44/22 151/46/22 182/210/22
f 184/215/33 183/216/33 222/217/33 219/218/33 220/219/33
f 179/220/20 148/40/20 149/42/20 180/221/20
f 178/222/19 147/38/19 148/40/19 179/220/19
f 177/223/18 146/36/18 147/38/18 178/222/18
f 176/224/17 145/34/17 146/36/17 177/223/17
f 175/225/16 144/32/16 145/34/16 176/224/16
f 174/226/15 143/30/15 144/32/15 175/225/15
f 173/227/14 142/28/14 143/30/14 174/226/14
f 172/228/13 141/26/13 142/28/13 173/227/13
f 171/229/12 140/24/12 141/26/12 172/228/12
f 170/230/11 139/22/11 140/24/11 171/229/11
f 169/231/10 138/20/10 139/22/10 170/230/10
f 168/232/9 137/18/9 138/20/9 169/231/9
f 165/233/33 164/234/33 197/235/33 198/236/33 202/237/33
f 166/238/7 135/14/7 136/16/7 167/239/7
f 165/240/6 201/241/6 134/12/6 135/14/6 166/238/6
f 137/242/38 168/243/38 200/244/38 194/245/38
f 163/246/4 132/8/4 133/10/4 164/247/4
f 162/248/3 131/6/3 132/8/3 163/246/3
f 161/249/2 130/4/2 131/6/2 162/248/2
f 192/250/1 129/1/1 130/4/1 161/249/1
f 1/251/1 192/250/1 161/249/1 3/252/1
f 3/252/2 161/249/2 162/248/2 5/253/2
f 5/253/3 162/248/3 163/246/3 7/254/3
f 7/254/4 163/246/4 164/247/4 9/255/4
f 9/255/5 164/247/5 165/240/5 11/256/5
f 11/256/6 165/240/6 166/238/6 13/257/6
f 13/257/7 166/238/7 167/239/7 15/258/7
f 15/258/8 167/239/8 168/232/8 17/259/8
f 17/259/9 168/232/9 169/231/9 19/260/9
f 19/260/10 169/231/10 170/230/10 21/261/10
f 21/261/11 170/230/11 171/229/11 23/262/11
f 23/262/12 171/229/12 172/228/12 25/263/12
f 25/263/13 172/228/13 173/227/13 27/264/13
f 27/264/14 173/227/14 174/226/14 29/265/14
f 29/265/15 174/226/15 175/225/15 31/266/15
f 31/266/16 175/225/16 176/224/16 33/267/16
f 33/267/17 176/224/17 177/223/17 35/268/17
f 35/268/18 177/223/18 178/222/18 37/269/18
f 37/269/19 178/222/19 179/220/19 39/270/19
f 39/270/20 179/220/20 180/221/20 41/271/20
f 41/271/21 180/221/21 181/213/21 43/272/21
f 43/272/22 181/213/22 182/210/22 45/273/22
f 45/273/23 182/210/23 183/212/23 47/274/23
f 47/274/24 183/212/24 184/203/24 49/275/24
f 49/275/25 184/203/25 185/202/25 51/276/25
f 51/276/26 185/202/26 186/201/26 53/277/26
f 53/277/27 186/201/27 187/200/27 55/278/27
f 55/278/28 187/200/28 188/199/28 57/279/28
f 57/279/29 188/199/29 189/198/29 59/280/29
f 59/280/30 189/198/30 190/197/30 61/281/30
f 61/281/31 190/197/31 191/195/31 63/282/31
f 63/282/32 191/195/32 192/196/32 1/283/32
f 199/284/8 193/285/8 194/245/8 200/244/8
f 197/235/5 195/286/5 196/287/5 198/236/5
f 136/288/34 137/242/34 194/245/34 193/285/34
f 164/234/39 133/289/39 195/286/39 197/235/39
f 168/243/33 167/290/33 199/284/33 200/244/33
f 167/239/40 136/16/40 205/291/40 209/292/40 206/293/40
f 133/289/34 134/294/34 203/295/34 196/287/34 195/286/34
f 203/295/33 196/287/33 207/296/33 210/297/33
f 212/298/39 210/297/39 207/296/39 208/299/39 211/300/39
f 134/294/38 201/301/38 204/302/38 203/295/38
f 201/301/38 165/233/38 202/237/38 204/302/38
f 207/296/37 196/287/37 198/236/37 208/299/37
f 193/285/41 199/284/41 208/299/41 207/296/41
f 199/284/42 167/290/42 206/303/42 211/300/42 208/299/42
f 136/288/43 193/285/43 207/296/43 210/297/43 205/304/43
f 198/236/34 202/237/34 211/300/34 208/299/34
f 206/303/39 209/305/39 212/298/39 211/300/39
f 209/305/39 205/304/39 210/297/39 212/298/39
f 204/302/44 202/237/44 198/236/44 196/287/44 203/295/44
f 210/297/45 211/300/45 202/237/45 203/295/45
f 219/218/24 213/306/24 214/307/24 220/219/24
f 217/308/21 215/309/21 216/310/21 218/311/21
f 152/312/34 153/313/34 214/307/34 213/306/34 223/314/34
f 218/311/45 219/218/45 213/306/45 216/310/45
f 153/313/39 184/215/39 220/219/39 214/307/39
f 149/315/34 150/316/34 227/317/34 216/310/34 215/309/34
f 181/318/33 180/319/33 217/308/33 218/311/33 226/320/33
f 180/321/38 149/322/38 215/323/38 217/324/38
f 228/325/39 226/320/39 218/311/39 216/310/39 227/317/39
f 183/216/38 221/326/38 224/327/38 222/217/38
f 221/326/38 152/312/38 223/314/38 224/327/38
f 219/218/34 218/311/34 226/320/34 222/217/34
f 150/316/39 225/328/39 228/325/39 227/317/39
f 225/328/46 181/318/46 226/320/46 228/325/46
f 224/327/44 223/314/44 213/306/44 219/218/44 222/217/44
f 216/310/33 213/306/33 223/314/33 227/207/33
