# Blender v2.93.0 OBJ File: 'cocina.blend'
# www.blender.org
mtllib plato_2.mtl
o Cilindro.006_Cilindro.003
v 2.351315 1.545179 -2.594225
v 2.351316 1.645000 -2.632911
v 2.365228 1.545179 -2.592855
v 2.372776 1.645000 -2.630798
v 2.378606 1.545179 -2.588797
v 2.393411 1.645000 -2.624538
v 2.390935 1.545179 -2.582207
v 2.412428 1.645000 -2.614373
v 2.401742 1.545179 -2.573338
v 2.429097 1.645000 -2.600693
v 2.410611 1.545179 -2.562531
v 2.442777 1.645000 -2.584024
v 2.417201 1.545179 -2.550202
v 2.452942 1.645000 -2.565007
v 2.421259 1.545179 -2.536824
v 2.459202 1.645000 -2.544372
v 2.422629 1.545179 -2.522912
v 2.461316 1.645000 -2.522912
v 2.421259 1.545179 -2.508999
v 2.459202 1.645000 -2.501451
v 2.417201 1.545179 -2.495621
v 2.452942 1.645000 -2.480816
v 2.410611 1.545179 -2.483292
v 2.442777 1.645000 -2.461799
v 2.401742 1.545179 -2.472485
v 2.429097 1.645000 -2.445130
v 2.390935 1.545179 -2.463616
v 2.412428 1.645000 -2.431450
v 2.378606 1.545179 -2.457026
v 2.393411 1.645000 -2.421285
v 2.365228 1.545179 -2.452968
v 2.372776 1.645000 -2.415025
v 2.351315 1.545179 -2.451598
v 2.351316 1.645000 -2.412912
v 2.337403 1.545179 -2.452968
v 2.329856 1.645000 -2.415025
v 2.324025 1.545179 -2.457026
v 2.309221 1.645000 -2.421285
v 2.311696 1.545179 -2.463616
v 2.290203 1.645000 -2.431450
v 2.300889 1.545179 -2.472485
v 2.273534 1.645000 -2.445130
v 2.292020 1.545179 -2.483292
v 2.259854 1.645000 -2.461799
v 2.285430 1.545179 -2.495621
v 2.249689 1.645000 -2.480816
v 2.281372 1.545179 -2.508999
v 2.243429 1.645000 -2.501451
v 2.280002 1.545179 -2.522912
v 2.241316 1.645000 -2.522912
v 2.281372 1.545179 -2.536824
v 2.243429 1.645000 -2.544372
v 2.285430 1.545179 -2.550202
v 2.249689 1.645000 -2.565007
v 2.292020 1.545179 -2.562531
v 2.259854 1.645000 -2.584024
v 2.300889 1.545179 -2.573338
v 2.273534 1.645000 -2.600693
v 2.311696 1.545179 -2.582207
v 2.290203 1.645000 -2.614373
v 2.324025 1.545179 -2.588797
v 2.309221 1.645000 -2.624538
v 2.337403 1.545179 -2.592855
v 2.329856 1.645000 -2.630798
v 2.371822 1.645000 -2.626003
v 2.351316 1.645000 -2.628023
v 2.330810 1.645000 -2.626003
v 2.311091 1.645000 -2.620022
v 2.292919 1.645000 -2.610308
v 2.276991 1.645000 -2.597237
v 2.263919 1.645000 -2.581308
v 2.254205 1.645000 -2.563136
v 2.248224 1.645000 -2.543418
v 2.246204 1.645000 -2.522912
v 2.248224 1.645000 -2.502405
v 2.254205 1.645000 -2.482687
v 2.263919 1.645000 -2.464515
v 2.276991 1.645000 -2.448586
v 2.292919 1.645000 -2.435515
v 2.311091 1.645000 -2.425801
v 2.330810 1.645000 -2.419820
v 2.351316 1.645000 -2.417800
v 2.371822 1.645000 -2.419820
v 2.391540 1.645000 -2.425801
v 2.409713 1.645000 -2.435514
v 2.425641 1.645000 -2.448586
v 2.438713 1.645000 -2.464515
v 2.448426 1.645000 -2.482687
v 2.454407 1.645000 -2.502405
v 2.456427 1.645000 -2.522912
v 2.454407 1.645000 -2.543418
v 2.448426 1.645000 -2.563136
v 2.438713 1.645000 -2.581308
v 2.425641 1.645000 -2.597237
v 2.409713 1.645000 -2.610308
v 2.391540 1.645000 -2.620022
v 2.364610 1.545841 -2.589747
v 2.351315 1.545841 -2.591056
v 2.377393 1.545841 -2.585869
v 2.338021 1.545841 -2.589747
v 2.325238 1.545841 -2.585869
v 2.313456 1.545841 -2.579572
v 2.303130 1.545841 -2.571097
v 2.294655 1.545841 -2.560771
v 2.288358 1.545841 -2.548990
v 2.284480 1.545841 -2.536206
v 2.283171 1.545841 -2.522912
v 2.284480 1.545841 -2.509617
v 2.288358 1.545841 -2.496834
v 2.294655 1.545841 -2.485053
v 2.303130 1.545841 -2.474726
v 2.313456 1.545841 -2.466252
v 2.325238 1.545841 -2.459954
v 2.338021 1.545841 -2.456076
v 2.351315 1.545841 -2.454767
v 2.364610 1.545841 -2.456076
v 2.377393 1.545841 -2.459954
v 2.389174 1.545841 -2.466252
v 2.399501 1.545841 -2.474726
v 2.407976 1.545841 -2.485053
v 2.414273 1.545841 -2.496834
v 2.418151 1.545841 -2.509617
v 2.419460 1.545841 -2.522912
v 2.418151 1.545841 -2.536206
v 2.414273 1.545841 -2.548990
v 2.407976 1.545841 -2.560771
v 2.399501 1.545841 -2.571097
v 2.389174 1.545841 -2.579572
vt 0.504224 0.175129
vt 0.504224 0.192052
vt 0.503166 0.192052
vt 0.503166 0.175129
vt 0.502109 0.192052
vt 0.502109 0.175129
vt 0.501051 0.192052
vt 0.501051 0.175129
vt 0.499993 0.192052
vt 0.499993 0.175129
vt 0.498935 0.192052
vt 0.498935 0.175129
vt 0.497878 0.192052
vt 0.497878 0.175129
vt 0.496820 0.192052
vt 0.496820 0.175129
vt 0.495762 0.192052
vt 0.495762 0.175129
vt 0.494705 0.192052
vt 0.494705 0.175129
vt 0.493647 0.192052
vt 0.493647 0.175129
vt 0.492589 0.192052
vt 0.492589 0.175129
vt 0.491532 0.192052
vt 0.491532 0.175129
vt 0.490474 0.192052
vt 0.490474 0.175129
vt 0.489416 0.192052
vt 0.489416 0.175129
vt 0.488358 0.192052
vt 0.488358 0.175129
vt 0.487301 0.192052
vt 0.487301 0.175129
vt 0.486243 0.192052
vt 0.486243 0.175129
vt 0.485185 0.192052
vt 0.485185 0.175129
vt 0.484128 0.192052
vt 0.484128 0.175129
vt 0.483070 0.192052
vt 0.483070 0.175129
vt 0.482012 0.192052
vt 0.482012 0.175129
vt 0.480955 0.192052
vt 0.480955 0.175129
vt 0.479897 0.192052
vt 0.479897 0.175129
vt 0.478839 0.192052
vt 0.478839 0.175129
vt 0.477782 0.192052
vt 0.477782 0.175129
vt 0.476724 0.192052
vt 0.476724 0.175129
vt 0.475666 0.192052
vt 0.475666 0.175129
vt 0.474608 0.192052
vt 0.474608 0.175129
vt 0.473551 0.192052
vt 0.473551 0.175129
vt 0.472493 0.192052
vt 0.472493 0.175129
vt 0.478839 0.158905
vt 0.480354 0.159054
vt 0.480354 0.159054
vt 0.478839 0.158905
vt 0.471435 0.192052
vt 0.471435 0.175129
vt 0.470378 0.192052
vt 0.470378 0.175129
vt 0.495762 0.174790
vt 0.497347 0.174634
vt 0.498871 0.174172
vt 0.500275 0.173421
vt 0.501506 0.172411
vt 0.502517 0.171180
vt 0.503267 0.169776
vt 0.503729 0.168252
vt 0.503886 0.166667
vt 0.503729 0.165083
vt 0.503267 0.163559
vt 0.502517 0.162154
vt 0.501506 0.160923
vt 0.500275 0.159913
vt 0.498871 0.159163
vt 0.497347 0.158700
vt 0.495762 0.158544
vt 0.494178 0.158700
vt 0.492654 0.159163
vt 0.491249 0.159913
vt 0.490018 0.160923
vt 0.489008 0.162154
vt 0.488258 0.163559
vt 0.487795 0.165083
vt 0.487639 0.166667
vt 0.487795 0.168252
vt 0.488258 0.169776
vt 0.489008 0.171180
vt 0.490018 0.172411
vt 0.491249 0.173421
vt 0.492654 0.174172
vt 0.494178 0.174634
vt 0.480424 0.174634
vt 0.478839 0.174790
vt 0.478839 0.174429
vt 0.480354 0.174280
vt 0.477254 0.174634
vt 0.477325 0.174280
vt 0.475731 0.174172
vt 0.475869 0.173839
vt 0.474326 0.173421
vt 0.474527 0.173121
vt 0.473095 0.172411
vt 0.473351 0.172156
vt 0.472085 0.171180
vt 0.472385 0.170980
vt 0.471334 0.169776
vt 0.471668 0.169638
vt 0.470872 0.168252
vt 0.471226 0.168182
vt 0.470716 0.166667
vt 0.471077 0.166667
vt 0.470872 0.165083
vt 0.471226 0.165153
vt 0.471334 0.163559
vt 0.471668 0.163697
vt 0.472085 0.162154
vt 0.472385 0.162355
vt 0.473095 0.160923
vt 0.473351 0.161179
vt 0.474326 0.159913
vt 0.474527 0.160213
vt 0.475731 0.159163
vt 0.475869 0.159496
vt 0.477254 0.158700
vt 0.477325 0.159054
vt 0.478839 0.158544
vt 0.480424 0.158700
vt 0.481948 0.159163
vt 0.481810 0.159496
vt 0.483352 0.159913
vt 0.483152 0.160213
vt 0.484583 0.160923
vt 0.484328 0.161179
vt 0.485593 0.162154
vt 0.485293 0.162355
vt 0.486344 0.163559
vt 0.486010 0.163697
vt 0.486806 0.165083
vt 0.486452 0.165153
vt 0.486962 0.166667
vt 0.486601 0.166667
vt 0.486806 0.168252
vt 0.486452 0.168182
vt 0.486344 0.169776
vt 0.486010 0.169638
vt 0.485593 0.171180
vt 0.485293 0.170980
vt 0.484583 0.172411
vt 0.484328 0.172156
vt 0.483352 0.173421
vt 0.483152 0.173121
vt 0.481948 0.174172
vt 0.481810 0.173839
vt 0.480354 0.174280
vt 0.478839 0.174429
vt 0.477325 0.174280
vt 0.475869 0.173839
vt 0.474527 0.173121
vt 0.473351 0.172156
vt 0.472385 0.170980
vt 0.471668 0.169638
vt 0.471226 0.168182
vt 0.471077 0.166667
vt 0.471226 0.165153
vt 0.471668 0.163697
vt 0.472385 0.162355
vt 0.473351 0.161179
vt 0.474527 0.160213
vt 0.475869 0.159496
vt 0.477325 0.159054
vt 0.481810 0.159496
vt 0.483152 0.160213
vt 0.484328 0.161179
vt 0.485293 0.162355
vt 0.486010 0.163697
vt 0.486452 0.165153
vt 0.486601 0.166667
vt 0.486452 0.168182
vt 0.486010 0.169638
vt 0.485293 0.170980
vt 0.484328 0.172156
vt 0.483152 0.173121
vt 0.481810 0.173839
vn 0.0915 -0.3599 -0.9285
vn 0.2708 -0.3599 -0.8928
vn 0.4398 -0.3598 -0.8228
vn 0.5919 -0.3598 -0.7212
vn 0.7212 -0.3599 -0.5919
vn 0.8228 -0.3599 -0.4398
vn 0.8928 -0.3599 -0.2708
vn 0.9285 -0.3599 -0.0915
vn 0.9285 -0.3598 0.0915
vn 0.8928 -0.3599 0.2708
vn 0.8228 -0.3599 0.4398
vn 0.7212 -0.3599 0.5919
vn 0.5919 -0.3599 0.7212
vn 0.4398 -0.3599 0.8228
vn 0.2708 -0.3599 0.8928
vn 0.0914 -0.3599 0.9285
vn -0.0914 -0.3599 0.9285
vn -0.2708 -0.3599 0.8928
vn -0.4398 -0.3598 0.8228
vn -0.5919 -0.3599 0.7212
vn -0.7212 -0.3598 0.5919
vn -0.8228 -0.3598 0.4398
vn -0.8928 -0.3599 0.2708
vn -0.9285 -0.3598 0.0914
vn -0.9285 -0.3599 -0.0914
vn -0.8928 -0.3598 -0.2708
vn -0.8228 -0.3598 -0.4398
vn -0.7212 -0.3598 -0.5919
vn -0.5919 -0.3599 -0.7212
vn -0.4398 -0.3598 -0.8228
vn -0.0919 0.3478 -0.9330
vn -0.2708 -0.3599 -0.8928
vn -0.0915 -0.3599 -0.9285
vn 0.0000 -1.0000 0.0000
vn 0.0000 1.0000 0.0000
vn 0.5948 0.3478 0.7247
vn -0.2722 0.3478 -0.8972
vn 0.7247 0.3478 0.5948
vn -0.4420 0.3478 -0.8269
vn 0.8269 0.3478 0.4420
vn -0.5948 0.3478 -0.7247
vn 0.8972 0.3478 0.2721
vn -0.7247 0.3478 -0.5948
vn 0.9330 0.3478 0.0919
vn -0.8268 0.3478 -0.4420
vn 0.9330 0.3478 -0.0919
vn -0.8972 0.3478 -0.2722
vn 0.8972 0.3478 -0.2721
vn -0.9330 0.3478 -0.0919
vn 0.8268 0.3478 -0.4420
vn -0.9330 0.3478 0.0919
vn 0.7247 0.3478 -0.5948
vn -0.0919 0.3478 0.9330
vn -0.8972 0.3478 0.2722
vn 0.5948 0.3478 -0.7247
vn -0.2722 0.3478 0.8972
vn -0.8269 0.3478 0.4420
vn 0.4420 0.3478 -0.8269
vn 0.0919 0.3478 0.9330
vn -0.7247 0.3478 0.5948
vn 0.2722 0.3478 -0.8972
vn 0.2722 0.3478 0.8972
vn -0.5948 0.3478 0.7247
vn 0.0919 0.3478 -0.9330
vn 0.4420 0.3478 0.8269
vn -0.4420 0.3478 0.8269
usemtl Material.004
s off
f 1/1/1 2/2/1 4/3/1 3/4/1
f 3/4/2 4/3/2 6/5/2 5/6/2
f 5/6/3 6/5/3 8/7/3 7/8/3
f 7/8/4 8/7/4 10/9/4 9/10/4
f 9/10/5 10/9/5 12/11/5 11/12/5
f 11/12/6 12/11/6 14/13/6 13/14/6
f 13/14/7 14/13/7 16/15/7 15/16/7
f 15/16/8 16/15/8 18/17/8 17/18/8
f 17/18/9 18/17/9 20/19/9 19/20/9
f 19/20/10 20/19/10 22/21/10 21/22/10
f 21/22/11 22/21/11 24/23/11 23/24/11
f 23/24/12 24/23/12 26/25/12 25/26/12
f 25/26/13 26/25/13 28/27/13 27/28/13
f 27/28/14 28/27/14 30/29/14 29/30/14
f 29/30/15 30/29/15 32/31/15 31/32/15
f 31/32/16 32/31/16 34/33/16 33/34/16
f 33/34/17 34/33/17 36/35/17 35/36/17
f 35/36/18 36/35/18 38/37/18 37/38/18
f 37/38/19 38/37/19 40/39/19 39/40/19
f 39/40/20 40/39/20 42/41/20 41/42/20
f 41/42/21 42/41/21 44/43/21 43/44/21
f 43/44/22 44/43/22 46/45/22 45/46/22
f 45/46/23 46/45/23 48/47/23 47/48/23
f 47/48/24 48/47/24 50/49/24 49/50/24
f 49/50/25 50/49/25 52/51/25 51/52/25
f 51/52/26 52/51/26 54/53/26 53/54/26
f 53/54/27 54/53/27 56/55/27 55/56/27
f 55/56/28 56/55/28 58/57/28 57/58/28
f 57/58/29 58/57/29 60/59/29 59/60/29
f 59/60/30 60/59/30 62/61/30 61/62/30
f 82/63/31 83/64/31 116/65/31 115/66/31
f 61/62/32 62/61/32 64/67/32 63/68/32
f 63/68/33 64/67/33 2/69/33 1/70/33
f 1/71/34 3/72/34 5/73/34 7/74/34 9/75/34 11/76/34 13/77/34 15/78/34 17/79/34 19/80/34 21/81/34 23/82/34 25/83/34 27/84/34 29/85/34 31/86/34 33/87/34 35/88/34 37/89/34 39/90/34 41/91/34 43/92/34 45/93/34 47/94/34 49/95/34 51/96/34 53/97/34 55/98/34 57/99/34 59/100/34 61/101/34 63/102/34
f 4/103/35 2/104/35 66/105/35 65/106/35
f 2/104/35 64/107/35 67/108/35 66/105/35
f 64/107/35 62/109/35 68/110/35 67/108/35
f 62/109/35 60/111/35 69/112/35 68/110/35
f 60/111/35 58/113/35 70/114/35 69/112/35
f 58/113/35 56/115/35 71/116/35 70/114/35
f 56/115/35 54/117/35 72/118/35 71/116/35
f 54/117/35 52/119/35 73/120/35 72/118/35
f 52/119/35 50/121/35 74/122/35 73/120/35
f 50/121/35 48/123/35 75/124/35 74/122/35
f 48/123/35 46/125/35 76/126/35 75/124/35
f 46/125/35 44/127/35 77/128/35 76/126/35
f 44/127/35 42/129/35 78/130/35 77/128/35
f 42/129/35 40/131/35 79/132/35 78/130/35
f 40/131/35 38/133/35 80/134/35 79/132/35
f 38/133/35 36/135/35 81/136/35 80/134/35
f 36/135/35 34/137/35 82/63/35 81/136/35
f 34/137/35 32/138/35 83/64/35 82/63/35
f 32/138/35 30/139/35 84/140/35 83/64/35
f 30/139/35 28/141/35 85/142/35 84/140/35
f 28/141/35 26/143/35 86/144/35 85/142/35
f 26/143/35 24/145/35 87/146/35 86/144/35
f 24/145/35 22/147/35 88/148/35 87/146/35
f 22/147/35 20/149/35 89/150/35 88/148/35
f 20/149/35 18/151/35 90/152/35 89/150/35
f 18/151/35 16/153/35 91/154/35 90/152/35
f 16/153/35 14/155/35 92/156/35 91/154/35
f 14/155/35 12/157/35 93/158/35 92/156/35
f 12/157/35 10/159/35 94/160/35 93/158/35
f 10/159/35 8/161/35 95/162/35 94/160/35
f 8/161/35 6/163/35 96/164/35 95/162/35
f 6/163/35 4/103/35 65/106/35 96/164/35
f 97/165/35 98/166/35 100/167/35 101/168/35 102/169/35 103/170/35 104/171/35 105/172/35 106/173/35 107/174/35 108/175/35 109/176/35 110/177/35 111/178/35 112/179/35 113/180/35 114/181/35 115/66/35 116/65/35 117/182/35 118/183/35 119/184/35 120/185/35 121/186/35 122/187/35 123/188/35 124/189/35 125/190/35 126/191/35 127/192/35 128/193/35 99/194/35
f 69/112/36 70/114/36 103/170/36 102/169/36
f 83/64/37 84/140/37 117/182/37 116/65/37
f 70/114/38 71/116/38 104/171/38 103/170/38
f 84/140/39 85/142/39 118/183/39 117/182/39
f 71/116/40 72/118/40 105/172/40 104/171/40
f 85/142/41 86/144/41 119/184/41 118/183/41
f 72/118/42 73/120/42 106/173/42 105/172/42
f 86/144/43 87/146/43 120/185/43 119/184/43
f 73/120/44 74/122/44 107/174/44 106/173/44
f 87/146/45 88/148/45 121/186/45 120/185/45
f 74/122/46 75/124/46 108/175/46 107/174/46
f 88/148/47 89/150/47 122/187/47 121/186/47
f 75/124/48 76/126/48 109/176/48 108/175/48
f 89/150/49 90/152/49 123/188/49 122/187/49
f 76/126/50 77/128/50 110/177/50 109/176/50
f 90/152/51 91/154/51 124/189/51 123/188/51
f 77/128/52 78/130/52 111/178/52 110/177/52
f 65/106/53 66/105/53 98/166/53 97/165/53
f 91/154/54 92/156/54 125/190/54 124/189/54
f 78/130/55 79/132/55 112/179/55 111/178/55
f 96/164/56 65/106/56 97/165/56 99/194/56
f 92/156/57 93/158/57 126/191/57 125/190/57
f 79/132/58 80/134/58 113/180/58 112/179/58
f 66/105/59 67/108/59 100/167/59 98/166/59
f 93/158/60 94/160/60 127/192/60 126/191/60
f 80/134/61 81/136/61 114/181/61 113/180/61
f 67/108/62 68/110/62 101/168/62 100/167/62
f 94/160/63 95/162/63 128/193/63 127/192/63
f 81/136/64 82/63/64 115/66/64 114/181/64
f 68/110/65 69/112/65 102/169/65 101/168/65
f 95/162/66 96/164/66 99/194/66 128/193/66
