# Blender v2.93.0 OBJ File: 'cocina.blend'
# www.blender.org
mtllib estante_2.mtl
o Cubo.003_Cubo
v 4.929130 0.063173 5.314827
v 4.929130 3.041166 5.314827
v 4.929130 0.063173 1.087936
v 4.929130 3.041166 1.087936
v 6.394502 0.063173 5.314827
v 6.394502 3.041166 5.314827
v 6.394502 0.063173 1.087936
v 6.394502 3.041166 1.087936
v 4.929130 0.063173 1.201382
v 4.929130 0.063173 5.201382
v 4.929130 0.393908 5.314827
v 4.929130 1.552170 5.314827
v 4.929130 2.710431 5.314827
v 4.929130 3.041166 5.201382
v 4.929130 3.041166 1.201382
v 4.929130 2.710431 1.087936
v 4.929130 1.552170 1.087936
v 4.929130 0.393908 1.087936
v 6.311816 0.063173 1.087936
v 5.011816 0.063173 1.087936
v 5.011816 3.041166 1.087936
v 6.311816 3.041166 1.087936
v 6.394502 2.710431 1.087936
v 6.394502 1.552170 1.087936
v 6.394502 0.393908 1.087936
v 6.394502 0.063173 5.201382
v 6.394502 0.063173 1.201382
v 6.394502 3.041166 1.201382
v 6.394502 3.041166 5.201382
v 6.394502 2.710431 5.314827
v 6.394502 1.552170 5.314827
v 6.394502 0.393908 5.314827
v 5.011816 0.063173 5.314827
v 6.311816 0.063173 5.314827
v 6.311816 3.041166 5.314827
v 5.011816 3.041166 5.314827
v 5.011816 0.063173 1.201382
v 5.011816 0.063173 5.201382
v 6.311816 0.063173 1.201382
v 6.311816 0.063173 5.201382
v 6.311816 0.393908 5.314827
v 5.661816 0.393908 5.314827
v 5.011816 0.393908 5.314827
v 6.311816 1.552170 5.314827
v 5.661816 1.552170 5.314827
v 5.011816 1.552170 5.314827
v 6.311816 2.710431 5.314827
v 5.661816 2.710431 5.314827
v 5.011816 2.710431 5.314827
v 6.394502 0.393908 1.201382
v 6.394502 0.393908 3.201382
v 6.394502 0.393908 5.201382
v 6.394502 1.552170 1.201382
v 6.394502 1.552170 3.201382
v 6.394502 1.552170 5.201382
v 6.394502 2.710431 1.201382
v 6.394502 2.710431 3.201382
v 6.394502 2.710431 5.201382
v 5.011816 0.393908 1.087936
v 5.661816 0.393908 1.087936
v 6.311816 0.393908 1.087936
v 5.011816 1.552170 1.087936
v 5.661816 1.552170 1.087936
v 6.311816 1.552170 1.087936
v 5.011816 2.710431 1.087936
v 5.661816 2.710431 1.087936
v 6.311816 2.710431 1.087936
v 4.929130 0.393908 5.201382
v 4.929130 0.393908 3.201382
v 4.929130 0.393908 1.201382
v 4.929130 1.552170 5.201382
v 4.929130 1.552170 3.201382
v 4.929130 1.552170 1.201382
v 4.929130 2.710431 5.201382
v 4.929130 2.710431 3.201382
v 4.929130 2.710431 1.201382
v 5.011816 0.483005 5.314827
v 4.929130 0.483005 5.314827
v 6.394502 0.483005 5.314827
v 6.311816 0.483005 5.314827
v 5.661816 0.483005 5.314827
v 6.394502 0.483005 5.201382
v 6.394502 0.483005 1.087936
v 6.394502 0.483005 1.201382
v 6.394502 0.483005 3.201382
v 6.311816 0.483005 1.087936
v 4.929130 0.483005 1.087936
v 5.011816 0.483005 1.087936
v 5.661816 0.483005 1.087936
v 4.929130 0.483005 1.201382
v 4.929130 0.483005 5.201382
v 4.929130 0.483005 3.201382
v 5.011816 1.641267 5.314827
v 4.929130 1.641267 5.314827
v 6.394502 1.641267 5.314827
v 6.311816 1.641267 5.314827
v 5.661816 1.641267 5.314827
v 6.394502 1.641267 5.201382
v 6.394502 1.641267 1.087936
v 6.394502 1.641267 1.201382
v 6.394502 1.641267 3.201382
v 6.311816 1.641267 1.087936
v 4.929130 1.641267 1.087936
v 5.011816 1.641267 1.087936
v 5.661816 1.641267 1.087936
v 4.929130 1.641267 1.201382
v 4.929130 1.641267 5.201382
v 4.929130 1.641267 3.201382
v 5.011816 2.799528 5.314827
v 4.929130 2.799528 5.314827
v 6.394502 2.799528 5.314827
v 6.311816 2.799528 5.314827
v 5.661816 2.799528 5.314827
v 6.394502 2.799528 5.201382
v 6.394502 2.799528 1.087936
v 6.394502 2.799528 1.201382
v 6.394502 2.799528 3.201382
v 6.311816 2.799528 1.087936
v 4.929130 2.799528 1.087936
v 5.011816 2.799528 1.087936
v 5.661816 2.799528 1.087936
v 4.929130 2.799528 1.201382
v 4.929130 2.799528 5.201382
v 4.929130 2.799528 3.201382
vt 0.842021 0.541207
vt 0.842260 0.541207
vt 0.842260 0.541445
vt 0.842021 0.541445
vt 0.842021 0.542161
vt 0.842260 0.542161
vt 0.842260 0.542399
vt 0.842021 0.542399
vt 0.842021 0.543115
vt 0.842260 0.543115
vt 0.842260 0.543354
vt 0.842021 0.543354
vt 0.842021 0.544069
vt 0.842260 0.544069
vt 0.842260 0.544308
vt 0.842021 0.544308
vt 0.841067 0.543115
vt 0.841305 0.543115
vt 0.841305 0.543354
vt 0.841067 0.543354
vt 0.840351 0.543115
vt 0.840590 0.543115
vt 0.840590 0.543354
vt 0.840351 0.543354
vt 0.840351 0.542399
vt 0.840590 0.542399
vt 0.840590 0.542638
vt 0.840351 0.542638
vt 0.841067 0.542399
vt 0.841305 0.542399
vt 0.841305 0.542638
vt 0.841067 0.542638
vt 0.841305 0.544069
vt 0.841544 0.544069
vt 0.841544 0.544308
vt 0.841305 0.544308
vt 0.841782 0.544069
vt 0.841782 0.544308
vt 0.841544 0.543354
vt 0.841544 0.543592
vt 0.841305 0.543592
vt 0.841782 0.543354
vt 0.841782 0.543592
vt 0.842021 0.543592
vt 0.842260 0.543592
vt 0.841544 0.543115
vt 0.841782 0.543115
vt 0.841544 0.542399
vt 0.841544 0.542638
vt 0.841782 0.542399
vt 0.841782 0.542638
vt 0.842021 0.542638
vt 0.842260 0.542638
vt 0.841305 0.542161
vt 0.841544 0.542161
vt 0.841782 0.542161
vt 0.841305 0.541445
vt 0.841544 0.541445
vt 0.841544 0.541684
vt 0.841305 0.541684
vt 0.841782 0.541445
vt 0.841782 0.541684
vt 0.842021 0.541684
vt 0.842260 0.541684
vt 0.841305 0.541207
vt 0.841544 0.541207
vt 0.841782 0.541207
vt 0.841305 0.540491
vt 0.841544 0.540491
vt 0.841544 0.540729
vt 0.841305 0.540729
vt 0.841782 0.540491
vt 0.841782 0.540729
vt 0.842021 0.540491
vt 0.842021 0.540729
vt 0.842260 0.540491
vt 0.842260 0.540729
vt 0.841544 0.541445
vt 0.841544 0.541207
vt 0.791230 0.508590
vt 0.791230 0.508590
vt 0.791230 0.508590
vt 0.791230 0.508590
vt 0.791230 0.508590
vt 0.791230 0.508590
vt 0.791230 0.508590
vt 0.791230 0.508590
vt 0.791230 0.508590
vt 0.791230 0.508590
vt 0.791230 0.508590
vt 0.791230 0.508590
vt 0.791230 0.508590
vt 0.791230 0.508590
vt 0.791230 0.508590
vt 0.791230 0.508590
vt 0.841544 0.542399
vt 0.841544 0.542161
vt 0.841544 0.543354
vt 0.841544 0.543115
vt 0.841544 0.544308
vt 0.841544 0.544069
vt 0.841544 0.540729
vt 0.841544 0.540491
vt 0.841544 0.541684
vt 0.841544 0.542638
vt 0.841544 0.543592
vt 0.791230 0.508590
vt 0.791230 0.508590
vt 0.791230 0.508590
vt 0.791230 0.508590
vt 0.791230 0.508590
vt 0.791230 0.508590
vt 0.791230 0.508590
vt 0.791230 0.508590
vt 0.791230 0.508590
vt 0.791230 0.508590
vt 0.791230 0.508590
vt 0.791230 0.508590
vt 0.841782 0.540729
vt 0.841782 0.540491
vt 0.842021 0.543354
vt 0.842021 0.543115
vt 0.791230 0.508590
vt 0.791230 0.508590
vt 0.791230 0.508590
vt 0.791230 0.508590
vt 0.791230 0.508590
vt 0.791230 0.508590
vt 0.791230 0.508590
vt 0.791230 0.508590
vt 0.791230 0.508590
vt 0.791230 0.508590
vt 0.791230 0.508590
vt 0.791230 0.508590
vt 0.791230 0.508590
vt 0.791230 0.508590
vt 0.791230 0.508590
vt 0.791230 0.508590
vt 0.791230 0.508590
vt 0.791230 0.508590
vt 0.791230 0.508590
vt 0.791230 0.508590
vt 0.841782 0.542399
vt 0.841782 0.542161
vt 0.791230 0.508590
vt 0.791230 0.508590
vt 0.841782 0.541684
vt 0.841782 0.541445
vt 0.791230 0.508590
vt 0.791230 0.508590
vt 0.841782 0.543354
vt 0.841782 0.543115
vt 0.791230 0.508590
vt 0.841782 0.542638
vt 0.791230 0.508590
vt 0.791230 0.508590
vt 0.841782 0.544308
vt 0.841782 0.544069
vt 0.791230 0.508590
vt 0.841782 0.541207
vt 0.841782 0.543592
vt 0.791230 0.508590
vt 0.791230 0.508590
vt 0.791230 0.508590
vt 0.791230 0.508590
vt 0.791230 0.508590
vt 0.791230 0.508590
vt 0.791230 0.508590
vt 0.791230 0.508590
vt 0.791230 0.508590
vt 0.791230 0.508590
vt 0.791230 0.508590
vt 0.791230 0.508590
vt 0.791230 0.508590
vt 0.791230 0.508590
vt 0.791230 0.508590
vt 0.791230 0.508590
vt 0.791230 0.508590
vt 0.791230 0.508590
vt 0.842021 0.542638
vt 0.842021 0.542399
vt 0.791230 0.508590
vt 0.791230 0.508590
vt 0.842021 0.544308
vt 0.842021 0.544069
vt 0.791230 0.508590
vt 0.842021 0.541445
vt 0.842021 0.541207
vt 0.842021 0.543592
vt 0.842021 0.540729
vt 0.842021 0.540491
vt 0.791230 0.508590
vt 0.791230 0.508590
vt 0.791230 0.508590
vt 0.791230 0.508590
vt 0.791230 0.508590
vt 0.842021 0.542161
vt 0.791230 0.508590
vt 0.842021 0.541684
vt 0.791230 0.508590
vn -1.0000 0.0000 0.0000
vn 0.0000 0.0000 -1.0000
vn 1.0000 0.0000 0.0000
vn 0.0000 0.0000 1.0000
vn 0.0000 -1.0000 0.0000
usemtl Material.004
s off
f 76/1/1 15/2/1 4/3/1 16/4/1
f 67/5/2 22/6/2 8/7/2 23/8/2
f 58/9/3 29/10/3 6/11/3 30/12/3
f 49/13/4 36/14/4 2/15/4 13/16/4
f 40/17/5 26/18/5 5/19/5 34/20/5
f 10/21/5 38/22/5 33/23/5 1/24/5
f 3/25/5 20/26/5 37/27/5 9/28/5
f 19/29/5 7/30/5 27/31/5 39/32/5
f 33/33/4 43/34/4 11/35/4 1/36/4
f 43/34/4 46/37/4 12/38/4 11/35/4
f 46/37/4 49/13/4 13/16/4 12/38/4
f 5/19/4 32/39/4 41/40/4 34/41/4
f 32/39/4 31/42/4 44/43/4 41/40/4
f 31/42/4 30/12/4 47/44/4 44/43/4
f 30/12/4 6/11/4 35/45/4 47/44/4
f 26/18/3 52/46/3 32/39/3 5/19/3
f 52/46/3 55/47/3 31/42/3 32/39/3
f 55/47/3 58/9/3 30/12/3 31/42/3
f 7/30/3 25/48/3 50/49/3 27/31/3
f 25/48/3 24/50/3 53/51/3 50/49/3
f 24/50/3 23/8/3 56/52/3 53/51/3
f 23/8/3 8/7/3 28/53/3 56/52/3
f 19/54/2 61/55/2 25/48/2 7/30/2
f 61/55/2 64/56/2 24/50/2 25/48/2
f 64/56/2 67/5/2 23/8/2 24/50/2
f 3/57/2 18/58/2 59/59/2 20/60/2
f 18/58/2 17/61/2 62/62/2 59/59/2
f 17/61/2 16/4/2 65/63/2 62/62/2
f 16/4/2 4/3/2 21/64/2 65/63/2
f 9/65/1 70/66/1 18/58/1 3/57/1
f 70/66/1 73/67/1 17/61/1 18/58/1
f 73/67/1 76/1/1 16/4/1 17/61/1
f 1/68/1 11/69/1 68/70/1 10/71/1
f 11/69/1 12/72/1 71/73/1 68/70/1
f 12/72/1 13/74/1 74/75/1 71/73/1
f 13/74/1 2/76/1 14/77/1 74/75/1
f 70/66/3 18/58/3 87/78/3 90/79/3
f 81/80/5 77/81/5 78/82/5 91/83/5 92/84/5 90/85/5 87/86/5 88/87/5 89/88/5 86/89/5 83/90/5 84/91/5 85/92/5 82/93/5 79/94/5 80/95/5
f 61/55/4 25/48/4 83/96/4 86/97/4
f 52/46/1 32/39/1 79/98/1 82/99/1
f 43/34/2 11/35/2 78/100/2 77/101/2
f 11/69/3 68/70/3 91/102/3 78/103/3
f 18/58/4 59/59/4 88/104/4 87/78/4
f 25/48/1 50/49/1 84/105/1 83/96/1
f 32/39/2 41/40/2 80/106/2 79/98/2
f 68/107/3 69/108/3 92/84/3 91/83/3
f 59/109/4 60/110/4 89/88/4 88/87/4
f 50/111/1 51/112/1 85/92/1 84/91/1
f 41/113/2 42/114/2 81/80/2 80/95/2
f 69/108/3 70/115/3 90/85/3 92/84/3
f 60/110/4 61/116/4 86/89/4 89/88/4
f 51/112/1 52/117/1 82/93/1 85/92/1
f 42/114/2 43/118/2 77/81/2 81/80/2
f 12/72/3 71/73/3 107/119/3 94/120/3
f 58/9/1 30/12/1 111/121/1 114/122/1
f 97/123/5 93/124/5 94/125/5 107/126/5 108/127/5 106/128/5 103/129/5 104/130/5 105/131/5 102/132/5 99/133/5 100/134/5 101/135/5 98/136/5 95/137/5 96/138/5
f 44/139/2 45/140/2 97/123/2 96/138/2
f 71/141/3 72/142/3 108/127/3 107/126/3
f 64/56/4 24/50/4 99/143/4 102/144/4
f 45/140/2 46/145/2 93/124/2 97/123/2
f 72/142/3 73/146/3 106/128/3 108/127/3
f 17/61/4 62/62/4 104/147/4 103/148/4
f 62/149/4 63/150/4 105/131/4 104/130/4
f 55/47/1 31/42/1 95/151/1 98/152/1
f 63/150/4 64/153/4 102/132/4 105/131/4
f 24/50/1 53/51/1 100/154/1 99/143/1
f 53/155/1 54/156/1 101/135/1 100/134/1
f 46/37/2 12/38/2 94/157/2 93/158/2
f 54/156/1 55/159/1 98/136/1 101/135/1
f 73/67/3 17/61/3 103/148/3 106/160/3
f 31/42/2 44/43/2 96/161/2 95/151/2
f 113/162/5 109/163/5 110/164/5 123/165/5 124/166/5 122/167/5 119/168/5 120/169/5 121/170/5 118/171/5 115/172/5 116/173/5 117/174/5 114/175/5 111/176/5 112/177/5
f 66/178/4 67/179/4 118/171/4 121/170/4
f 23/8/1 56/52/1 116/180/1 115/181/1
f 56/182/1 57/183/1 117/174/1 116/173/1
f 49/13/2 13/16/2 110/184/2 109/185/2
f 57/183/1 58/186/1 114/175/1 117/174/1
f 76/1/3 16/4/3 119/187/3 122/188/3
f 30/12/2 47/44/2 112/189/2 111/121/2
f 13/74/3 74/75/3 123/190/3 110/191/3
f 47/192/2 48/193/2 113/162/2 112/177/2
f 74/194/3 75/195/3 124/166/3 123/165/3
f 48/193/2 49/196/2 109/163/2 113/162/2
f 67/5/4 23/8/4 115/181/4 118/197/4
f 75/195/3 76/198/3 122/167/3 124/166/3
f 16/4/4 65/63/4 120/199/4 119/187/4
f 65/200/4 66/178/4 121/170/4 120/169/4
