# Blender v2.93.0 OBJ File: 'cocina.blend'
# www.blender.org
mtllib mesa_centro_puerta3.mtl
o Cubo.027_Cubo.025
v 0.784991 0.199319 -2.066160
v 0.774991 0.199319 -2.066160
v 0.784991 1.200868 -2.066160
v 0.774991 1.200868 -2.066160
v 0.784991 0.199319 -2.745810
v 0.774991 0.199319 -2.745810
v 0.784991 1.200869 -2.745810
v 0.774991 1.200869 -2.745810
v 0.784991 1.175727 -2.094710
v 0.784991 1.175727 -2.717260
v 0.784991 0.224461 -2.717260
v 0.784991 0.224461 -2.094710
v 0.747801 1.175727 -2.717260
v 0.747801 1.175727 -2.094710
v 0.747801 0.224461 -2.094710
v 0.747801 0.224461 -2.717260
v 0.747801 1.175727 -2.405985
v 0.747801 0.700094 -2.717260
v 0.747801 0.700093 -2.094710
v 0.747801 0.224461 -2.405985
v 0.774991 0.700094 -2.405985
v 0.754527 0.804379 -2.640256
v 0.719092 0.822271 -2.629772
v 0.754096 0.803950 -2.645188
v 0.718317 0.821498 -2.638650
v 0.753682 0.802677 -2.649931
v 0.717571 0.819207 -2.647188
v 0.753300 0.800610 -2.654302
v 0.716884 0.815487 -2.655056
v 0.752965 0.797829 -2.658134
v 0.716281 0.810481 -2.661952
v 0.752691 0.794440 -2.661278
v 0.715787 0.804380 -2.667612
v 0.752487 0.790574 -2.663614
v 0.715419 0.797421 -2.671818
v 0.752361 0.786379 -2.665053
v 0.715193 0.789869 -2.674407
v 0.752319 0.782016 -2.665539
v 0.715117 0.782016 -2.675282
v 0.752361 0.777653 -2.665053
v 0.715193 0.774162 -2.674407
v 0.752487 0.773457 -2.663614
v 0.715419 0.766610 -2.671818
v 0.752691 0.769591 -2.661278
v 0.715787 0.759651 -2.667612
v 0.752965 0.766202 -2.658134
v 0.716281 0.753550 -2.661952
v 0.753300 0.763421 -2.654302
v 0.716884 0.748544 -2.655056
v 0.753682 0.761354 -2.649931
v 0.717571 0.744824 -2.647188
v 0.754096 0.760081 -2.645188
v 0.718317 0.742533 -2.638650
v 0.754527 0.759652 -2.640256
v 0.719092 0.741760 -2.629772
v 0.754958 0.760081 -2.635324
v 0.719868 0.742533 -2.620893
v 0.755372 0.761354 -2.630580
v 0.720613 0.744824 -2.612356
v 0.755754 0.763421 -2.626209
v 0.721301 0.748544 -2.604488
v 0.756089 0.766202 -2.622378
v 0.721903 0.753550 -2.597592
v 0.756363 0.769591 -2.619234
v 0.722398 0.759651 -2.591932
v 0.756567 0.773457 -2.616898
v 0.722765 0.766610 -2.587726
v 0.756693 0.777653 -2.615459
v 0.722991 0.774162 -2.585136
v 0.756735 0.782016 -2.614973
v 0.723067 0.782016 -2.584262
v 0.756693 0.786379 -2.615459
v 0.722991 0.789869 -2.585136
v 0.756567 0.790574 -2.616898
v 0.722765 0.797421 -2.587726
v 0.756363 0.794440 -2.619234
v 0.722398 0.804380 -2.591932
v 0.756089 0.797829 -2.622378
v 0.721903 0.810481 -2.597592
v 0.755754 0.800610 -2.626209
v 0.721301 0.815487 -2.604488
v 0.755372 0.802677 -2.630580
v 0.720613 0.819207 -2.612356
v 0.754958 0.803950 -2.635324
v 0.719868 0.821498 -2.620893
vt 0.512415 0.333965
vt 0.498488 0.347892
vt 0.498488 0.333965
vt 0.512415 0.347892
vt 0.498488 0.361818
vt 0.512415 0.361818
vt 0.498488 0.375744
vt 0.512415 0.375744
vt 0.498488 0.389670
vt 0.497903 0.362167
vt 0.485147 0.375395
vt 0.485147 0.362167
vt 0.525756 0.368781
vt 0.519378 0.375395
vt 0.519378 0.368781
vt 0.484562 0.361818
vt 0.484562 0.375744
vt 0.497903 0.375395
vt 0.526341 0.361818
vt 0.525756 0.362167
vt 0.519378 0.362167
vt 0.526341 0.375744
vt 0.525756 0.375395
vt 0.513000 0.375395
vt 0.513000 0.362167
vt 0.513000 0.368781
vt 0.865071 0.378301
vt 0.863330 0.350449
vt 0.865071 0.350449
vt 0.863330 0.378301
vt 0.861589 0.350449
vt 0.861589 0.378301
vt 0.859848 0.350449
vt 0.859848 0.378301
vt 0.858108 0.350449
vt 0.858108 0.378301
vt 0.856367 0.350449
vt 0.856367 0.378301
vt 0.854626 0.350449
vt 0.854626 0.378301
vt 0.852885 0.350449
vt 0.852885 0.378301
vt 0.851145 0.350449
vt 0.849404 0.378301
vt 0.849404 0.350449
vt 0.847663 0.378301
vt 0.847663 0.350449
vt 0.845922 0.378301
vt 0.845922 0.350449
vt 0.844182 0.378301
vt 0.844182 0.350449
vt 0.842441 0.378301
vt 0.842441 0.350449
vt 0.840700 0.378301
vt 0.840700 0.350449
vt 0.838959 0.378301
vt 0.838959 0.350449
vt 0.837218 0.378301
vt 0.837218 0.350449
vt 0.835478 0.378301
vt 0.835478 0.350449
vt 0.833737 0.378301
vt 0.833737 0.350449
vt 0.831996 0.378301
vt 0.831996 0.350449
vt 0.830255 0.378301
vt 0.830255 0.350449
vt 0.828514 0.378301
vt 0.828514 0.350449
vt 0.826774 0.378301
vt 0.826774 0.350449
vt 0.825033 0.378301
vt 0.825033 0.350449
vt 0.823292 0.378301
vt 0.823292 0.350449
vt 0.821551 0.350449
vt 0.821551 0.378301
vt 0.819811 0.350449
vt 0.819811 0.378301
vt 0.818070 0.350449
vt 0.818070 0.378301
vt 0.816329 0.350449
vt 0.816329 0.378301
vt 0.814588 0.350449
vt 0.814588 0.378301
vt 0.812847 0.350449
vt 0.832746 0.345976
vt 0.830720 0.347639
vt 0.832746 0.327069
vt 0.812847 0.378301
vt 0.811107 0.350449
vt 0.811107 0.378301
vt 0.809366 0.350449
vt 0.511950 0.359008
vt 0.514262 0.360243
vt 0.511950 0.336775
vt 0.512415 0.389670
vt 0.851145 0.378301
vt 0.828408 0.348874
vt 0.825900 0.349635
vt 0.825900 0.323410
vt 0.823292 0.349892
vt 0.823292 0.323153
vt 0.820684 0.349635
vt 0.820684 0.323410
vt 0.818176 0.348874
vt 0.818176 0.324171
vt 0.815865 0.347639
vt 0.813839 0.345976
vt 0.815865 0.325406
vt 0.812176 0.343950
vt 0.813839 0.327069
vt 0.810941 0.341639
vt 0.812176 0.329095
vt 0.810180 0.339131
vt 0.810180 0.333914
vt 0.809923 0.336523
vt 0.810941 0.331406
vt 0.828408 0.324171
vt 0.830720 0.325406
vt 0.834408 0.329095
vt 0.835644 0.331406
vt 0.834408 0.343950
vt 0.836404 0.333914
vt 0.835644 0.341639
vt 0.836661 0.336523
vt 0.836404 0.339131
vt 0.809366 0.378301
vt 0.516770 0.361004
vt 0.519378 0.361261
vt 0.519378 0.334522
vt 0.521986 0.361004
vt 0.521986 0.334779
vt 0.524494 0.360243
vt 0.526805 0.359008
vt 0.524494 0.335540
vt 0.528831 0.357345
vt 0.528831 0.338438
vt 0.530494 0.355319
vt 0.530494 0.340464
vt 0.531729 0.353008
vt 0.532490 0.350500
vt 0.531729 0.342775
vt 0.532747 0.347892
vt 0.532490 0.345283
vt 0.526805 0.336775
vt 0.516770 0.334779
vt 0.514262 0.335540
vt 0.509924 0.338438
vt 0.509924 0.357345
vt 0.508262 0.340464
vt 0.508262 0.355319
vt 0.507026 0.342775
vt 0.506265 0.345283
vt 0.507026 0.353008
vt 0.506009 0.347892
vt 0.506265 0.350500
vn 0.0000 0.0000 -1.0000
vn 0.0000 -1.0000 -0.0000
vn 0.0000 -0.0000 1.0000
vn 0.0000 1.0000 0.0000
vn -1.0000 -0.0000 0.0000
vn 0.9946 -0.0569 0.0869
vn 0.6789 -0.7342 0.0000
vn 0.7241 0.0000 -0.6897
vn 0.6789 0.7342 0.0000
vn 0.7241 0.0000 0.6897
vn 1.0000 0.0000 0.0000
vn 0.9946 0.0569 0.0869
vn -0.4204 -0.9000 0.1151
vn -0.3837 -0.8830 0.2704
vn -0.3498 -0.8348 0.4252
vn -0.3196 -0.7533 0.5748
vn -0.2939 -0.6372 0.7125
vn -0.2735 -0.4868 0.8296
vn -0.2593 -0.3064 0.9159
vn -0.2520 -0.1046 0.9621
vn -0.2520 0.1046 0.9621
vn -0.2593 0.3064 0.9159
vn -0.2735 0.4868 0.8296
vn -0.2939 0.6372 0.7125
vn -0.3196 0.7533 0.5747
vn -0.3498 0.8348 0.4252
vn -0.3837 0.8830 0.2704
vn -0.4204 0.9000 0.1151
vn -0.4592 0.8876 -0.0372
vn -0.4990 0.8469 -0.1836
vn -0.5388 0.7788 -0.3212
vn -0.5768 0.6842 -0.4463
vn -0.6112 0.5644 -0.5549
vn -0.6398 0.4219 -0.6424
vn -0.6605 0.2612 -0.7040
vn -0.6713 0.0885 -0.7359
vn -0.6713 -0.0885 -0.7359
vn -0.6604 -0.2612 -0.7040
vn -0.6398 -0.4219 -0.6424
vn -0.6112 -0.5644 -0.5549
vn -0.5768 -0.6842 -0.4463
vn -0.5388 -0.7788 -0.3212
vn 0.9962 0.0000 -0.0870
vn -0.4990 -0.8469 -0.1837
vn -0.4592 -0.8876 -0.0373
vn -0.9962 0.0000 0.0870
vn 0.7241 0.0000 -0.6896
vn 0.7241 -0.0000 0.6896
vn 0.9946 -0.0569 -0.0869
vn 0.9946 0.0569 -0.0869
vn -0.3836 -0.8830 0.2704
vn -0.3498 -0.8347 0.4252
vn -0.2520 -0.1047 0.9621
vn -0.2520 0.1047 0.9621
vn -0.2593 0.3063 0.9159
vn -0.2735 0.4869 0.8296
vn -0.3196 0.7533 0.5748
vn -0.3498 0.8347 0.4252
vn -0.3836 0.8830 0.2705
vn -0.4991 0.8469 -0.1837
vn -0.6604 0.2612 -0.7040
vn -0.6713 0.0884 -0.7359
vn -0.6713 -0.0884 -0.7359
vn 0.9962 0.0000 -0.0871
vn -0.4991 -0.8469 -0.1836
vn -0.4592 -0.8876 -0.0372
vn -0.9962 0.0000 0.0871
usemtl Material.004
s off
f 2/1/1 3/2/1 1/3/1
f 4/4/2 7/5/2 3/2/2
f 8/6/3 5/7/3 7/5/3
f 6/8/4 1/9/4 5/7/4
f 10/10/5 12/11/5 9/12/5
f 19/13/6 20/14/6 21/15/6
f 7/5/5 9/12/5 3/16/5
f 5/7/5 10/10/5 7/5/5
f 1/17/5 11/18/5 5/7/5
f 3/16/5 12/11/5 1/17/5
f 4/19/7 14/20/7 17/21/7
f 2/22/8 15/23/8 19/13/8
f 6/8/9 16/24/9 20/14/9
f 8/6/10 13/25/10 18/26/10
f 18/26/11 20/14/11 16/24/11
f 17/21/11 18/26/11 13/25/11
f 17/21/12 19/13/12 21/15/12
f 23/27/13 24/28/13 22/29/13
f 25/30/14 26/31/14 24/28/14
f 27/32/15 28/33/15 26/31/15
f 29/34/16 30/35/16 28/33/16
f 31/36/17 32/37/17 30/35/17
f 33/38/18 34/39/18 32/37/18
f 35/40/19 36/41/19 34/39/19
f 37/42/20 38/43/20 36/41/20
f 38/43/21 41/44/21 40/45/21
f 40/45/22 43/46/22 42/47/22
f 42/47/23 45/48/23 44/49/23
f 44/49/24 47/50/24 46/51/24
f 46/51/25 49/52/25 48/53/25
f 48/53/26 51/54/26 50/55/26
f 50/55/27 53/56/27 52/57/27
f 52/57/28 55/58/28 54/59/28
f 54/59/29 57/60/29 56/61/29
f 56/61/30 59/62/30 58/63/30
f 58/63/31 61/64/31 60/65/31
f 60/65/32 63/66/32 62/67/32
f 62/67/33 65/68/33 64/69/33
f 64/69/34 67/70/34 66/71/34
f 66/71/35 69/72/35 68/73/35
f 68/73/36 71/74/36 70/75/36
f 71/74/37 72/76/37 70/75/37
f 73/77/38 74/78/38 72/76/38
f 75/79/39 76/80/39 74/78/39
f 77/81/40 78/82/40 76/80/40
f 79/83/41 80/84/41 78/82/41
f 81/85/42 82/86/42 80/84/42
f 31/87/43 29/88/43 47/89/43
f 83/90/44 84/91/44 82/86/44
f 85/92/45 22/93/45 84/91/45
f 80/94/46 82/95/46 60/96/46
f 2/1/1 4/4/1 3/2/1
f 4/4/2 8/6/2 7/5/2
f 8/6/3 6/8/3 5/7/3
f 6/8/4 2/97/4 1/9/4
f 10/10/5 11/18/5 12/11/5
f 19/13/11 15/23/11 20/14/11
f 7/5/5 10/10/5 9/12/5
f 5/7/5 11/18/5 10/10/5
f 1/17/5 12/11/5 11/18/5
f 3/16/5 9/12/5 12/11/5
f 13/25/7 8/6/7 17/21/7
f 8/6/7 4/19/7 17/21/7
f 14/20/47 4/19/47 19/13/47
f 4/19/8 2/22/8 19/13/8
f 15/23/9 2/22/9 20/14/9
f 2/22/9 6/8/9 20/14/9
f 16/24/48 6/8/48 18/26/48
f 6/8/10 8/6/10 18/26/10
f 18/26/49 21/15/49 20/14/49
f 17/21/50 21/15/50 18/26/50
f 17/21/11 14/20/11 19/13/11
f 23/27/13 25/30/13 24/28/13
f 25/30/51 27/32/51 26/31/51
f 27/32/52 29/34/52 28/33/52
f 29/34/16 31/36/16 30/35/16
f 31/36/17 33/38/17 32/37/17
f 33/38/18 35/40/18 34/39/18
f 35/40/19 37/42/19 36/41/19
f 37/42/53 39/98/53 38/43/53
f 38/43/54 39/98/54 41/44/54
f 40/45/55 41/44/55 43/46/55
f 42/47/56 43/46/56 45/48/56
f 44/49/24 45/48/24 47/50/24
f 46/51/57 47/50/57 49/52/57
f 48/53/58 49/52/58 51/54/58
f 50/55/59 51/54/59 53/56/59
f 52/57/28 53/56/28 55/58/28
f 54/59/29 55/58/29 57/60/29
f 56/61/60 57/60/60 59/62/60
f 58/63/31 59/62/31 61/64/31
f 60/65/32 61/64/32 63/66/32
f 62/67/33 63/66/33 65/68/33
f 64/69/34 65/68/34 67/70/34
f 66/71/61 67/70/61 69/72/61
f 68/73/62 69/72/62 71/74/62
f 71/74/63 73/77/63 72/76/63
f 73/77/38 75/79/38 74/78/38
f 75/79/39 77/81/39 76/80/39
f 77/81/40 79/83/40 78/82/40
f 79/83/41 81/85/41 80/84/41
f 81/85/42 83/90/42 82/86/42
f 27/99/43 25/100/43 53/101/43
f 25/100/43 23/102/43 55/103/43
f 23/102/43 85/104/43 57/105/43
f 85/104/43 83/106/43 59/107/43
f 83/106/43 81/108/43 59/107/43
f 81/108/43 79/109/43 61/110/43
f 59/107/43 81/108/43 61/110/43
f 79/109/43 77/111/43 63/112/43
f 77/111/43 75/113/43 65/114/43
f 63/112/43 77/111/43 65/114/43
f 75/113/43 73/115/43 69/116/43
f 73/115/43 71/117/43 69/116/43
f 69/116/43 67/118/43 75/113/43
f 67/118/43 65/114/43 75/113/43
f 63/112/43 61/110/43 79/109/43
f 59/107/43 57/105/43 85/104/43
f 57/105/43 55/103/43 23/102/43
f 55/103/43 53/101/43 25/100/43
f 53/101/43 51/119/43 27/99/43
f 51/119/43 49/120/43 27/99/43
f 49/120/43 47/89/43 29/88/43
f 27/99/43 49/120/43 29/88/43
f 47/89/43 45/121/43 31/87/43
f 45/121/43 43/122/43 33/123/43
f 31/87/43 45/121/43 33/123/43
f 43/122/43 41/124/43 35/125/43
f 41/124/64 39/126/64 37/127/64
f 35/125/43 41/124/43 37/127/43
f 35/125/43 33/123/43 43/122/43
f 83/90/65 85/92/65 84/91/65
f 85/92/66 23/128/66 22/93/66
f 84/129/46 22/130/46 54/131/46
f 22/130/46 24/132/46 52/133/46
f 24/132/46 26/134/46 52/133/46
f 26/134/46 28/135/46 50/136/46
f 52/133/46 26/134/46 50/136/46
f 28/135/46 30/137/46 46/138/46
f 30/137/46 32/139/46 44/140/46
f 32/139/46 34/141/46 44/140/46
f 34/141/46 36/142/46 42/143/46
f 44/140/46 34/141/46 42/143/46
f 36/142/67 38/144/67 40/145/67
f 40/145/46 42/143/46 36/142/46
f 44/140/46 46/138/46 30/137/46
f 46/138/46 48/146/46 28/135/46
f 48/146/46 50/136/46 28/135/46
f 52/133/46 54/131/46 22/130/46
f 54/131/46 56/147/46 84/129/46
f 56/147/46 58/148/46 84/129/46
f 58/148/46 60/96/46 82/95/46
f 84/129/46 58/148/46 82/95/46
f 60/96/46 62/149/46 78/150/46
f 62/149/46 64/151/46 76/152/46
f 64/151/46 66/153/46 76/152/46
f 66/153/46 68/154/46 74/155/46
f 76/152/46 66/153/46 74/155/46
f 68/154/46 70/156/46 72/157/46
f 72/157/46 74/155/46 68/154/46
f 76/152/46 78/150/46 62/149/46
f 78/150/46 80/94/46 60/96/46
