# Blender v2.93.0 OBJ File: 'cocina.blend'
# www.blender.org
mtllib mesa_centro_puerta4.mtl
o Cubo.028_Cubo.027
v 0.788341 0.199225 -3.426630
v 0.778341 0.199225 -3.426630
v 0.788341 1.200775 -3.426630
v 0.778341 1.200775 -3.426630
v 0.788341 0.199225 -2.746980
v 0.778341 0.199225 -2.746980
v 0.788341 1.200775 -2.746980
v 0.778341 1.200775 -2.746980
v 0.788341 1.175633 -3.398080
v 0.788341 1.175633 -2.775530
v 0.788341 0.224367 -2.775530
v 0.788341 0.224367 -3.398080
v 0.751151 1.175633 -2.775530
v 0.751151 1.175633 -3.398080
v 0.751151 0.224367 -3.398080
v 0.751151 0.224367 -2.775530
v 0.751151 1.175633 -3.086805
v 0.751151 0.700000 -2.775530
v 0.751151 0.700000 -3.398080
v 0.751151 0.224367 -3.086805
v 0.778341 0.700000 -3.086805
v 0.757877 0.804286 -2.852534
v 0.722442 0.822178 -2.863018
v 0.757446 0.803856 -2.847601
v 0.721667 0.821404 -2.854139
v 0.757032 0.802584 -2.842859
v 0.720921 0.819113 -2.845602
v 0.756650 0.800517 -2.838488
v 0.720234 0.815393 -2.837734
v 0.756315 0.797736 -2.834656
v 0.719631 0.810387 -2.830837
v 0.756041 0.794347 -2.831512
v 0.719137 0.804287 -2.825178
v 0.755837 0.790480 -2.829176
v 0.718770 0.797327 -2.820972
v 0.755711 0.786285 -2.827737
v 0.718543 0.789775 -2.818382
v 0.755669 0.781922 -2.827251
v 0.718467 0.781922 -2.817508
v 0.755711 0.777559 -2.827737
v 0.718543 0.774068 -2.818382
v 0.755837 0.773364 -2.829176
v 0.718770 0.766517 -2.820972
v 0.756041 0.769497 -2.831512
v 0.719137 0.759557 -2.825178
v 0.756315 0.766108 -2.834656
v 0.719631 0.753457 -2.830837
v 0.756650 0.763327 -2.838488
v 0.720234 0.748450 -2.837734
v 0.757032 0.761260 -2.842859
v 0.720921 0.744730 -2.845602
v 0.757446 0.759988 -2.847601
v 0.721667 0.742440 -2.854139
v 0.757877 0.759558 -2.852534
v 0.722442 0.741666 -2.863018
v 0.758308 0.759988 -2.857466
v 0.723218 0.742440 -2.871896
v 0.758722 0.761260 -2.862209
v 0.723964 0.744730 -2.880434
v 0.759104 0.763327 -2.866580
v 0.724651 0.748451 -2.888302
v 0.759439 0.766108 -2.870412
v 0.725253 0.753457 -2.895198
v 0.759713 0.769497 -2.873556
v 0.725748 0.759557 -2.900858
v 0.759917 0.773364 -2.875892
v 0.726115 0.766517 -2.905064
v 0.760043 0.777559 -2.877331
v 0.726341 0.774068 -2.907653
v 0.760086 0.781922 -2.877817
v 0.726418 0.781922 -2.908528
v 0.760043 0.786285 -2.877331
v 0.726341 0.789775 -2.907653
v 0.759917 0.790480 -2.875892
v 0.726115 0.797327 -2.905064
v 0.759713 0.794347 -2.873556
v 0.725748 0.804287 -2.900858
v 0.759439 0.797736 -2.870412
v 0.725253 0.810387 -2.895198
v 0.759104 0.800517 -2.866580
v 0.724651 0.815393 -2.888302
v 0.758722 0.802584 -2.862209
v 0.723964 0.819113 -2.880434
v 0.758308 0.803856 -2.857466
v 0.723218 0.821404 -2.871896
vt 0.514135 0.324570
vt 0.501739 0.336965
vt 0.501739 0.324570
vt 0.514135 0.336965
vt 0.501739 0.349360
vt 0.514135 0.349360
vt 0.501739 0.361755
vt 0.514135 0.361755
vt 0.501739 0.374150
vt 0.501219 0.349671
vt 0.489865 0.361444
vt 0.489865 0.349671
vt 0.526009 0.355558
vt 0.520332 0.361444
vt 0.520332 0.355558
vt 0.489344 0.349360
vt 0.489344 0.361755
vt 0.501219 0.361444
vt 0.526530 0.349360
vt 0.526009 0.349671
vt 0.520332 0.349671
vt 0.526530 0.361755
vt 0.526009 0.361444
vt 0.514655 0.361444
vt 0.514655 0.349671
vt 0.514655 0.355558
vt 0.865367 0.372323
vt 0.863664 0.345072
vt 0.865367 0.345072
vt 0.863664 0.372323
vt 0.861960 0.345072
vt 0.861960 0.372323
vt 0.860257 0.345072
vt 0.860257 0.372323
vt 0.858554 0.345072
vt 0.858554 0.372323
vt 0.856851 0.345072
vt 0.856851 0.372323
vt 0.855148 0.345072
vt 0.855148 0.372323
vt 0.853445 0.345072
vt 0.853445 0.372323
vt 0.851742 0.345072
vt 0.850038 0.372323
vt 0.850038 0.345072
vt 0.848335 0.372323
vt 0.848335 0.345072
vt 0.846632 0.372323
vt 0.846632 0.345072
vt 0.844929 0.372323
vt 0.844929 0.345072
vt 0.843226 0.372323
vt 0.843226 0.345072
vt 0.841523 0.372323
vt 0.841523 0.345072
vt 0.839820 0.372323
vt 0.839820 0.345072
vt 0.838116 0.372323
vt 0.838116 0.345072
vt 0.836413 0.372323
vt 0.836413 0.345072
vt 0.834710 0.372323
vt 0.834710 0.345072
vt 0.833007 0.372323
vt 0.833007 0.345072
vt 0.831304 0.372323
vt 0.831304 0.345072
vt 0.829601 0.372323
vt 0.829601 0.345072
vt 0.827898 0.372323
vt 0.827898 0.345072
vt 0.826194 0.372323
vt 0.826194 0.345072
vt 0.824491 0.372323
vt 0.824491 0.345072
vt 0.822788 0.345072
vt 0.822788 0.372323
vt 0.821085 0.345072
vt 0.821085 0.372323
vt 0.819382 0.345072
vt 0.819382 0.372323
vt 0.817679 0.345072
vt 0.817679 0.372323
vt 0.815976 0.345072
vt 0.815976 0.372323
vt 0.814272 0.345072
vt 0.833740 0.340696
vt 0.831758 0.342323
vt 0.833740 0.322198
vt 0.814272 0.372323
vt 0.812569 0.345072
vt 0.812569 0.372323
vt 0.810866 0.345072
vt 0.513721 0.346859
vt 0.515778 0.347959
vt 0.513721 0.327071
vt 0.514135 0.374150
vt 0.851742 0.372323
vt 0.829497 0.343532
vt 0.827043 0.344276
vt 0.827043 0.318618
vt 0.824491 0.344527
vt 0.824491 0.318367
vt 0.821940 0.344276
vt 0.821940 0.318618
vt 0.819486 0.343532
vt 0.819486 0.319363
vt 0.817224 0.342323
vt 0.815242 0.340696
vt 0.817224 0.320571
vt 0.813616 0.338714
vt 0.815242 0.322198
vt 0.812407 0.336453
vt 0.813616 0.324180
vt 0.811663 0.333999
vt 0.812407 0.326442
vt 0.811411 0.331447
vt 0.811663 0.328895
vt 0.829497 0.319363
vt 0.831758 0.320571
vt 0.835367 0.324180
vt 0.836576 0.326442
vt 0.835367 0.338714
vt 0.837320 0.328895
vt 0.836576 0.336453
vt 0.837572 0.331447
vt 0.837320 0.333999
vt 0.810866 0.372323
vt 0.518011 0.348636
vt 0.520332 0.348865
vt 0.520332 0.325066
vt 0.522654 0.348636
vt 0.522654 0.325295
vt 0.524886 0.347959
vt 0.526943 0.346859
vt 0.524886 0.325972
vt 0.528746 0.345379
vt 0.528746 0.328551
vt 0.530226 0.343576
vt 0.530226 0.330354
vt 0.531326 0.341519
vt 0.532003 0.339287
vt 0.531326 0.332412
vt 0.532231 0.336965
vt 0.532003 0.334644
vt 0.526943 0.327071
vt 0.518011 0.325295
vt 0.515778 0.325972
vt 0.511918 0.328551
vt 0.511918 0.345379
vt 0.510438 0.330354
vt 0.510438 0.343576
vt 0.509339 0.332412
vt 0.508661 0.334644
vt 0.509339 0.341519
vt 0.508433 0.336965
vt 0.508661 0.339287
vn 0.0000 0.0000 -1.0000
vn 0.0000 1.0000 0.0000
vn 0.0000 0.0000 1.0000
vn 0.0000 -1.0000 0.0000
vn 1.0000 0.0000 0.0000
vn -0.9946 0.0569 0.0869
vn -0.6789 0.7342 0.0000
vn -0.7241 0.0000 -0.6896
vn -0.6789 -0.7342 0.0000
vn -0.7241 0.0000 0.6897
vn -1.0000 0.0000 0.0000
vn -0.9946 -0.0569 0.0869
vn 0.4204 0.9000 0.1151
vn 0.3837 0.8830 0.2704
vn 0.3498 0.8348 0.4252
vn 0.3196 0.7533 0.5748
vn 0.2939 0.6372 0.7125
vn 0.2735 0.4868 0.8296
vn 0.2593 0.3064 0.9159
vn 0.2520 0.1046 0.9621
vn 0.2520 -0.1046 0.9621
vn 0.2593 -0.3064 0.9159
vn 0.2736 -0.4868 0.8296
vn 0.2939 -0.6372 0.7125
vn 0.3197 -0.7533 0.5747
vn 0.3498 -0.8348 0.4252
vn 0.3837 -0.8830 0.2704
vn 0.4204 -0.9000 0.1151
vn 0.4592 -0.8876 -0.0372
vn 0.4991 -0.8469 -0.1837
vn 0.5388 -0.7788 -0.3212
vn 0.5768 -0.6842 -0.4463
vn 0.6112 -0.5644 -0.5549
vn 0.6398 -0.4219 -0.6424
vn 0.6604 -0.2612 -0.7040
vn 0.6713 -0.0884 -0.7359
vn 0.6713 0.0884 -0.7359
vn 0.6604 0.2612 -0.7040
vn 0.6398 0.4219 -0.6424
vn 0.6112 0.5644 -0.5549
vn 0.5768 0.6842 -0.4463
vn 0.5388 0.7788 -0.3212
vn -0.9962 0.0000 -0.0870
vn 0.4990 0.8469 -0.1836
vn 0.4592 0.8876 -0.0373
vn 0.9962 0.0000 0.0870
vn -0.7241 0.0000 -0.6897
vn -0.7242 0.0000 -0.6896
vn -0.9946 0.0569 -0.0869
vn -0.9946 -0.0569 -0.0869
vn 0.3837 0.8830 0.2705
vn 0.2520 0.1047 0.9621
vn 0.2520 -0.1047 0.9621
vn 0.2593 -0.3063 0.9159
vn 0.2735 -0.4868 0.8296
vn 0.3196 -0.7533 0.5748
vn 0.3836 -0.8830 0.2705
vn 0.4990 -0.8469 -0.1837
vn 0.6713 -0.0885 -0.7359
vn 0.6713 0.0885 -0.7359
vn 0.6398 0.4219 -0.6423
vn 0.6112 0.5643 -0.5549
vn 0.4592 0.8876 -0.0372
vn 0.9962 0.0000 0.0871
usemtl Material.004
s off
f 2/1/1 3/2/1 1/3/1
f 4/4/2 7/5/2 3/2/2
f 8/6/3 5/7/3 7/5/3
f 6/8/4 1/9/4 5/7/4
f 10/10/5 12/11/5 9/12/5
f 19/13/6 20/14/6 21/15/6
f 7/5/5 9/12/5 3/16/5
f 5/7/5 10/10/5 7/5/5
f 1/17/5 11/18/5 5/7/5
f 3/16/5 12/11/5 1/17/5
f 4/19/7 14/20/7 17/21/7
f 2/22/8 15/23/8 19/13/8
f 6/8/9 16/24/9 20/14/9
f 8/6/10 13/25/10 18/26/10
f 18/26/11 20/14/11 16/24/11
f 17/21/11 18/26/11 13/25/11
f 17/21/12 19/13/12 21/15/12
f 23/27/13 24/28/13 22/29/13
f 25/30/14 26/31/14 24/28/14
f 27/32/15 28/33/15 26/31/15
f 29/34/16 30/35/16 28/33/16
f 31/36/17 32/37/17 30/35/17
f 33/38/18 34/39/18 32/37/18
f 35/40/19 36/41/19 34/39/19
f 37/42/20 38/43/20 36/41/20
f 38/43/21 41/44/21 40/45/21
f 40/45/22 43/46/22 42/47/22
f 42/47/23 45/48/23 44/49/23
f 44/49/24 47/50/24 46/51/24
f 46/51/25 49/52/25 48/53/25
f 48/53/26 51/54/26 50/55/26
f 50/55/27 53/56/27 52/57/27
f 52/57/28 55/58/28 54/59/28
f 54/59/29 57/60/29 56/61/29
f 56/61/30 59/62/30 58/63/30
f 58/63/31 61/64/31 60/65/31
f 60/65/32 63/66/32 62/67/32
f 62/67/33 65/68/33 64/69/33
f 64/69/34 67/70/34 66/71/34
f 66/71/35 69/72/35 68/73/35
f 68/73/36 71/74/36 70/75/36
f 71/74/37 72/76/37 70/75/37
f 73/77/38 74/78/38 72/76/38
f 75/79/39 76/80/39 74/78/39
f 77/81/40 78/82/40 76/80/40
f 79/83/41 80/84/41 78/82/41
f 81/85/42 82/86/42 80/84/42
f 31/87/43 29/88/43 47/89/43
f 83/90/44 84/91/44 82/86/44
f 85/92/45 22/93/45 84/91/45
f 80/94/46 82/95/46 60/96/46
f 2/1/1 4/4/1 3/2/1
f 4/4/2 8/6/2 7/5/2
f 8/6/3 6/8/3 5/7/3
f 6/8/4 2/97/4 1/9/4
f 10/10/5 11/18/5 12/11/5
f 19/13/11 15/23/11 20/14/11
f 7/5/5 10/10/5 9/12/5
f 5/7/5 11/18/5 10/10/5
f 1/17/5 12/11/5 11/18/5
f 3/16/5 9/12/5 12/11/5
f 13/25/7 8/6/7 17/21/7
f 8/6/7 4/19/7 17/21/7
f 14/20/47 4/19/47 19/13/47
f 4/19/48 2/22/48 19/13/48
f 15/23/9 2/22/9 20/14/9
f 2/22/9 6/8/9 20/14/9
f 16/24/10 6/8/10 18/26/10
f 6/8/10 8/6/10 18/26/10
f 18/26/49 21/15/49 20/14/49
f 17/21/50 21/15/50 18/26/50
f 17/21/11 14/20/11 19/13/11
f 23/27/13 25/30/13 24/28/13
f 25/30/51 27/32/51 26/31/51
f 27/32/15 29/34/15 28/33/15
f 29/34/16 31/36/16 30/35/16
f 31/36/17 33/38/17 32/37/17
f 33/38/18 35/40/18 34/39/18
f 35/40/19 37/42/19 36/41/19
f 37/42/52 39/98/52 38/43/52
f 38/43/53 39/98/53 41/44/53
f 40/45/54 41/44/54 43/46/54
f 42/47/55 43/46/55 45/48/55
f 44/49/24 45/48/24 47/50/24
f 46/51/56 47/50/56 49/52/56
f 48/53/26 49/52/26 51/54/26
f 50/55/57 51/54/57 53/56/57
f 52/57/28 53/56/28 55/58/28
f 54/59/29 55/58/29 57/60/29
f 56/61/58 57/60/58 59/62/58
f 58/63/31 59/62/31 61/64/31
f 60/65/32 61/64/32 63/66/32
f 62/67/33 63/66/33 65/68/33
f 64/69/34 65/68/34 67/70/34
f 66/71/35 67/70/35 69/72/35
f 68/73/59 69/72/59 71/74/59
f 71/74/60 73/77/60 72/76/60
f 73/77/38 75/79/38 74/78/38
f 75/79/61 77/81/61 76/80/61
f 77/81/62 79/83/62 78/82/62
f 79/83/41 81/85/41 80/84/41
f 81/85/42 83/90/42 82/86/42
f 27/99/43 25/100/43 53/101/43
f 25/100/43 23/102/43 55/103/43
f 23/102/43 85/104/43 57/105/43
f 85/104/43 83/106/43 59/107/43
f 83/106/43 81/108/43 59/107/43
f 81/108/43 79/109/43 61/110/43
f 59/107/43 81/108/43 61/110/43
f 79/109/43 77/111/43 63/112/43
f 77/111/43 75/113/43 65/114/43
f 63/112/43 77/111/43 65/114/43
f 75/113/43 73/115/43 67/116/43
f 73/115/43 71/117/43 69/118/43
f 67/116/43 73/115/43 69/118/43
f 67/116/43 65/114/43 75/113/43
f 63/112/43 61/110/43 79/109/43
f 59/107/43 57/105/43 85/104/43
f 57/105/43 55/103/43 23/102/43
f 55/103/43 53/101/43 25/100/43
f 53/101/43 51/119/43 27/99/43
f 51/119/43 49/120/43 27/99/43
f 49/120/43 47/89/43 29/88/43
f 27/99/43 49/120/43 29/88/43
f 47/89/43 45/121/43 31/87/43
f 45/121/43 43/122/43 33/123/43
f 31/87/43 45/121/43 33/123/43
f 43/122/43 41/124/43 35/125/43
f 41/124/43 39/126/43 37/127/43
f 35/125/43 41/124/43 37/127/43
f 35/125/43 33/123/43 43/122/43
f 83/90/44 85/92/44 84/91/44
f 85/92/63 23/128/63 22/93/63
f 84/129/46 22/130/46 54/131/46
f 22/130/46 24/132/46 52/133/46
f 24/132/46 26/134/46 52/133/46
f 26/134/46 28/135/46 50/136/46
f 52/133/46 26/134/46 50/136/46
f 28/135/46 30/137/46 46/138/46
f 30/137/46 32/139/46 44/140/46
f 32/139/46 34/141/46 44/140/46
f 34/141/46 36/142/46 42/143/46
f 44/140/46 34/141/46 42/143/46
f 36/142/64 38/144/64 40/145/64
f 40/145/46 42/143/46 36/142/46
f 44/140/46 46/138/46 30/137/46
f 46/138/46 48/146/46 28/135/46
f 48/146/46 50/136/46 28/135/46
f 52/133/46 54/131/46 22/130/46
f 54/131/46 56/147/46 84/129/46
f 56/147/46 58/148/46 84/129/46
f 58/148/46 60/96/46 82/95/46
f 84/129/46 58/148/46 82/95/46
f 60/96/46 62/149/46 78/150/46
f 62/149/46 64/151/46 76/152/46
f 64/151/46 66/153/46 76/152/46
f 66/153/46 68/154/46 74/155/46
f 76/152/46 66/153/46 74/155/46
f 68/154/46 70/156/46 72/157/46
f 72/157/46 74/155/46 68/154/46
f 76/152/46 78/150/46 62/149/46
f 78/150/46 80/94/46 60/96/46
