# Blender v2.93.0 OBJ File: 'cocina.blend'
# www.blender.org
mtllib olla_1.mtl
o Cilindro.009
v 1.374975 1.574846 -2.524146
v 1.374975 1.874846 -2.514574
v 1.418870 1.574846 -2.519822
v 1.417003 1.874846 -2.510434
v 1.461079 1.574846 -2.507019
v 1.457415 1.874846 -2.498175
v 1.499978 1.574846 -2.486226
v 1.494660 1.874846 -2.478267
v 1.534074 1.574846 -2.458245
v 1.527305 1.874846 -2.451476
v 1.562055 1.574846 -2.424149
v 1.554096 1.874846 -2.418831
v 1.582848 1.574846 -2.385249
v 1.574004 1.874846 -2.381586
v 1.595651 1.574846 -2.343041
v 1.586263 1.874846 -2.341174
v 1.599975 1.574846 -2.299146
v 1.590402 1.874846 -2.299146
v 1.595651 1.574846 -2.255250
v 1.586263 1.874846 -2.257118
v 1.582848 1.574846 -2.213042
v 1.574004 1.874846 -2.216705
v 1.562055 1.574846 -2.174142
v 1.554096 1.874846 -2.179461
v 1.534074 1.574846 -2.140047
v 1.527305 1.874846 -2.146815
v 1.499978 1.574846 -2.112065
v 1.494660 1.874846 -2.120024
v 1.461079 1.574846 -2.091273
v 1.457415 1.874846 -2.100116
v 1.418870 1.574846 -2.078469
v 1.417003 1.874846 -2.087857
v 1.374975 1.574846 -2.074146
v 1.374975 1.874846 -2.083718
v 1.331079 1.574846 -2.078469
v 1.332947 1.874846 -2.087857
v 1.288871 1.574846 -2.091273
v 1.292534 1.874846 -2.100116
v 1.249971 1.574846 -2.112065
v 1.255289 1.874846 -2.120024
v 1.215876 1.574846 -2.140047
v 1.222644 1.874846 -2.146815
v 1.187894 1.574846 -2.174142
v 1.195853 1.874846 -2.179460
v 1.167102 1.574846 -2.213042
v 1.175945 1.874846 -2.216705
v 1.154298 1.574846 -2.255250
v 1.163686 1.874846 -2.257118
v 1.149975 1.574846 -2.299146
v 1.159547 1.874846 -2.299146
v 1.154298 1.574846 -2.343041
v 1.163686 1.874846 -2.341174
v 1.167102 1.574846 -2.385250
v 1.175945 1.874846 -2.381586
v 1.187894 1.574846 -2.424149
v 1.195853 1.874846 -2.418831
v 1.215876 1.574846 -2.458245
v 1.222644 1.874846 -2.451476
v 1.249971 1.574846 -2.486226
v 1.255289 1.874846 -2.478267
v 1.288871 1.574846 -2.507019
v 1.292534 1.874846 -2.498175
v 1.331079 1.574846 -2.519822
v 1.332947 1.874846 -2.510434
v 1.418870 1.874846 -2.519822
v 1.374975 1.874846 -2.524146
v 1.461079 1.874846 -2.507019
v 1.499978 1.874846 -2.486226
v 1.534074 1.874846 -2.458245
v 1.562055 1.874846 -2.424149
v 1.582848 1.874846 -2.385249
v 1.595651 1.874846 -2.343041
v 1.599975 1.874846 -2.299146
v 1.595651 1.874846 -2.255250
v 1.582848 1.874846 -2.213042
v 1.562055 1.874846 -2.174142
v 1.534074 1.874846 -2.140047
v 1.499978 1.874846 -2.112065
v 1.461079 1.874846 -2.091273
v 1.418870 1.874846 -2.078469
v 1.374975 1.874846 -2.074146
v 1.331079 1.874846 -2.078469
v 1.288871 1.874846 -2.091273
v 1.249971 1.874846 -2.112065
v 1.215876 1.874846 -2.140047
v 1.187894 1.874846 -2.174142
v 1.167102 1.874846 -2.213042
v 1.154298 1.874846 -2.255250
v 1.149975 1.874846 -2.299146
v 1.154298 1.874846 -2.343041
v 1.167102 1.874846 -2.385250
v 1.187894 1.874846 -2.424149
v 1.215876 1.874846 -2.458245
v 1.249971 1.874846 -2.486226
v 1.288871 1.874846 -2.507019
v 1.331079 1.874846 -2.519822
v 1.417003 1.598219 -2.510434
v 1.374975 1.598219 -2.514574
v 1.457415 1.598219 -2.498175
v 1.494660 1.598219 -2.478267
v 1.527305 1.598219 -2.451476
v 1.554096 1.598219 -2.418831
v 1.574004 1.598219 -2.381586
v 1.586263 1.598219 -2.341174
v 1.590402 1.598219 -2.299146
v 1.586263 1.598219 -2.257118
v 1.574004 1.598219 -2.216705
v 1.554096 1.598219 -2.179461
v 1.527305 1.598219 -2.146815
v 1.494660 1.598219 -2.120024
v 1.457415 1.598219 -2.100116
v 1.417003 1.598219 -2.087857
v 1.374975 1.598219 -2.083718
v 1.332947 1.598219 -2.087857
v 1.292534 1.598219 -2.100116
v 1.255289 1.598219 -2.120024
v 1.222644 1.598219 -2.146815
v 1.195853 1.598219 -2.179460
v 1.175945 1.598219 -2.216705
v 1.163686 1.598219 -2.257118
v 1.159547 1.598219 -2.299146
v 1.163686 1.598219 -2.341174
v 1.175945 1.598219 -2.381586
v 1.195853 1.598219 -2.418831
v 1.222644 1.598219 -2.451476
v 1.255289 1.598219 -2.478267
v 1.292534 1.598219 -2.498175
v 1.332947 1.598219 -2.510434
v 1.374975 1.867091 -2.524146
v 1.418870 1.867091 -2.519822
v 1.461079 1.867091 -2.507019
v 1.499978 1.867091 -2.486226
v 1.534074 1.867091 -2.458245
v 1.562055 1.867091 -2.424149
v 1.582848 1.867091 -2.385249
v 1.595651 1.867091 -2.343041
v 1.599975 1.867091 -2.299146
v 1.595651 1.867091 -2.255250
v 1.582848 1.867091 -2.213042
v 1.562055 1.867091 -2.174142
v 1.534074 1.867091 -2.140047
v 1.499978 1.867091 -2.112065
v 1.461079 1.867091 -2.091273
v 1.418870 1.867091 -2.078469
v 1.374975 1.867091 -2.074146
v 1.331079 1.867091 -2.078469
v 1.288871 1.867091 -2.091273
v 1.249971 1.867091 -2.112065
v 1.215876 1.867091 -2.140047
v 1.187894 1.867091 -2.174142
v 1.167102 1.867091 -2.213042
v 1.154298 1.867091 -2.255250
v 1.149975 1.867091 -2.299146
v 1.154298 1.867091 -2.343041
v 1.167102 1.867091 -2.385250
v 1.187894 1.867091 -2.424149
v 1.215876 1.867091 -2.458245
v 1.249971 1.867091 -2.486226
v 1.288871 1.867091 -2.507019
v 1.331079 1.867091 -2.519822
v 1.418870 1.852758 -2.519822
v 1.461079 1.852758 -2.507019
v 1.499978 1.852758 -2.486226
v 1.534074 1.852758 -2.458245
v 1.562055 1.852758 -2.424149
v 1.582848 1.852758 -2.385249
v 1.595651 1.852758 -2.343041
v 1.599975 1.852758 -2.299146
v 1.595651 1.852758 -2.255250
v 1.582848 1.852758 -2.213042
v 1.562055 1.852758 -2.174142
v 1.534074 1.852758 -2.140047
v 1.499978 1.852758 -2.112065
v 1.461079 1.852758 -2.091273
v 1.418870 1.852758 -2.078469
v 1.374975 1.852758 -2.074146
v 1.331079 1.852758 -2.078469
v 1.288871 1.852758 -2.091273
v 1.249971 1.852758 -2.112065
v 1.215876 1.852758 -2.140047
v 1.187894 1.852758 -2.174142
v 1.167102 1.852758 -2.213042
v 1.154298 1.852758 -2.255250
v 1.149975 1.852758 -2.299146
v 1.154298 1.852758 -2.343041
v 1.167102 1.852758 -2.385250
v 1.187894 1.852758 -2.424149
v 1.215876 1.852758 -2.458245
v 1.249971 1.852758 -2.486226
v 1.288871 1.852758 -2.507019
v 1.331079 1.852758 -2.519822
v 1.374975 1.852758 -2.524146
v 1.661920 1.867091 -2.370490
v 1.666243 1.867091 -2.326595
v 1.600342 1.867091 -2.485694
v 1.628324 1.867091 -2.451598
v 1.600342 1.852758 -2.485694
v 1.628324 1.852758 -2.451598
v 1.661920 1.852758 -2.370490
v 1.666243 1.852758 -2.326595
v 1.562055 1.859924 -2.424149
v 1.595190 1.852758 -2.437874
v 1.595190 1.867091 -2.437874
v 1.595190 1.859924 -2.437874
v 1.595651 1.867091 -2.343041
v 1.595651 1.852758 -2.343041
v 1.661920 1.867091 -2.370490
v 1.661920 1.852758 -2.370490
v 1.595651 1.859924 -2.343041
v 1.628786 1.867091 -2.356766
v 1.628786 1.852758 -2.356766
v 1.628786 1.859924 -2.356766
v 1.089271 1.867091 -2.228315
v 1.084948 1.867091 -2.272211
v 1.150849 1.867091 -2.113112
v 1.122867 1.867091 -2.147207
v 1.150849 1.852758 -2.113112
v 1.122867 1.852758 -2.147207
v 1.089271 1.852758 -2.228315
v 1.084948 1.852758 -2.272211
v 1.154298 1.859924 -2.255250
v 1.121785 1.852758 -2.241783
v 1.121785 1.867091 -2.241783
v 1.121785 1.859924 -2.241783
v 1.187894 1.859924 -2.174142
v 1.155381 1.852758 -2.160675
v 1.155381 1.867091 -2.160675
v 1.155381 1.859924 -2.160675
vt 0.528810 0.381233
vt 0.528810 0.381912
vt 0.527167 0.381912
vt 0.527167 0.381233
vt 0.525523 0.381912
vt 0.525523 0.381233
vt 0.523880 0.381912
vt 0.523880 0.381233
vt 0.522237 0.381912
vt 0.522237 0.381233
vt 0.520594 0.381912
vt 0.520594 0.381233
vt 0.518951 0.381912
vt 0.518951 0.381233
vt 0.517308 0.381912
vt 0.517308 0.381233
vt 0.515665 0.381912
vt 0.515665 0.381233
vt 0.514022 0.381912
vt 0.514022 0.381233
vt 0.512379 0.381912
vt 0.512379 0.381233
vt 0.510735 0.381912
vt 0.510735 0.381233
vt 0.509092 0.381912
vt 0.509092 0.381233
vt 0.507449 0.381912
vt 0.507449 0.381233
vt 0.505806 0.381912
vt 0.505806 0.381233
vt 0.504163 0.381912
vt 0.504163 0.381233
vt 0.502520 0.381912
vt 0.502520 0.381233
vt 0.500877 0.381912
vt 0.500877 0.381233
vt 0.499234 0.381912
vt 0.499234 0.381233
vt 0.497591 0.381912
vt 0.497591 0.381233
vt 0.495947 0.381912
vt 0.495947 0.381233
vt 0.494304 0.381912
vt 0.494304 0.381233
vt 0.492661 0.381912
vt 0.492661 0.381233
vt 0.491018 0.381912
vt 0.491018 0.381233
vt 0.489375 0.381912
vt 0.489375 0.381233
vt 0.487732 0.381912
vt 0.487732 0.381233
vt 0.486089 0.381912
vt 0.486089 0.381233
vt 0.484446 0.381912
vt 0.484446 0.381233
vt 0.482802 0.381912
vt 0.482802 0.381233
vt 0.481159 0.381912
vt 0.481159 0.381233
vt 0.479516 0.381912
vt 0.479516 0.381233
vt 0.482662 0.352523
vt 0.480831 0.351021
vt 0.480831 0.351021
vt 0.482662 0.352523
vt 0.477873 0.381912
vt 0.477873 0.381233
vt 0.476230 0.381912
vt 0.476230 0.381233
vt 0.515665 0.355097
vt 0.518127 0.354854
vt 0.520494 0.354136
vt 0.522676 0.352970
vt 0.524588 0.351400
vt 0.526157 0.349488
vt 0.527323 0.347307
vt 0.528041 0.344939
vt 0.528284 0.342477
vt 0.528041 0.340016
vt 0.527323 0.337648
vt 0.526157 0.335467
vt 0.524588 0.333554
vt 0.522676 0.331985
vt 0.520494 0.330819
vt 0.518127 0.330101
vt 0.515665 0.329858
vt 0.513203 0.330101
vt 0.510836 0.330819
vt 0.508654 0.331985
vt 0.506742 0.333554
vt 0.505172 0.335467
vt 0.504006 0.337648
vt 0.503288 0.340016
vt 0.503046 0.342477
vt 0.503288 0.344939
vt 0.504006 0.347307
vt 0.505172 0.349488
vt 0.506742 0.351400
vt 0.508654 0.352970
vt 0.510836 0.354136
vt 0.513203 0.354854
vt 0.489375 0.354560
vt 0.491732 0.354327
vt 0.491837 0.354854
vt 0.489375 0.355097
vt 0.493999 0.353640
vt 0.494204 0.354136
vt 0.496087 0.352523
vt 0.496386 0.352970
vt 0.497918 0.351021
vt 0.498298 0.351400
vt 0.499421 0.349190
vt 0.499867 0.349488
vt 0.500538 0.347101
vt 0.501033 0.347307
vt 0.501225 0.344835
vt 0.501752 0.344939
vt 0.501457 0.342477
vt 0.501994 0.342477
vt 0.501225 0.340120
vt 0.501752 0.340016
vt 0.500538 0.337854
vt 0.501033 0.337648
vt 0.499421 0.335765
vt 0.499867 0.335467
vt 0.497918 0.333934
vt 0.498298 0.333554
vt 0.496087 0.332431
vt 0.496386 0.331985
vt 0.493999 0.331315
vt 0.494204 0.330819
vt 0.491732 0.330627
vt 0.491837 0.330101
vt 0.489375 0.330395
vt 0.489375 0.329858
vt 0.487018 0.330627
vt 0.486913 0.330101
vt 0.484751 0.331315
vt 0.484546 0.330819
vt 0.482662 0.332431
vt 0.482364 0.331985
vt 0.480831 0.333934
vt 0.480452 0.333554
vt 0.479329 0.335765
vt 0.478882 0.335467
vt 0.478212 0.337854
vt 0.477716 0.337648
vt 0.477525 0.340120
vt 0.476998 0.340016
vt 0.477293 0.342477
vt 0.476756 0.342477
vt 0.477525 0.344835
vt 0.476998 0.344939
vt 0.478212 0.347101
vt 0.477716 0.347307
vt 0.479329 0.349190
vt 0.478882 0.349488
vt 0.480452 0.351400
vt 0.482364 0.352970
vt 0.484751 0.353640
vt 0.484546 0.354136
vt 0.487018 0.354327
vt 0.486913 0.354854
vt 0.491732 0.354327
vt 0.489375 0.354560
vt 0.487018 0.354327
vt 0.484751 0.353640
vt 0.479329 0.349190
vt 0.478212 0.347101
vt 0.477525 0.344835
vt 0.477293 0.342477
vt 0.477525 0.340120
vt 0.478212 0.337854
vt 0.479329 0.335765
vt 0.480831 0.333934
vt 0.482662 0.332431
vt 0.484751 0.331315
vt 0.487018 0.330627
vt 0.489375 0.330395
vt 0.491732 0.330627
vt 0.493999 0.331315
vt 0.496087 0.332431
vt 0.497918 0.333934
vt 0.499421 0.335765
vt 0.500538 0.337854
vt 0.501225 0.340120
vt 0.501457 0.342477
vt 0.501225 0.344835
vt 0.500538 0.347101
vt 0.499421 0.349190
vt 0.497918 0.351021
vt 0.496087 0.352523
vt 0.493999 0.353640
vt 0.477873 0.379977
vt 0.476230 0.379977
vt 0.479516 0.379977
vt 0.481159 0.379977
vt 0.482802 0.379977
vt 0.484446 0.379977
vt 0.486089 0.379977
vt 0.487732 0.379977
vt 0.489375 0.379977
vt 0.818928 0.338356
vt 0.818928 0.338356
vt 0.818928 0.338356
vt 0.818928 0.338356
vt 0.818928 0.338356
vt 0.818928 0.338356
vt 0.492661 0.379977
vt 0.491018 0.380605
vt 0.491018 0.379977
vt 0.494304 0.379977
vt 0.494304 0.380605
vt 0.832073 0.389000
vt 0.833717 0.389000
vt 0.833717 0.389000
vt 0.833717 0.389000
vt 0.832073 0.389000
vt 0.497590 0.379977
vt 0.495947 0.379977
vt 0.499234 0.379977
vt 0.500877 0.379977
vt 0.502520 0.379977
vt 0.504163 0.379977
vt 0.505806 0.379977
vt 0.507449 0.379977
vt 0.509092 0.379977
vt 0.510735 0.379977
vt 0.512379 0.379977
vt 0.514022 0.379977
vt 0.515665 0.379977
vt 0.833054 0.350650
vt 0.834698 0.350650
vt 0.834698 0.350650
vt 0.833054 0.350650
vt 0.833054 0.350650
vt 0.518951 0.379977
vt 0.517308 0.379977
vt 0.520594 0.379977
vt 0.520594 0.380605
vt 0.855843 0.363185
vt 0.828125 0.350650
vt 0.828125 0.350650
vt 0.828125 0.351906
vt 0.523880 0.379977
vt 0.522237 0.379977
vt 0.525523 0.379977
vt 0.527167 0.379977
vt 0.528810 0.379977
vt 0.528810 0.355622
vt 0.527167 0.355622
vt 0.525523 0.355622
vt 0.523880 0.355622
vt 0.522237 0.355622
vt 0.520594 0.355622
vt 0.518951 0.355622
vt 0.517308 0.355622
vt 0.515665 0.355622
vt 0.514022 0.355622
vt 0.512379 0.355622
vt 0.510735 0.355622
vt 0.509092 0.355622
vt 0.507449 0.355622
vt 0.505806 0.355622
vt 0.504163 0.355622
vt 0.502520 0.355622
vt 0.500877 0.355622
vt 0.499234 0.355622
vt 0.497591 0.355622
vt 0.495947 0.355622
vt 0.494304 0.355622
vt 0.492661 0.355622
vt 0.491018 0.355622
vt 0.489375 0.355622
vt 0.487732 0.355622
vt 0.486089 0.355622
vt 0.484446 0.355622
vt 0.482802 0.355622
vt 0.481159 0.355622
vt 0.479516 0.355622
vt 0.477873 0.355622
vt 0.476230 0.355622
vt 0.829768 0.350650
vt 0.829768 0.351906
vt 0.834698 0.351906
vt 0.833054 0.351906
vt 0.829768 0.351906
vt 0.522237 0.381233
vt 0.522237 0.379977
vt 0.829768 0.350650
vt 0.517308 0.381233
vt 0.517308 0.380605
vt 0.517308 0.379977
vt 0.834698 0.351906
vt 0.833054 0.351906
vt 0.833054 0.351906
vt 0.829768 0.351906
vt 0.829768 0.351906
vt 0.829768 0.351278
vt 0.829768 0.350650
vt 0.829768 0.350650
vt 0.833054 0.356418
vt 0.833054 0.355790
vt 0.833054 0.355790
vt 0.833054 0.356418
vt 0.833054 0.355162
vt 0.833054 0.355162
vt 0.829768 0.350650
vt 0.829768 0.351906
vt 0.819689 0.368697
vt 0.819689 0.369325
vt 0.819689 0.369325
vt 0.819689 0.368697
vt 0.819689 0.369953
vt 0.819689 0.369953
vt 0.833054 0.351278
vt 0.517308 0.381233
vt 0.517308 0.379977
vt 0.520594 0.379977
vt 0.520594 0.381233
vt 0.833717 0.390256
vt 0.832073 0.390256
vt 0.838646 0.389000
vt 0.838646 0.390256
vt 0.837003 0.390256
vt 0.837003 0.389000
vt 0.833717 0.390256
vt 0.832073 0.390256
vt 0.833717 0.390256
vt 0.838646 0.390256
vt 0.837003 0.390256
vt 0.837003 0.390256
vt 0.837003 0.389000
vt 0.838646 0.389000
vt 0.837003 0.389000
vt 0.837003 0.389628
vt 0.833717 0.389628
vt 0.833717 0.389628
vt 0.494304 0.380605
vt 0.494304 0.381233
vt 0.494304 0.379977
vn 0.0980 0.0000 -0.9952
vn 0.2903 0.0000 -0.9569
vn 0.4714 0.0000 -0.8819
vn 0.6344 0.0000 -0.7730
vn 0.7730 0.0000 -0.6344
vn 0.8819 0.0000 -0.4714
vn 0.9569 0.0000 -0.2903
vn 0.9952 0.0000 -0.0980
vn 0.9952 0.0000 0.0980
vn 0.9569 0.0000 0.2903
vn 0.8819 0.0000 0.4714
vn 0.7730 0.0000 0.6344
vn 0.6344 0.0000 0.7730
vn 0.4714 0.0000 0.8819
vn 0.2903 0.0000 0.9569
vn 0.0980 0.0000 0.9952
vn -0.0980 0.0000 0.9952
vn -0.2903 0.0000 0.9569
vn -0.4714 0.0000 0.8819
vn -0.6344 0.0000 0.7730
vn -0.7730 0.0000 0.6344
vn -0.8819 0.0000 0.4714
vn -0.9569 0.0000 0.2903
vn -0.9952 0.0000 0.0980
vn -0.9952 0.0000 -0.0980
vn -0.9569 0.0000 -0.2903
vn -0.8819 0.0000 -0.4714
vn -0.7730 0.0000 -0.6344
vn -0.6344 0.0000 -0.7730
vn -0.4714 0.0000 -0.8819
vn -0.2903 0.0000 -0.9569
vn -0.0980 0.0000 -0.9952
vn 0.0000 -1.0000 -0.0000
vn 0.0000 1.0000 0.0000
vn -0.9239 0.0000 0.3827
vn 0.3827 0.0000 0.9239
vn -0.3827 0.0000 -0.9239
vn 0.0000 0.0000 1.0000
vn 0.9239 0.0000 -0.3827
usemtl Material.004
s off
f 129/1/1 66/2/1 65/3/1 130/4/1
f 130/4/2 65/3/2 67/5/2 131/6/2
f 131/6/3 67/5/3 68/7/3 132/8/3
f 132/8/4 68/7/4 69/9/4 133/10/4
f 133/10/5 69/9/5 70/11/5 134/12/5
f 134/12/6 70/11/6 71/13/6 135/14/6
f 135/14/7 71/13/7 72/15/7 136/16/7
f 136/16/8 72/15/8 73/17/8 137/18/8
f 137/18/9 73/17/9 74/19/9 138/20/9
f 138/20/10 74/19/10 75/21/10 139/22/10
f 139/22/11 75/21/11 76/23/11 140/24/11
f 140/24/12 76/23/12 77/25/12 141/26/12
f 141/26/13 77/25/13 78/27/13 142/28/13
f 142/28/14 78/27/14 79/29/14 143/30/14
f 143/30/15 79/29/15 80/31/15 144/32/15
f 144/32/16 80/31/16 81/33/16 145/34/16
f 145/34/17 81/33/17 82/35/17 146/36/17
f 146/36/18 82/35/18 83/37/18 147/38/18
f 147/38/19 83/37/19 84/39/19 148/40/19
f 148/40/20 84/39/20 85/41/20 149/42/20
f 149/42/21 85/41/21 86/43/21 150/44/21
f 150/44/22 86/43/22 87/45/22 151/46/22
f 151/46/23 87/45/23 88/47/23 152/48/23
f 152/48/24 88/47/24 89/49/24 153/50/24
f 153/50/25 89/49/25 90/51/25 154/52/25
f 154/52/26 90/51/26 91/53/26 155/54/26
f 155/54/27 91/53/27 92/55/27 156/56/27
f 156/56/28 92/55/28 93/57/28 157/58/28
f 157/58/29 93/57/29 94/59/29 158/60/29
f 158/60/30 94/59/30 95/61/30 159/62/30
f 60/63/13 58/64/13 125/65/13 126/66/13
f 159/62/31 95/61/31 96/67/31 160/68/31
f 160/68/32 96/67/32 66/69/32 129/70/32
f 1/71/33 3/72/33 5/73/33 7/74/33 9/75/33 11/76/33 13/77/33 15/78/33 17/79/33 19/80/33 21/81/33 23/82/33 25/83/33 27/84/33 29/85/33 31/86/33 33/87/33 35/88/33 37/89/33 39/90/33 41/91/33 43/92/33 45/93/33 47/94/33 49/95/33 51/96/33 53/97/33 55/98/33 57/99/33 59/100/33 61/101/33 63/102/33
f 2/103/34 4/104/34 65/105/34 66/106/34
f 4/104/34 6/107/34 67/108/34 65/105/34
f 6/107/34 8/109/34 68/110/34 67/108/34
f 8/109/34 10/111/34 69/112/34 68/110/34
f 10/111/34 12/113/34 70/114/34 69/112/34
f 12/113/34 14/115/34 71/116/34 70/114/34
f 14/115/34 16/117/34 72/118/34 71/116/34
f 16/117/34 18/119/34 73/120/34 72/118/34
f 18/119/34 20/121/34 74/122/34 73/120/34
f 20/121/34 22/123/34 75/124/34 74/122/34
f 22/123/34 24/125/34 76/126/34 75/124/34
f 24/125/34 26/127/34 77/128/34 76/126/34
f 26/127/34 28/129/34 78/130/34 77/128/34
f 28/129/34 30/131/34 79/132/34 78/130/34
f 30/131/34 32/133/34 80/134/34 79/132/34
f 32/133/34 34/135/34 81/136/34 80/134/34
f 34/135/34 36/137/34 82/138/34 81/136/34
f 36/137/34 38/139/34 83/140/34 82/138/34
f 38/139/34 40/141/34 84/142/34 83/140/34
f 40/141/34 42/143/34 85/144/34 84/142/34
f 42/143/34 44/145/34 86/146/34 85/144/34
f 44/145/34 46/147/34 87/148/34 86/146/34
f 46/147/34 48/149/34 88/150/34 87/148/34
f 48/149/34 50/151/34 89/152/34 88/150/34
f 50/151/34 52/153/34 90/154/34 89/152/34
f 52/153/34 54/155/34 91/156/34 90/154/34
f 54/155/34 56/157/34 92/158/34 91/156/34
f 56/157/34 58/64/34 93/159/34 92/158/34
f 58/64/34 60/63/34 94/160/34 93/159/34
f 60/63/34 62/161/34 95/162/34 94/160/34
f 62/161/34 64/163/34 96/164/34 95/162/34
f 64/163/34 2/103/34 66/106/34 96/164/34
f 97/165/34 98/166/34 128/167/34 127/168/34 126/66/34 125/65/34 124/169/34 123/170/34 122/171/34 121/172/34 120/173/34 119/174/34 118/175/34 117/176/34 116/177/34 115/178/34 114/179/34 113/180/34 112/181/34 111/182/34 110/183/34 109/184/34 108/185/34 107/186/34 106/187/34 105/188/34 104/189/34 103/190/34 102/191/34 101/192/34 100/193/34 99/194/34
f 34/135/32 32/133/32 112/181/32 113/180/32
f 8/109/19 6/107/19 99/194/19 100/193/19
f 62/161/14 60/63/14 126/66/14 127/168/14
f 36/137/1 34/135/1 113/180/1 114/179/1
f 10/111/20 8/109/20 100/193/20 101/192/20
f 64/163/15 62/161/15 127/168/15 128/167/15
f 38/139/2 36/137/2 114/179/2 115/178/2
f 12/113/21 10/111/21 101/192/21 102/191/21
f 2/103/16 64/163/16 128/167/16 98/166/16
f 40/141/3 38/139/3 115/178/3 116/177/3
f 14/115/22 12/113/22 102/191/22 103/190/22
f 42/143/4 40/141/4 116/177/4 117/176/4
f 16/117/23 14/115/23 103/190/23 104/189/23
f 44/145/5 42/143/5 117/176/5 118/175/5
f 18/119/24 16/117/24 104/189/24 105/188/24
f 46/147/6 44/145/6 118/175/6 119/174/6
f 20/121/25 18/119/25 105/188/25 106/187/25
f 48/149/7 46/147/7 119/174/7 120/173/7
f 22/123/26 20/121/26 106/187/26 107/186/26
f 50/151/8 48/149/8 120/173/8 121/172/8
f 24/125/27 22/123/27 107/186/27 108/185/27
f 52/153/9 50/151/9 121/172/9 122/171/9
f 26/127/28 24/125/28 108/185/28 109/184/28
f 54/155/10 52/153/10 122/171/10 123/170/10
f 28/129/29 26/127/29 109/184/29 110/183/29
f 56/157/11 54/155/11 123/170/11 124/169/11
f 30/131/30 28/129/30 110/183/30 111/182/30
f 4/104/17 2/103/17 98/166/17 97/165/17
f 58/64/12 56/157/12 124/169/12 125/65/12
f 32/133/31 30/131/31 111/182/31 112/181/31
f 6/107/18 4/104/18 97/165/18 99/194/18
f 191/195/32 160/68/32 129/70/32 192/196/32
f 190/197/31 159/62/31 160/68/31 191/195/31
f 189/198/30 158/60/30 159/62/30 190/197/30
f 188/199/29 157/58/29 158/60/29 189/198/29
f 187/200/28 156/56/28 157/58/28 188/199/28
f 186/201/27 155/54/27 156/56/27 187/200/27
f 185/202/26 154/52/26 155/54/26 186/201/26
f 184/203/25 153/50/25 154/52/25 185/202/25
f 222/204/35 226/205/35 228/206/35 227/207/35 223/208/35 224/209/35
f 182/210/23 151/46/23 152/48/23 221/211/23 183/212/23
f 181/213/22 225/214/22 150/44/22 151/46/22 182/210/22
f 184/215/33 183/216/33 222/217/33 219/218/33 220/219/33
f 179/220/20 148/40/20 149/42/20 180/221/20
f 178/222/19 147/38/19 148/40/19 179/220/19
f 177/223/18 146/36/18 147/38/18 178/222/18
f 176/224/17 145/34/17 146/36/17 177/223/17
f 175/225/16 144/32/16 145/34/16 176/224/16
f 174/226/15 143/30/15 144/32/15 175/225/15
f 173/227/14 142/28/14 143/30/14 174/226/14
f 172/228/13 141/26/13 142/28/13 173/227/13
f 171/229/12 140/24/12 141/26/12 172/228/12
f 170/230/11 139/22/11 140/24/11 171/229/11
f 169/231/10 138/20/10 139/22/10 170/230/10
f 168/232/9 137/18/9 138/20/9 169/231/9
f 165/233/33 164/234/33 197/235/33 198/236/33 202/237/33
f 166/238/7 135/14/7 136/16/7 167/239/7
f 165/240/6 201/241/6 134/12/6 135/14/6 166/238/6
f 137/242/36 168/243/36 200/244/36 194/245/36
f 163/246/4 132/8/4 133/10/4 164/247/4
f 162/248/3 131/6/3 132/8/3 163/246/3
f 161/249/2 130/4/2 131/6/2 162/248/2
f 192/250/1 129/1/1 130/4/1 161/249/1
f 1/251/1 192/250/1 161/249/1 3/252/1
f 3/252/2 161/249/2 162/248/2 5/253/2
f 5/253/3 162/248/3 163/246/3 7/254/3
f 7/254/4 163/246/4 164/247/4 9/255/4
f 9/255/5 164/247/5 165/240/5 11/256/5
f 11/256/6 165/240/6 166/238/6 13/257/6
f 13/257/7 166/238/7 167/239/7 15/258/7
f 15/258/8 167/239/8 168/232/8 17/259/8
f 17/259/9 168/232/9 169/231/9 19/260/9
f 19/260/10 169/231/10 170/230/10 21/261/10
f 21/261/11 170/230/11 171/229/11 23/262/11
f 23/262/12 171/229/12 172/228/12 25/263/12
f 25/263/13 172/228/13 173/227/13 27/264/13
f 27/264/14 173/227/14 174/226/14 29/265/14
f 29/265/15 174/226/15 175/225/15 31/266/15
f 31/266/16 175/225/16 176/224/16 33/267/16
f 33/267/17 176/224/17 177/223/17 35/268/17
f 35/268/18 177/223/18 178/222/18 37/269/18
f 37/269/19 178/222/19 179/220/19 39/270/19
f 39/270/20 179/220/20 180/221/20 41/271/20
f 41/271/21 180/221/21 181/213/21 43/272/21
f 43/272/22 181/213/22 182/210/22 45/273/22
f 45/273/23 182/210/23 183/212/23 47/274/23
f 47/274/24 183/212/24 184/203/24 49/275/24
f 49/275/25 184/203/25 185/202/25 51/276/25
f 51/276/26 185/202/26 186/201/26 53/277/26
f 53/277/27 186/201/27 187/200/27 55/278/27
f 55/278/28 187/200/28 188/199/28 57/279/28
f 57/279/29 188/199/29 189/198/29 59/280/29
f 59/280/30 189/198/30 190/197/30 61/281/30
f 61/281/31 190/197/31 191/195/31 63/282/31
f 63/282/32 191/195/32 192/196/32 1/283/32
f 199/284/8 193/285/8 194/245/8 200/244/8
f 197/235/5 195/286/5 196/287/5 198/236/5
f 136/288/34 137/242/34 194/245/34 193/285/34
f 164/247/37 133/10/37 195/289/37 197/290/37
f 168/243/33 167/291/33 199/284/33 200/244/33
f 167/239/38 136/16/38 205/292/38 209/293/38 206/294/38
f 133/295/34 134/296/34 203/297/34 196/287/34 195/286/34
f 203/297/33 196/287/33 207/298/33 210/299/33
f 212/300/37 210/299/37 207/298/37 208/301/37 211/302/37
f 134/303/36 201/304/36 204/305/36 203/306/36
f 201/304/36 165/307/36 202/308/36 204/305/36
f 207/298/35 196/287/35 198/236/35 208/301/35
f 193/285/38 199/284/38 208/301/38 207/298/38
f 199/284/33 167/291/33 206/309/33 211/302/33 208/301/33
f 136/288/34 193/285/34 207/298/34 210/299/34 205/310/34
f 198/236/34 202/237/34 211/302/34 208/301/34
f 206/311/37 209/312/37 212/313/37 211/314/37
f 209/312/37 205/315/37 210/316/37 212/313/37
f 204/317/36 202/237/36 198/236/36 196/287/36 203/297/36
f 210/318/39 211/319/39 202/320/39 203/321/39
f 219/218/24 213/322/24 214/323/24 220/219/24
f 217/324/21 215/325/21 216/326/21 218/327/21
f 152/328/34 153/329/34 214/323/34 213/322/34 223/330/34
f 218/327/39 219/218/39 213/322/39 216/326/39
f 153/329/37 184/215/37 220/219/37 214/323/37
f 149/331/34 150/332/34 227/333/34 216/326/34 215/325/34
f 181/334/33 180/335/33 217/324/33 218/327/33 226/336/33
f 180/335/36 149/331/36 215/325/36 217/324/36
f 228/337/37 226/336/37 218/327/37 216/326/37 227/333/37
f 183/216/36 221/338/36 224/339/36 222/217/36
f 221/338/36 152/328/36 223/330/36 224/339/36
f 219/218/34 218/327/34 226/336/34 222/217/34
f 150/44/37 225/214/37 228/340/37 227/341/37
f 225/214/37 181/213/37 226/342/37 228/340/37
f 224/339/36 223/330/36 213/322/36 219/218/36 222/217/36
f 216/326/33 213/322/33 223/330/33 227/207/33
