# Blender v2.93.0 OBJ File: 'cocina.blend'
# www.blender.org
mtllib papas_bolsa_2.mtl
o Cubo.034_Cubo.047
v 2.104655 1.555258 -4.597067
v 2.098214 1.655258 -4.583264
v 2.104655 1.555258 -4.747066
v 2.098214 1.655258 -4.760870
v 2.174655 1.555258 -4.597067
v 2.181097 1.655258 -4.583264
v 2.174655 1.555258 -4.747066
v 2.181097 1.655258 -4.760870
v 2.175298 1.655258 -4.753852
v 2.104013 1.655258 -4.753852
v 2.104013 1.655258 -4.590281
v 2.175298 1.655258 -4.590281
v 2.108591 1.560858 -4.743348
v 2.170720 1.560858 -4.743348
v 2.170720 1.560858 -4.600786
v 2.108591 1.560858 -4.600786
v 2.098214 1.693076 -4.642466
v 2.098214 1.693076 -4.701668
v 2.104013 1.693076 -4.644805
v 2.104013 1.693076 -4.699328
v 2.100147 1.655258 -4.758531
v 2.102080 1.655258 -4.756191
v 2.100147 1.655258 -4.585603
v 2.102080 1.655258 -4.587942
v 2.100147 1.693076 -4.700888
v 2.102080 1.693076 -4.700108
v 2.100147 1.693076 -4.643245
v 2.102080 1.693076 -4.644025
v 2.181097 1.636730 -4.701668
v 2.181097 1.636730 -4.642466
v 2.175298 1.636730 -4.699328
v 2.175298 1.636730 -4.644805
v 2.177231 1.655258 -4.756191
v 2.179164 1.655258 -4.758531
v 2.179164 1.655258 -4.585603
v 2.177231 1.655258 -4.587942
v 2.179164 1.636730 -4.643245
v 2.177231 1.636730 -4.644025
v 2.179164 1.636730 -4.700888
v 2.177231 1.636730 -4.700108
vt 0.656422 0.879599
vt 0.663578 0.879599
vt 0.663578 0.881984
vt 0.663578 0.884370
vt 0.663578 0.886755
vt 0.656422 0.886755
vt 0.663578 0.893912
vt 0.656422 0.893912
vt 0.663578 0.896298
vt 0.663578 0.898683
vt 0.663578 0.901069
vt 0.656422 0.901069
vt 0.663578 0.908226
vt 0.656422 0.908226
vt 0.649265 0.893912
vt 0.649265 0.901069
vt 0.664079 0.894195
vt 0.670234 0.894195
vt 0.670234 0.894195
vt 0.664079 0.894195
vt 0.670735 0.893912
vt 0.670568 0.894006
vt 0.670401 0.894101
vt 0.663912 0.894101
vt 0.663745 0.894006
vt 0.670735 0.901069
vt 0.663745 0.900975
vt 0.663912 0.900881
vt 0.664079 0.900786
vt 0.670234 0.900786
vt 0.670401 0.900881
vt 0.670568 0.900975
vt 0.670234 0.900786
vt 0.664079 0.900786
vt 0.664079 0.898589
vt 0.664079 0.896392
vt 0.670234 0.896392
vt 0.670234 0.898589
vt 0.670401 0.898621
vt 0.670568 0.898652
vt 0.670735 0.898683
vt 0.670401 0.896361
vt 0.670735 0.896298
vt 0.670568 0.896329
vt 0.663912 0.896361
vt 0.663912 0.898621
vt 0.663745 0.898652
vt 0.663745 0.896329
vn -0.9987 -0.0505 0.0000
vn 0.0000 -0.1367 -0.9906
vn 0.9972 -0.0742 0.0000
vn 0.0000 -0.1367 0.9906
vn 0.0000 -1.0000 0.0000
vn 0.0000 0.1106 0.9939
vn 0.0000 1.0000 -0.0000
vn 0.0000 0.1106 -0.9939
vn -0.9984 0.0563 0.0000
vn 0.9993 0.0377 0.0000
vn 0.4080 0.7602 0.5056
vn 0.4080 0.7602 -0.5056
vn 0.2425 0.9224 0.3006
vn 0.2425 0.9224 -0.3006
usemtl Material.004
s off
f 1/1/1 2/2/1 17/3/1 18/4/1 4/5/1 3/6/1
f 3/6/2 4/5/2 8/7/2 7/8/2
f 7/8/3 8/7/3 29/9/3 30/10/3 6/11/3 5/12/3
f 5/12/4 6/11/4 2/13/4 1/14/4
f 3/15/5 7/8/5 5/12/5 1/16/5
f 9/17/6 10/18/6 13/19/6 14/20/6
f 8/7/7 4/21/7 21/22/7 22/23/7 10/18/7 9/17/7 33/24/7 34/25/7
f 2/26/7 6/11/7 35/27/7 36/28/7 12/29/7 11/30/7 24/31/7 23/32/7
f 14/20/7 13/19/7 16/33/7 15/34/7
f 11/30/8 12/29/8 15/34/8 16/33/8
f 12/29/9 32/35/9 31/36/9 9/17/9 14/20/9 15/34/9
f 10/18/10 20/37/10 19/38/10 11/30/10 16/33/10 13/19/10
f 24/31/11 11/30/11 19/38/11 28/39/11 27/40/11 17/41/11 2/26/11 23/32/11
f 26/42/12 20/37/12 10/18/12 22/23/12 21/22/12 4/21/12 18/43/12 25/44/12
f 28/39/7 19/38/7 20/37/7 26/42/7 25/44/7 18/43/7 17/41/7 27/40/7
f 40/45/7 31/36/7 32/35/7 38/46/7 37/47/7 30/10/7 29/9/7 39/48/7
f 33/24/13 9/17/13 31/36/13 40/45/13 39/48/13 29/9/13 8/7/13 34/25/13
f 38/46/14 32/35/14 12/29/14 36/28/14 35/27/14 6/11/14 30/10/14 37/47/14
