# Blender v2.93.0 OBJ File: 'cocina.blend'
# www.blender.org
mtllib silla_ext_2.mtl
o Cubo.018_Cubo.035
v -2.883904 0.069372 -4.144325
v -2.883904 0.969372 -4.144325
v -2.883904 0.069372 -3.644325
v -2.883904 0.969372 -3.644325
v -3.383904 0.069372 -4.144325
v -3.383904 0.069372 -3.644325
v -2.883904 0.069372 -3.694325
v -2.883904 0.069372 -4.094325
v -2.883904 0.159372 -4.144325
v -2.883904 0.249372 -4.144325
v -2.883904 0.339372 -4.144325
v -2.883904 0.429372 -4.144325
v -3.383904 0.069372 -4.094325
v -3.383904 0.069372 -3.694325
v -3.383904 0.519372 -4.144325
v -3.383904 0.429372 -4.144325
v -3.383904 0.339372 -4.144325
v -3.383904 0.249372 -4.144325
v -3.383904 0.159372 -4.144325
v -2.933903 0.069372 -4.144325
v -3.333904 0.069372 -4.144325
v -2.933903 0.969372 -4.144325
v -2.883904 0.429372 -3.644325
v -2.883904 0.339372 -3.644325
v -2.883904 0.249372 -3.644325
v -2.883904 0.159372 -3.644325
v -3.333904 0.069372 -3.644325
v -2.933903 0.069372 -3.644325
v -2.933903 0.969372 -3.644325
v -3.383904 0.519372 -3.644325
v -3.383904 0.429372 -3.644325
v -3.383904 0.339372 -3.644325
v -3.383904 0.249372 -3.644325
v -3.383904 0.159372 -3.644325
v -2.933903 0.789372 -3.644325
v -2.933903 0.519372 -3.644325
v -3.333904 0.429372 -3.644325
v -2.933903 0.429372 -3.644325
v -3.333904 0.339372 -3.644325
v -2.933903 0.339372 -3.644325
v -3.333904 0.249372 -3.644325
v -2.933903 0.249372 -3.644325
v -3.333904 0.159372 -3.644325
v -2.933903 0.159372 -3.644325
v -3.333904 0.159372 -4.144325
v -2.933903 0.159372 -4.144325
v -3.333904 0.249372 -4.144325
v -2.933903 0.249372 -4.144325
v -3.333904 0.339372 -4.144325
v -2.933903 0.339372 -4.144325
v -3.333904 0.429372 -4.144325
v -2.933903 0.429372 -4.144325
v -2.933903 0.519372 -4.144325
v -2.933903 0.789372 -4.144325
v -3.383904 0.159372 -3.694325
v -3.383904 0.159372 -4.094325
v -3.383904 0.249372 -3.694325
v -3.383904 0.249372 -4.094325
v -3.383904 0.339372 -3.694325
v -3.383904 0.339372 -4.094325
v -3.383904 0.429372 -3.694325
v -3.383904 0.429372 -4.094325
v -2.883904 0.159372 -4.094325
v -2.883904 0.159372 -3.694325
v -2.883904 0.249372 -4.094325
v -2.883904 0.249372 -3.694325
v -2.883904 0.339372 -4.094325
v -2.883904 0.339372 -3.694325
v -2.883904 0.429372 -4.094325
v -2.883904 0.429372 -3.694325
v -2.933903 0.744372 -3.644325
v -2.933903 0.789372 -3.680039
v -2.933903 0.744372 -3.680039
v -2.933903 0.789372 -4.108611
v -2.933903 0.744372 -4.144325
v -2.933903 0.744372 -4.108611
v -3.215109 0.789372 -4.108611
v -3.215109 0.789372 -4.144325
v -3.215109 0.744372 -3.644325
v -3.215109 0.789372 -3.644325
v -3.215109 0.789372 -3.680039
v -3.215109 0.744372 -3.680039
v -3.215109 0.744372 -4.144325
v -3.215109 0.744372 -4.108611
v -3.232447 0.769848 -4.108611
v -3.232447 0.769848 -4.144325
v -3.229419 0.724950 -3.644325
v -3.232447 0.769848 -3.644325
v -3.232447 0.769848 -3.680039
v -3.229419 0.724950 -3.680039
v -3.229420 0.724950 -4.144325
v -3.229420 0.724950 -4.108611
v -3.248433 0.749201 -4.108611
v -3.248433 0.749201 -4.144325
v -3.242391 0.704609 -3.644325
v -3.248433 0.749201 -3.644325
v -3.248433 0.749201 -3.680039
v -3.242391 0.704609 -3.680039
v -3.242391 0.704609 -4.144325
v -3.242391 0.704609 -4.108611
v -3.262993 0.727526 -4.108611
v -3.262993 0.727526 -4.144325
v -3.253965 0.683441 -3.644325
v -3.262993 0.727526 -3.644325
v -3.262993 0.727526 -3.680039
v -3.253965 0.683441 -3.680039
v -3.253965 0.683441 -4.144325
v -3.253965 0.683441 -4.108611
v -3.276062 0.704920 -4.108610
v -3.276062 0.704920 -4.144325
v -3.264089 0.661542 -3.644325
v -3.276062 0.704920 -3.644325
v -3.276062 0.704920 -3.680039
v -3.264089 0.661542 -3.680039
v -3.264089 0.661542 -4.144325
v -3.264089 0.661542 -4.108610
v -3.287581 0.681486 -4.108610
v -3.287581 0.681486 -4.144325
v -3.272716 0.639012 -3.644325
v -3.287581 0.681486 -3.644325
v -3.287581 0.681486 -3.680039
v -3.272716 0.639012 -3.680039
v -3.272716 0.639012 -4.144325
v -3.272716 0.639012 -4.108610
v -3.297497 0.657330 -4.108610
v -3.297497 0.657330 -4.144325
v -3.279808 0.615953 -3.644325
v -3.297497 0.657330 -3.644325
v -3.297497 0.657330 -3.680039
v -3.279808 0.615953 -3.680039
v -3.279808 0.615953 -4.144325
v -3.279808 0.615953 -4.108610
v -3.305765 0.632562 -4.108610
v -3.305765 0.632562 -4.144325
v -3.285333 0.592468 -3.644325
v -3.305765 0.632562 -3.644325
v -3.305765 0.632562 -3.680039
v -3.285333 0.592468 -3.680039
v -3.285333 0.592468 -4.144325
v -3.285333 0.592468 -4.108610
v -3.312348 0.607294 -4.108610
v -3.312348 0.607294 -4.144325
v -3.289264 0.568666 -3.644325
v -3.312348 0.607294 -3.644325
v -3.312348 0.607294 -3.680039
v -3.289264 0.568666 -3.680039
v -3.289264 0.568666 -4.144325
v -3.289264 0.568666 -4.108610
v -3.317216 0.581640 -4.108610
v -3.317216 0.581640 -4.144325
v -3.291586 0.544652 -3.644325
v -3.317216 0.581640 -3.644325
v -3.317216 0.581640 -3.680039
v -3.291586 0.544652 -3.680039
v -3.291586 0.544652 -4.144325
v -3.291586 0.544652 -4.108610
v -3.320347 0.555717 -4.108610
v -3.320347 0.555717 -4.144324
v -3.292287 0.520537 -3.644325
v -3.320347 0.555717 -3.644325
v -3.320347 0.555717 -3.680039
v -3.292287 0.520537 -3.680039
v -3.292287 0.520537 -4.144324
v -3.292287 0.520537 -4.108610
v -3.321727 0.529641 -4.108610
v -3.321727 0.529641 -4.144324
v -3.291363 0.496429 -3.644325
v -3.321727 0.529641 -3.644325
v -3.321727 0.529641 -3.680039
v -3.291363 0.496429 -3.680039
v -3.291364 0.496429 -4.144324
v -3.291364 0.496429 -4.108610
v -3.321350 0.503532 -4.108610
v -3.321350 0.503532 -4.144324
v -3.288821 0.472439 -3.644325
v -3.321350 0.503532 -3.644325
v -3.321350 0.503532 -3.680039
v -3.288821 0.472439 -3.680039
v -3.288821 0.472438 -4.144324
v -3.288821 0.472438 -4.108610
v -3.271404 0.519372 -3.644325
v -3.158903 0.519372 -3.644325
v -3.046403 0.519372 -3.644325
v -3.271404 0.519372 -4.144325
v -3.158904 0.519372 -4.144325
v -3.046403 0.519372 -4.144325
v -3.383904 0.519372 -3.769325
v -3.383904 0.519372 -3.894325
v -3.383904 0.519372 -4.019325
v -2.933903 0.519372 -3.769325
v -2.933903 0.519372 -3.894325
v -2.933903 0.519372 -4.019325
v -3.271404 0.504480 -4.019325
v -3.158904 0.504480 -4.019325
v -3.046403 0.504480 -4.019325
v -3.271404 0.519372 -3.894325
v -3.158904 0.519372 -3.894325
v -3.046403 0.519372 -3.894325
v -3.271404 0.504480 -3.769325
v -3.158904 0.504480 -3.769325
v -3.046403 0.504480 -3.769325
v -2.933903 0.631872 -3.644325
v -2.933903 0.969372 -3.894325
v -2.933903 0.789372 -4.126468
v -2.933903 0.519372 -4.081825
v -2.933903 0.631872 -4.144325
v -2.933903 0.789372 -3.662182
v -2.933903 0.744372 -3.662182
v -2.933903 0.766872 -3.680039
v -2.933903 0.744372 -4.126468
v -2.933903 0.766872 -4.108611
v -2.933903 0.519372 -3.706825
v -2.933903 0.969372 -4.019325
v -2.933903 0.969372 -3.769325
v -2.888415 0.744372 -3.894325
v -3.133904 0.466280 -4.144325
v -3.133904 0.466280 -3.644325
v -3.383904 0.457222 -3.894325
v -2.883904 0.457222 -3.894325
v -3.383904 0.457519 -3.894325
v -2.883904 0.457519 -3.894325
v -2.908904 0.969372 -4.144325
v -2.883904 0.969372 -3.894325
v -2.908904 0.969372 -3.644325
v -2.933903 0.969372 -4.081825
v -2.933903 0.969372 -3.831825
v -2.933903 0.969372 -3.956825
v -2.933903 0.969372 -3.706825
vt 0.168153 0.165822
vt 0.166148 0.165822
vt 0.166148 0.163817
vt 0.168153 0.163817
vt 0.838838 0.331250
vt 0.834828 0.331250
vt 0.833825 0.331250
vt 0.831319 0.331250
vt 0.828813 0.331250
vt 0.828813 0.335703
vt 0.828813 0.340157
vt 0.828813 0.344610
vt 0.828813 0.349064
vt 0.826807 0.349064
vt 0.826807 0.347085
vt 0.826807 0.339167
vt 0.826807 0.331250
vt 0.826807 0.329271
vt 0.838838 0.329271
vt 0.838838 0.330260
vt 0.174168 0.165822
vt 0.172163 0.165822
vt 0.172163 0.163817
vt 0.174168 0.163817
vt 0.170158 0.165822
vt 0.170158 0.163817
vt 0.174168 0.183868
vt 0.172163 0.183868
vt 0.172163 0.181863
vt 0.174168 0.181863
vt 0.170158 0.183868
vt 0.170158 0.181863
vt 0.168153 0.183868
vt 0.168153 0.181863
vt 0.166148 0.183868
vt 0.166148 0.181863
vt 0.858889 0.349064
vt 0.858889 0.358961
vt 0.858889 0.368857
vt 0.857887 0.368857
vt 0.856884 0.368857
vt 0.856884 0.366383
vt 0.856884 0.363909
vt 0.856884 0.361435
vt 0.856884 0.358961
vt 0.856884 0.356487
vt 0.856884 0.354012
vt 0.856884 0.351538
vt 0.856884 0.349064
vt 0.857887 0.349064
vt 0.168153 0.221965
vt 0.170158 0.221965
vt 0.172163 0.221965
vt 0.174168 0.221965
vt 0.174168 0.223970
vt 0.172163 0.223970
vt 0.170158 0.223970
vt 0.168153 0.223970
vt 0.166148 0.223970
vt 0.166148 0.221965
vt 0.828813 0.386671
vt 0.831319 0.386671
vt 0.833825 0.386671
vt 0.834828 0.386671
vt 0.838838 0.386671
vt 0.838838 0.387661
vt 0.838838 0.388651
vt 0.826807 0.388651
vt 0.826807 0.386671
vt 0.166148 0.203919
vt 0.168153 0.203919
vt 0.168153 0.205924
vt 0.166148 0.205924
vt 0.170158 0.203919
vt 0.170158 0.205924
vt 0.172163 0.203919
vt 0.172163 0.205924
vt 0.174168 0.203919
vt 0.174168 0.205924
vt 0.828813 0.368857
vt 0.828813 0.373311
vt 0.828813 0.377764
vt 0.828813 0.382218
vt 0.826807 0.378754
vt 0.826807 0.370837
vt 0.826807 0.368857
vt 0.166148 0.201914
vt 0.168153 0.201914
vt 0.170158 0.201914
vt 0.172163 0.201914
vt 0.174168 0.201914
vt 0.168153 0.185873
vt 0.166148 0.185873
vt 0.170158 0.185873
vt 0.172163 0.185873
vt 0.174168 0.185873
vt 0.828813 0.354012
vt 0.828813 0.358961
vt 0.828813 0.363909
vt 0.826807 0.366878
vt 0.826807 0.358961
vt 0.826807 0.351043
vt 0.166148 0.161812
vt 0.168153 0.161812
vt 0.170158 0.161812
vt 0.172163 0.161812
vt 0.174168 0.161812
vt 0.838838 0.309477
vt 0.838838 0.319374
vt 0.826807 0.327291
vt 0.826807 0.319374
vt 0.826807 0.311457
vt 0.826807 0.309477
vt 0.166148 0.143766
vt 0.168153 0.143766
vt 0.168153 0.145771
vt 0.166148 0.145771
vt 0.170158 0.143766
vt 0.170158 0.145771
vt 0.172163 0.143766
vt 0.172163 0.145771
vt 0.174168 0.143766
vt 0.174168 0.145771
vt 0.828813 0.347332
vt 0.828813 0.338178
vt 0.828813 0.345105
vt 0.675075 0.863090
vt 0.675075 0.861110
vt 0.675075 0.859131
vt 0.675075 0.859131
vt 0.675075 0.863090
vt 0.676078 0.863090
vt 0.675577 0.863090
vt 0.676078 0.863090
vt 0.676078 0.910594
vt 0.676078 0.914552
vt 0.676078 0.914552
vt 0.676078 0.910594
vt 0.676078 0.859131
vt 0.676078 0.863090
vt 0.676078 0.859131
vt 0.676078 0.859131
vt 0.675075 0.914552
vt 0.675075 0.912573
vt 0.675075 0.910594
vt 0.675075 0.910594
vt 0.675075 0.914552
vt 0.676078 0.861110
vt 0.676078 0.914552
vt 0.675577 0.910594
vt 0.676078 0.910594
vt 0.676078 0.912573
vt 0.675075 0.863090
vt 0.675075 0.863090
vt 0.676078 0.863090
vt 0.675075 0.914552
vt 0.675075 0.910594
vt 0.675075 0.910594
vt 0.675075 0.914552
vt 0.675075 0.859131
vt 0.675075 0.859131
vt 0.676078 0.859131
vt 0.676078 0.859131
vt 0.675075 0.859131
vt 0.675075 0.863090
vt 0.676078 0.914552
vt 0.676078 0.910594
vt 0.676078 0.914552
vt 0.675075 0.914552
vt 0.675075 0.914552
vt 0.676078 0.914552
vt 0.675075 0.910594
vt 0.676078 0.910594
vt 0.676078 0.910594
vt 0.675075 0.910594
vt 0.676078 0.863090
vt 0.676078 0.859131
vt 0.676078 0.863090
vt 0.676078 0.863090
vt 0.676078 0.859131
vt 0.675075 0.863090
vt 0.675075 0.863090
vt 0.675075 0.859131
vt 0.675075 0.863090
vt 0.676078 0.863090
vt 0.675075 0.914552
vt 0.675075 0.910594
vt 0.675075 0.910594
vt 0.675075 0.914552
vt 0.676078 0.914552
vt 0.676078 0.910594
vt 0.675075 0.859131
vt 0.675075 0.859131
vt 0.675075 0.859131
vt 0.675075 0.863090
vt 0.676078 0.914552
vt 0.675075 0.914552
vt 0.676078 0.914552
vt 0.676078 0.859131
vt 0.676078 0.910594
vt 0.675075 0.910594
vt 0.676078 0.910594
vt 0.676078 0.910594
vt 0.675075 0.910594
vt 0.676078 0.914552
vt 0.676078 0.859131
vt 0.676078 0.863090
vt 0.676078 0.863090
vt 0.675075 0.863090
vt 0.675075 0.863090
vt 0.676078 0.863090
vt 0.675075 0.914552
vt 0.675075 0.910594
vt 0.675075 0.914552
vt 0.675075 0.859131
vt 0.676078 0.859131
vt 0.675075 0.910594
vt 0.675075 0.914552
vt 0.675075 0.859131
vt 0.676078 0.859131
vt 0.676078 0.859131
vt 0.675075 0.859131
vt 0.676078 0.914552
vt 0.676078 0.910594
vt 0.834828 0.386671
vt 0.833825 0.386671
vt 0.833825 0.386671
vt 0.834828 0.386671
vt 0.833825 0.382713
vt 0.834828 0.382713
vt 0.834828 0.382713
vt 0.833825 0.382713
vt 0.675075 0.863090
vt 0.676078 0.863090
vt 0.676078 0.914552
vt 0.676078 0.910594
vt 0.834828 0.386671
vt 0.834828 0.382713
vt 0.834828 0.331250
vt 0.834828 0.335209
vt 0.834828 0.335209
vt 0.834828 0.331250
vt 0.833825 0.335209
vt 0.833825 0.331250
vt 0.833825 0.331250
vt 0.833825 0.335209
vt 0.834828 0.331250
vt 0.834828 0.335209
vt 0.676078 0.863090
vt 0.676078 0.859131
vt 0.676078 0.914552
vt 0.676078 0.910594
vt 0.833825 0.382713
vt 0.833825 0.386671
vt 0.833825 0.331250
vt 0.833825 0.335209
vt 0.826807 0.358961
vt 0.826807 0.358961
vt 0.828813 0.370589
vt 0.828813 0.372816
vt 0.828813 0.379744
vt 0.828813 0.358961
vt 0.828813 0.358961
vt 0.828813 0.366136
vt 0.828813 0.368362
vt 0.828813 0.358961
vt 0.828813 0.358961
vt 0.828813 0.351786
vt 0.828813 0.349559
vt 0.788710 0.309477
vt 0.788710 0.309477
vt 0.788710 0.309477
vt 0.788710 0.309477
vt 0.788710 0.309477
vt 0.788710 0.309477
vt 0.788710 0.309477
vt 0.788710 0.309477
vt 0.834327 0.382713
vt 0.788710 0.309477
vt 0.788710 0.309477
vt 0.834327 0.335209
vt 0.834828 0.335209
vn 0.0000 0.0000 1.0000
vn 0.0000 1.0000 0.0000
vn -0.0000 0.0000 -1.0000
vn -1.0000 0.0000 0.0000
vn 1.0000 0.0000 0.0000
vn -0.0659 0.9961 -0.0593
vn 0.0000 -1.0000 0.0000
vn -0.7477 0.6640 0.0000
vn 0.8431 -0.5377 0.0000
vn 0.8051 -0.5932 0.0000
vn 0.8774 -0.4797 0.0000
vn -0.7907 0.6122 0.0000
vn -0.8301 0.5576 0.0000
vn -0.8974 0.4411 0.0000
vn 0.9077 -0.4196 0.0000
vn -0.8657 0.5005 0.0000
vn 0.9558 -0.2940 0.0000
vn 0.9339 -0.3576 0.0000
vn 0.9734 -0.2290 0.0000
vn -0.9251 0.3797 0.0000
vn -0.9677 0.2521 0.0000
vn -0.9485 0.3166 0.0000
vn 0.9954 -0.0962 0.0000
vn 0.9866 -0.1630 0.0000
vn 0.9996 -0.0290 0.0000
vn -0.9825 0.1864 0.0000
vn -0.9928 0.1199 0.0000
vn -0.9999 -0.0145 0.0000
vn 0.9993 0.0383 0.0000
vn -0.9986 0.0528 0.0000
vn -0.6910 -0.7229 0.0000
vn 0.9944 0.1054 0.0000
vn -0.7071 0.0000 0.7071
vn -0.7071 0.0000 -0.7071
vn 0.7071 0.0000 -0.7071
vn 0.7071 0.0000 0.7071
vn -0.0659 0.9961 0.0593
vn 0.0659 0.9961 0.0593
vn 0.0000 0.9930 0.1183
vn 0.0659 0.9961 -0.0593
vn 0.0000 0.9930 -0.1183
vn -0.9880 0.1011 0.1168
vn -0.9846 -0.1271 0.1201
vn -0.9880 0.1011 -0.1168
vn -0.9846 -0.1271 -0.1201
usemtl Material.013
s off
f 44/1/1 28/2/1 3/3/1 26/4/1
f 29/5/1 35/6/1 71/7/1 202/8/1 36/9/1 183/10/1 182/11/1 181/12/1 30/13/1 31/14/1 37/15/1 217/16/1 38/17/1 23/18/1 4/19/1 224/20/1
f 38/21/1 40/22/1 24/23/1 23/24/1
f 40/22/1 42/25/1 25/26/1 24/23/1
f 42/25/1 44/1/1 26/4/1 25/26/1
f 31/27/1 32/28/1 39/29/1 37/30/1
f 32/28/1 33/31/1 41/32/1 39/29/1
f 33/31/1 34/33/1 43/34/1 41/32/1
f 34/33/1 6/35/1 27/36/1 43/34/1
f 4/37/2 223/38/2 2/39/2 222/40/2 22/41/2 225/42/2 213/43/2 227/44/2 203/45/2 226/46/2 214/47/2 228/48/2 29/49/2 224/50/2
f 46/51/3 48/52/3 50/53/3 52/54/3 12/55/3 11/56/3 10/57/3 9/58/3 1/59/3 20/60/3
f 53/61/3 206/62/3 75/63/3 54/64/3 22/65/3 222/66/3 2/67/3 12/68/3 52/69/3
f 5/70/3 19/71/3 45/72/3 21/73/3
f 19/71/3 18/74/3 47/75/3 45/72/3
f 18/74/3 17/76/3 49/77/3 47/75/3
f 17/76/3 16/78/3 51/79/3 49/77/3
f 15/80/3 184/81/3 185/82/3 186/83/3 53/61/3 52/69/3 216/84/3 51/85/3 16/86/3
f 13/87/4 56/88/4 19/71/4 5/70/4
f 56/88/4 58/89/4 18/74/4 19/71/4
f 58/89/4 60/90/4 17/76/4 18/74/4
f 60/90/4 62/91/4 16/78/4 17/76/4
f 6/35/4 34/33/4 55/92/4 14/93/4
f 34/33/4 33/31/4 57/94/4 55/92/4
f 33/31/4 32/28/4 59/95/4 57/94/4
f 32/28/4 31/27/4 61/96/4 59/95/4
f 30/13/4 187/97/4 188/98/4 189/99/4 15/80/4 16/86/4 62/100/4 218/101/4 61/102/4 31/14/4
f 7/103/5 64/104/5 26/4/5 3/3/5
f 64/104/5 66/105/5 25/26/5 26/4/5
f 66/105/5 68/106/5 24/23/5 25/26/5
f 68/106/5 70/107/5 23/24/5 24/23/5
f 2/108/5 223/109/5 4/19/5 23/18/5 70/110/5 219/111/5 69/112/5 12/113/5
f 1/114/5 9/115/5 63/116/5 8/117/5
f 9/115/5 10/118/5 65/119/5 63/116/5
f 10/118/5 11/120/5 67/121/5 65/119/5
f 11/120/5 12/122/5 69/123/5 67/121/5
f 201/124/6 183/10/6 36/9/6 212/125/6 190/126/6
f 73/127/7 208/128/7 71/129/7 79/130/7 82/131/7
f 72/132/3 209/133/3 73/127/3 82/131/3 81/134/3
f 77/135/8 78/136/8 86/137/8 85/138/8
f 80/139/8 81/134/8 89/140/8 88/141/8
f 71/129/1 35/142/1 80/139/1 79/130/1
f 75/143/7 210/144/7 76/145/7 84/146/7 83/147/7
f 35/142/2 207/148/2 72/132/2 81/134/2 80/139/2
f 54/149/3 75/143/3 83/147/3 78/136/3
f 76/145/1 211/150/1 74/151/1 77/135/1 84/146/1
f 74/151/2 204/152/2 54/149/2 78/136/2 77/135/2
f 89/140/3 90/153/3 98/154/3 97/155/3
f 91/156/9 92/157/9 100/158/9 99/159/9
f 84/146/1 77/135/1 85/138/1 92/157/1
f 78/136/3 83/147/3 91/156/3 86/137/3
f 82/131/10 79/130/10 87/160/10 90/153/10
f 79/130/1 80/139/1 88/141/1 87/160/1
f 83/147/10 84/146/10 92/157/10 91/156/10
f 81/134/3 82/131/3 90/153/3 89/140/3
f 95/161/1 96/162/1 104/163/1 103/164/1
f 98/154/11 95/161/11 103/164/11 106/165/11
f 88/141/12 89/140/12 97/155/12 96/162/12
f 85/138/12 86/137/12 94/166/12 93/167/12
f 92/157/1 85/138/1 93/167/1 100/158/1
f 86/137/3 91/156/3 99/159/3 94/166/3
f 90/153/9 87/160/9 95/161/9 98/154/9
f 87/160/1 88/141/1 96/162/1 95/161/1
f 102/168/3 107/169/3 115/170/3 110/171/3
f 108/172/1 101/173/1 109/174/1 116/175/1
f 99/159/11 100/158/11 108/172/11 107/169/11
f 97/155/3 98/154/3 106/165/3 105/176/3
f 96/162/13 97/155/13 105/176/13 104/163/13
f 93/167/13 94/166/13 102/168/13 101/173/13
f 100/158/1 93/167/1 101/173/1 108/172/1
f 94/166/3 99/159/3 107/169/3 102/168/3
f 112/177/14 113/178/14 121/179/14 120/180/14
f 113/178/3 114/181/3 122/182/3 121/179/3
f 106/165/15 103/164/15 111/183/15 114/181/15
f 103/164/1 104/163/1 112/177/1 111/183/1
f 107/169/15 108/172/15 116/175/15 115/170/15
f 105/176/3 106/165/3 114/181/3 113/178/3
f 104/163/16 105/176/16 113/178/16 112/177/16
f 101/173/16 102/168/16 110/171/16 109/174/16
f 121/179/3 122/182/3 130/184/3 129/185/3
f 123/186/17 124/187/17 132/188/17 131/189/17
f 109/174/14 110/171/14 118/190/14 117/191/14
f 116/175/1 109/174/1 117/191/1 124/187/1
f 110/171/3 115/170/3 123/186/3 118/190/3
f 114/181/18 111/183/18 119/192/18 122/182/18
f 111/183/1 112/177/1 120/180/1 119/192/1
f 115/170/18 116/175/18 124/187/18 123/186/18
f 130/184/19 127/193/19 135/194/19 138/195/19
f 126/196/3 131/189/3 139/197/3 134/198/3
f 120/180/20 121/179/20 129/185/20 128/199/20
f 117/191/20 118/190/20 126/196/20 125/200/20
f 124/187/1 117/191/1 125/200/1 132/188/1
f 118/190/3 123/186/3 131/189/3 126/196/3
f 122/182/17 119/192/17 127/193/17 130/184/17
f 119/192/1 120/180/1 128/199/1 127/193/1
f 140/201/1 133/202/1 141/203/1 148/204/1
f 133/202/21 134/198/21 142/205/21 141/203/21
f 127/193/1 128/199/1 136/206/1 135/194/1
f 131/189/19 132/188/19 140/201/19 139/197/19
f 129/185/3 130/184/3 138/195/3 137/207/3
f 128/199/22 129/185/22 137/207/22 136/206/22
f 125/200/22 126/196/22 134/198/22 133/202/22
f 132/188/1 125/200/1 133/202/1 140/201/1
f 145/208/3 146/209/3 154/210/3 153/211/3
f 147/212/23 148/204/23 156/213/23 155/214/23
f 134/198/3 139/197/3 147/212/3 142/205/3
f 138/195/24 135/194/24 143/215/24 146/209/24
f 135/194/1 136/206/1 144/216/1 143/215/1
f 139/197/24 140/201/24 148/204/24 147/212/24
f 137/207/3 138/195/3 146/209/3 145/208/3
f 136/206/21 137/207/21 145/208/21 144/216/21
f 155/214/25 156/213/25 164/217/25 163/218/25
f 151/219/1 152/220/1 160/221/1 159/222/1
f 144/216/26 145/208/26 153/211/26 152/220/26
f 141/203/26 142/205/26 150/223/26 149/224/26
f 148/204/1 141/203/1 149/224/1 156/213/1
f 142/205/3 147/212/3 155/214/3 150/223/3
f 146/209/23 143/215/23 151/219/23 154/210/23
f 143/215/1 144/216/1 152/220/1 151/219/1
f 158/225/3 163/226/3 171/227/3 166/228/3
f 164/229/1 157/230/1 165/231/1 172/232/1
f 153/211/3 154/210/3 162/233/3 161/234/3
f 152/220/27 153/211/27 161/234/27 160/221/27
f 149/224/27 150/223/27 158/235/27 157/236/27
f 156/213/1 149/224/1 157/236/1 164/217/1
f 150/223/3 155/214/3 163/218/3 158/235/3
f 154/210/25 151/219/25 159/222/25 162/233/25
f 165/231/28 166/228/28 174/237/28 173/238/28
f 168/239/28 169/240/28 177/241/28 176/242/28
f 162/243/29 159/244/29 167/245/29 170/246/29
f 159/244/1 160/247/1 168/239/1 167/245/1
f 163/226/29 164/229/29 172/232/29 171/227/29
f 161/248/3 162/243/3 170/246/3 169/240/3
f 160/221/30 161/234/30 169/249/30 168/250/30
f 157/236/30 158/235/30 166/251/30 165/252/30
f 180/253/31 173/238/31 174/237/31 179/254/31
f 175/255/31 176/242/31 177/241/31 178/256/31
f 172/232/1 165/231/1 173/238/1 180/253/1
f 166/228/3 171/227/3 179/254/3 174/237/3
f 170/246/32 167/245/32 175/255/32 178/256/32
f 167/245/1 168/239/1 176/242/1 175/255/1
f 171/227/32 172/232/32 180/253/32 179/254/32
f 169/240/3 170/246/3 178/256/3 177/241/3
f 37/15/7 31/14/7 220/257/7 16/86/7 51/85/7 216/84/7 52/69/7 12/68/7 221/258/7 23/18/7 38/17/7 217/16/7
f 50/53/33 67/121/33 69/123/33 52/54/33
f 1/59/7 8/117/7 20/60/7
f 20/60/33 8/117/33 63/116/33 46/51/33
f 46/51/33 63/116/33 65/119/33 48/52/33
f 48/52/33 65/119/33 67/121/33 50/53/33
f 3/3/7 28/2/7 7/103/7
f 28/2/34 44/1/34 64/104/34 7/103/34
f 44/1/34 42/25/34 66/105/34 64/104/34
f 42/25/34 40/22/34 68/106/34 66/105/34
f 40/22/34 38/21/34 70/107/34 68/106/34
f 6/35/7 14/93/7 27/36/7
f 27/36/35 14/93/35 55/92/35 43/34/35
f 43/34/35 55/92/35 57/94/35 41/32/35
f 41/32/35 57/94/35 59/95/35 39/29/35
f 39/29/35 59/95/35 61/96/35 37/30/35
f 5/70/7 21/73/7 13/87/7
f 21/73/36 45/72/36 56/88/36 13/87/36
f 45/72/36 47/75/36 58/89/36 56/88/36
f 47/75/36 49/77/36 60/90/36 58/89/36
f 49/77/36 51/79/36 62/91/36 60/90/36
f 186/83/37 195/259/37 192/260/37 205/261/37 53/61/37
f 195/259/6 198/262/6 191/263/6 192/260/6
f 198/262/37 201/124/37 190/126/37 191/263/37
f 15/80/38 189/99/38 193/264/38 184/81/38
f 184/81/39 193/264/39 194/265/39 185/82/39
f 185/82/39 194/265/39 195/259/39 186/83/39
f 189/99/40 188/98/40 196/266/40 193/264/40
f 193/264/41 196/266/41 197/267/41 194/265/41
f 194/265/41 197/267/41 198/262/41 195/259/41
f 188/98/38 187/97/38 199/268/38 196/266/38
f 196/266/39 199/268/39 200/269/39 197/267/39
f 197/267/39 200/269/39 201/124/39 198/262/39
f 187/97/40 30/13/40 181/12/40 199/268/40
f 199/268/41 181/12/41 182/11/41 200/269/41
f 200/269/41 182/11/41 183/10/41 201/124/41
f 214/47/4 72/270/4 35/271/4 29/49/4 228/48/4
f 36/9/4 71/272/4 73/273/4 212/125/4
f 205/261/4 76/274/4 75/275/4 53/61/4
f 213/43/4 225/42/4 22/41/4 54/276/4 74/277/4
f 211/278/42 76/274/42 205/261/42 191/279/42 215/280/42
f 74/277/43 211/278/43 215/280/43 203/45/43 227/44/43 213/43/43
f 209/281/44 215/280/44 191/279/44 212/125/44 73/273/44
f 203/45/45 215/280/45 209/281/45 72/282/45 214/47/45 226/46/45
l 36 190
