# Blender v2.93.0 OBJ File: 'cocina.blend'
# www.blender.org
mtllib tabla.mtl
o Cubo_Cubo.002
v 1.866593 1.547442 -3.094670
v 1.866593 1.557442 -3.094670
v 1.866593 1.547442 -4.394670
v 1.866593 1.557442 -4.394670
v 2.566593 1.547442 -3.094670
v 2.566593 1.557442 -3.094670
v 2.566593 1.547442 -4.394670
v 2.566593 1.557442 -4.394670
v 2.539838 1.552442 -4.367585
v 1.893350 1.552442 -4.367585
v 1.893350 1.552442 -3.121755
v 2.539838 1.552442 -3.121755
v 2.519524 1.557442 -4.347022
v 1.913663 1.557442 -4.347022
v 1.913663 1.557442 -3.142318
v 2.519524 1.557442 -3.142318
vt 0.375000 0.000000
vt 0.625000 0.000000
vt 0.625000 0.250000
vt 0.375000 0.250000
vt 0.625000 0.500000
vt 0.375000 0.500000
vt 0.625000 0.750000
vt 0.375000 0.750000
vt 0.625000 1.000000
vt 0.375000 1.000000
vt 0.125000 0.500000
vt 0.125000 0.750000
vt 1.002463 -0.005305
vt 1.004655 0.992133
vt -0.006431 1.011720
vt 0.000826 -0.004616
vt 0.642500 0.808333
vt 0.691250 0.136667
vt 0.559194 0.133542
vt 0.518306 0.828542
vt 0.917522 0.059028
vt 0.897049 0.941088
vt 0.709529 0.931680
vt 0.722128 0.072636
vt 0.339882 0.849603
vt 0.335607 0.594707
vt 0.922821 0.577138
vt 0.912177 0.832114
vt 0.631250 0.931667
vt 0.625000 0.155000
vt 0.488306 0.155209
vt 0.508306 0.921458
vt 0.963354 0.742594
vt 0.967454 0.927863
vt 0.374146 0.939614
vt 0.368787 0.754757
vt 0.895367 0.146131
vt 0.854420 0.942179
vt 0.721173 0.883628
vt 0.697550 0.158485
vt 0.878043 0.904381
vt 0.887115 0.136845
vt 0.646535 0.152874
vt 0.625104 0.946624
vt 0.718306 0.904791
vt 0.747056 0.090209
vt 0.909311 0.102496
vt 0.891811 0.904170
vn -1.0000 0.0000 0.0000
vn 0.0000 0.0000 -1.0000
vn 1.0000 0.0000 0.0000
vn 0.0000 0.0000 1.0000
vn 0.0000 -1.0000 0.0000
vn 0.0000 1.0000 0.0000
vn 0.0000 0.9834 0.1815
vn 0.1837 0.9830 0.0000
vn 0.0000 0.9834 -0.1815
vn -0.1837 0.9830 0.0000
vn 0.0000 0.9717 -0.2363
vn -0.2390 0.9710 0.0000
vn 0.0000 0.9717 0.2363
vn 0.2390 0.9710 0.0000
usemtl Material.089
s off
f 1/1/1 2/2/1 4/3/1 3/4/1
f 3/4/2 4/3/2 8/5/2 7/6/2
f 7/6/3 8/5/3 6/7/3 5/8/3
f 5/8/4 6/7/4 2/9/4 1/10/4
f 3/11/5 7/6/5 5/8/5 1/12/5
f 13/13/6 14/14/6 15/15/6 16/16/6
f 8/17/7 4/18/7 10/19/7 9/20/7
f 4/21/8 2/22/8 11/23/8 10/24/8
f 2/25/9 6/26/9 12/27/9 11/28/9
f 6/29/10 8/30/10 9/31/10 12/32/10
f 9/33/11 10/34/11 14/35/11 13/36/11
f 10/37/12 11/38/12 15/39/12 14/40/12
f 11/41/13 12/42/13 16/43/13 15/44/13
f 12/45/14 9/46/14 13/47/14 16/48/14
